<svg width="20" height="20" viewBox="0 0 20 20" fill="none" xmlns="http://www.w3.org/2000/svg">
    <g clip-path="url(#clip0_828_796)">
        <path fill-rule="evenodd" clip-rule="evenodd"
            d="M10 0C7.28417 0 6.94417 0.0116667 5.8775 0.06C2.24583 0.226667 0.2275 2.24167 0.0608333 5.87667C0.0116667 6.94417 0 7.28417 0 10C0 12.7158 0.0116667 13.0567 0.06 14.1233C0.226667 17.755 2.24167 19.7733 5.87667 19.94C6.94417 19.9883 7.28417 20 10 20C12.7158 20 13.0567 19.9883 14.1233 19.94C17.7517 19.7733 19.775 17.7583 19.9392 14.1233C19.9883 13.0567 20 12.7158 20 10C20 7.28417 19.9883 6.94417 19.94 5.8775C19.7767 2.24917 17.7592 0.2275 14.1242 0.0608333C13.0567 0.0116667 12.7158 0 10 0ZM10.0022 4.86523C7.16635 4.86523 4.86719 7.1644 4.86719 10.0002C4.86719 12.8361 7.16635 15.1361 10.0022 15.1361C12.838 15.1361 15.1372 12.8369 15.1372 10.0002C15.1372 7.1644 12.838 4.86523 10.0022 4.86523ZM10.0022 13.3336C8.16135 13.3336 6.66885 11.8419 6.66885 10.0002C6.66885 8.1594 8.16135 6.6669 10.0022 6.6669C11.843 6.6669 13.3355 8.1594 13.3355 10.0002C13.3355 11.8419 11.843 13.3336 10.0022 13.3336ZM14.1367 4.66289C14.1367 4.00039 14.6742 3.46289 15.3376 3.46289C16.0001 3.46289 16.5367 4.00039 16.5367 4.66289C16.5367 5.32539 16.0001 5.86289 15.3376 5.86289C14.6742 5.86289 14.1367 5.32539 14.1367 4.66289Z"
            fill="#0E0B3A" />
    </g>
    <defs>
        <clipPath id="clip0_828_796">
            <rect width="20" height="20" fill="white" />
        </clipPath>
    </defs>
</svg>
