<?xml version="1.0" standalone="no"?>
<!DOCTYPE svg PUBLIC "-//W3C//DTD SVG 20010904//EN"
 "http://www.w3.org/TR/2001/REC-SVG-20010904/DTD/svg10.dtd">
<svg version="1.0" xmlns="http://www.w3.org/2000/svg"
 width="1024.000000pt" height="1024.000000pt" viewBox="0 0 1024.000000 1024.000000"
 preserveAspectRatio="xMidYMid meet">
<metadata>
Created by potrace 1.14, written by Peter Selinger 2001-2017
</metadata>
<g transform="translate(0.000000,1024.000000) scale(0.100000,-0.100000)"
fill="#000000" stroke="none">
<path d="M3228 9595 c-2 -2 -25 -5 -53 -8 -184 -20 -351 -82 -514 -189 -86
-58 -82 -55 -169 -139 -91 -88 -222 -263 -222 -297 0 -5 -4 -12 -8 -14 -4 -1
-26 -34 -48 -73 -21 -38 -51 -90 -66 -115 -15 -25 -31 -52 -35 -60 -4 -8 -34
-62 -68 -120 -83 -141 -252 -434 -283 -490 -14 -25 -29 -47 -34 -48 -4 -2 -6
-7 -3 -12 3 -4 -2 -13 -10 -20 -8 -7 -15 -16 -15 -20 0 -5 -26 -53 -58 -107
-32 -54 -61 -105 -65 -113 -4 -8 -15 -28 -26 -45 -19 -32 -48 -83 -89 -155
-14 -25 -29 -46 -34 -48 -4 -2 -8 -12 -8 -23 0 -10 -4 -19 -10 -19 -5 0 -10
-6 -10 -14 0 -8 -3 -16 -7 -18 -5 -1 -17 -21 -29 -43 -17 -33 -171 -301 -204
-355 -49 -80 -130 -223 -130 -230 0 -4 -7 -13 -15 -20 -8 -7 -15 -21 -15 -30
0 -10 -4 -20 -8 -22 -5 -1 -32 -46 -62 -98 -30 -52 -60 -102 -67 -111 -7 -9
-10 -19 -6 -22 3 -4 1 -7 -5 -7 -7 0 -12 -6 -12 -14 0 -8 -3 -16 -7 -18 -8 -3
-44 -66 -67 -115 -6 -13 -14 -23 -18 -23 -5 0 -8 -5 -8 -10 0 -6 -11 -27 -23
-48 -13 -20 -35 -57 -49 -82 -14 -25 -50 -88 -80 -140 -31 -52 -64 -111 -74
-130 -10 -19 -22 -36 -26 -38 -5 -2 -8 -7 -8 -12 0 -5 -20 -43 -45 -84 -25
-42 -45 -81 -45 -86 0 -6 -4 -10 -8 -10 -5 0 -17 -19 -27 -42 -10 -24 -27 -62
-37 -86 -27 -59 -67 -196 -74 -251 -3 -25 -8 -55 -10 -66 -5 -23 -4 -238 1
-275 18 -131 62 -283 108 -375 11 -22 63 -114 115 -205 52 -91 136 -236 185
-323 50 -86 94 -157 97 -157 3 0 26 35 50 78 44 77 168 265 205 311 11 13 52
61 92 106 66 76 70 84 58 102 -8 11 -28 47 -46 79 -18 32 -42 75 -54 94 -12
19 -22 37 -22 40 0 3 -16 30 -35 60 -36 58 -78 141 -82 162 -1 7 -4 18 -8 23
-18 28 -26 170 -13 238 12 72 67 192 135 297 20 30 210 363 210 366 0 3 11 21
24 42 13 20 58 98 101 172 43 74 87 151 99 170 11 19 20 38 18 43 -1 4 2 7 7
7 5 0 14 14 21 30 7 17 17 30 23 30 6 0 8 3 5 6 -4 3 20 51 53 106 32 55 59
104 59 109 0 5 3 9 8 9 4 0 16 19 27 43 11 23 22 44 25 47 8 7 100 168 100
174 0 3 14 25 30 49 17 25 30 50 30 56 0 6 5 11 10 11 6 0 10 5 10 10 0 6 18
40 40 76 22 36 40 68 40 70 0 1 36 64 80 140 44 75 80 140 80 145 0 5 3 9 8 9
4 0 15 17 25 38 20 41 49 94 57 102 6 6 22 34 63 110 16 30 35 62 41 70 6 8
22 35 36 60 13 25 42 77 65 115 23 39 75 129 116 200 41 72 77 132 81 133 5 2
8 8 8 14 0 5 10 24 22 41 13 18 22 34 22 37 -1 3 10 22 22 42 13 21 24 40 24
43 0 3 11 24 26 46 14 22 33 55 44 73 10 18 24 44 32 57 7 13 15 26 18 29 3 3
13 21 23 41 55 107 237 242 342 252 17 2 36 6 41 10 15 9 3982 3 4021 -6 57
-14 157 -68 211 -115 48 -40 127 -145 159 -212 7 -14 26 -47 42 -75 26 -45 32
-50 63 -49 18 1 87 4 153 8 135 7 371 8 487 1 l77 -5 -48 82 c-26 46 -54 94
-62 108 -8 14 -19 32 -26 40 -6 8 -11 17 -11 20 1 3 -10 23 -24 45 -14 22 -40
67 -58 100 -47 85 -136 229 -163 262 -55 68 -228 233 -246 233 -4 0 -15 8 -25
18 -13 16 -160 93 -231 123 -35 14 -115 39 -158 49 -23 5 -55 12 -72 17 -27 7
-4089 15 -4097 8z"/>
<path d="M7849 8145 c-2 -1 -44 -6 -94 -10 -49 -3 -101 -8 -115 -10 -14 -3
-47 -7 -75 -10 -62 -6 -110 -12 -155 -20 -19 -3 -48 -7 -65 -10 -24 -3 -112
-20 -255 -50 -11 -2 -140 -33 -210 -50 -3 -1 -25 -7 -50 -14 -25 -7 -49 -14
-55 -15 -5 -1 -16 -5 -22 -9 -7 -5 -13 -6 -13 -2 0 3 -16 -1 -35 -9 -19 -8
-35 -13 -35 -10 0 2 -16 -2 -35 -10 -20 -9 -37 -15 -40 -16 -3 0 -10 -2 -17
-5 -7 -2 -31 -9 -53 -15 -22 -6 -49 -15 -60 -20 -11 -5 -49 -18 -85 -30 -238
-80 -786 -324 -947 -422 -18 -11 -33 -16 -33 -11 0 4 -4 3 -8 -3 -4 -6 -32
-24 -62 -40 -30 -16 -78 -43 -107 -61 -29 -18 -55 -33 -58 -33 -3 0 -30 -15
-59 -32 -28 -18 -61 -38 -72 -45 -117 -70 -314 -199 -314 -205 0 -4 -5 -8 -10
-8 -9 0 -50 -27 -181 -119 -20 -15 -47 -33 -59 -41 -12 -8 -32 -23 -44 -32
-11 -10 -59 -46 -106 -80 -47 -34 -91 -67 -97 -73 -7 -5 -23 -18 -35 -27 -48
-36 -164 -129 -191 -153 -15 -14 -30 -25 -33 -25 -4 0 -14 -8 -23 -18 -9 -9
-41 -38 -71 -62 -55 -45 -93 -78 -134 -115 -12 -11 -60 -53 -107 -94 -46 -41
-176 -167 -289 -280 -180 -181 -241 -246 -325 -349 -11 -13 -27 -32 -35 -41
-8 -10 -31 -37 -50 -62 -19 -24 -40 -51 -47 -59 -37 -46 -132 -170 -153 -200
-13 -19 -27 -37 -30 -40 -20 -16 -180 -241 -180 -252 1 -7 14 -35 31 -63 16
-27 43 -75 59 -105 17 -30 56 -98 87 -150 30 -52 67 -115 81 -140 14 -25 36
-62 49 -82 12 -21 23 -39 23 -42 0 -2 17 -33 38 -67 22 -35 54 -91 72 -124 18
-33 36 -62 40 -65 3 -3 14 -21 23 -40 10 -19 22 -42 27 -50 53 -86 220 -382
220 -390 0 -5 5 -10 10 -10 6 0 10 -4 10 -10 0 -5 14 -33 31 -62 18 -29 40
-68 50 -85 40 -71 60 -104 148 -257 51 -87 97 -166 104 -177 7 -11 20 -17 32
-14 11 2 20 4 20 5 0 1 20 3 45 5 25 1 63 6 85 9 22 3 81 10 130 16 50 6 101
13 115 15 47 7 108 16 151 21 24 2 58 7 74 10 17 2 44 6 60 9 68 9 95 14 112
19 10 3 36 8 59 10 22 3 68 12 102 20 34 8 62 12 62 10 0 -3 8 0 18 5 9 5 31
11 47 14 41 7 220 52 278 70 26 8 47 13 47 10 0 -3 6 -1 13 5 6 5 28 13 47 18
19 4 40 9 45 10 6 1 91 30 190 64 99 33 185 62 190 64 6 2 19 6 30 10 11 5 45
17 75 28 30 11 69 25 85 31 17 7 33 11 38 9 4 -1 7 2 7 6 0 5 6 9 13 9 11 0
234 88 307 121 19 9 37 17 40 17 3 1 28 12 55 25 28 12 56 23 63 23 6 0 12 3
12 6 0 3 15 12 33 20 168 73 560 268 565 282 2 5 9 9 15 9 11 0 221 115 257
140 17 12 50 31 98 56 17 10 32 21 32 26 0 4 5 8 11 8 14 0 363 229 367 241 2
5 8 9 13 9 9 0 90 58 125 90 12 11 25 20 28 20 6 0 148 109 211 162 11 9 40
33 65 53 69 57 156 134 234 205 79 73 336 329 336 335 0 2 19 24 43 49 24 24
59 64 78 87 19 23 44 53 57 65 12 13 22 26 22 29 0 3 9 16 21 28 35 37 219
285 219 296 0 5 4 11 8 13 4 2 31 39 60 83 28 44 55 85 59 90 5 6 17 26 26 45
10 19 32 58 49 85 44 71 167 315 208 410 18 44 37 85 40 90 6 8 17 42 25 75 0
3 6 15 14 28 7 13 14 31 16 40 2 9 20 64 40 122 20 58 37 112 39 120 1 8 8 35
15 60 8 25 15 52 16 60 2 8 4 15 5 15 1 0 3 8 5 19 2 10 9 41 16 70 7 28 14
53 14 56 6 29 19 99 21 115 1 11 3 20 4 20 3 0 10 42 12 82 2 24 5 43 8 43 3
0 6 8 6 18 1 31 15 157 19 172 8 29 -5 38 -140 95 -36 15 -299 112 -330 121
-73 22 -131 38 -180 50 -33 9 -67 18 -75 21 -8 3 -22 7 -30 8 -8 1 -37 7 -65
13 -70 16 -106 24 -135 27 -14 2 -25 4 -25 5 0 2 -29 7 -90 14 -27 4 -61 8
-75 11 -27 4 -94 12 -180 22 -59 6 -646 14 -651 8z m-1344 -1459 c305 -23 581
-215 713 -498 58 -123 75 -207 75 -363 0 -114 -4 -155 -22 -220 -27 -98 -77
-208 -131 -283 -49 -70 -158 -176 -225 -219 -27 -18 -55 -37 -62 -43 -7 -5
-16 -10 -21 -10 -4 0 -30 -11 -58 -24 -138 -66 -347 -87 -529 -51 -96 18 -259
95 -342 160 -56 44 -173 167 -173 181 0 7 -3 14 -7 16 -12 5 -64 88 -56 88 5
0 3 4 -2 8 -15 11 -79 170 -83 205 0 4 -4 32 -8 63 -10 80 -11 182 -3 229 4
22 10 54 13 70 14 84 35 142 84 235 54 104 139 207 221 268 20 15 38 30 41 33
11 12 139 83 170 94 3 1 14 5 25 9 78 30 133 43 215 51 36 4 66 8 68 10 2 2
11 1 20 -1 9 -2 44 -5 77 -8z"/>
<path d="M3350 7433 c-87 -6 -249 -39 -305 -63 -11 -4 -49 -20 -85 -35 -61
-25 -190 -96 -217 -119 -30 -27 -43 -36 -47 -36 -3 0 -28 -21 -55 -47 -95 -93
-283 -268 -293 -274 -16 -10 -1 -42 44 -90 24 -25 54 -59 68 -75 34 -40 152
-175 170 -195 22 -23 77 -86 140 -159 30 -35 60 -68 65 -74 6 -6 39 -44 75
-85 36 -41 77 -88 93 -105 l27 -31 113 112 c129 128 182 178 262 248 31 28 72
65 91 83 19 17 36 32 38 32 3 0 20 15 38 33 19 17 54 48 78 67 24 19 75 61
114 93 39 32 78 64 86 70 8 7 45 36 82 65 37 29 140 107 230 172 90 66 168
123 173 127 6 4 37 25 69 47 33 21 64 43 70 47 25 21 210 139 217 139 4 0 11
5 15 12 4 7 3 8 -4 4 -7 -4 -12 -4 -12 1 0 4 -64 9 -143 9 -78 1 -227 4 -332
7 -175 6 -612 18 -765 21 -36 0 -81 0 -100 -1z"/>
<path d="M9714 6166 c-32 -66 -85 -164 -121 -224 -12 -20 -30 -50 -39 -67 -9
-16 -36 -59 -59 -95 -23 -36 -44 -69 -46 -75 -1 -5 -9 -16 -17 -24 -7 -8 -25
-32 -39 -54 -22 -35 -24 -44 -13 -61 7 -10 24 -40 38 -65 14 -25 34 -59 44
-76 10 -16 25 -46 33 -65 9 -19 20 -44 25 -55 29 -60 41 -188 26 -272 -12 -72
-53 -174 -86 -218 -4 -5 -19 -30 -32 -55 -14 -25 -34 -61 -45 -80 -11 -19 -40
-69 -63 -110 -47 -83 -125 -217 -140 -240 -6 -8 -13 -21 -17 -29 -3 -8 -35
-63 -70 -123 -35 -60 -63 -113 -63 -118 0 -4 -4 -10 -8 -12 -5 -1 -26 -34 -47
-73 -21 -38 -43 -79 -49 -90 -6 -11 -13 -22 -16 -25 -10 -10 -41 -65 -47 -82
-3 -10 -9 -18 -14 -18 -5 0 -9 -5 -9 -10 0 -14 -151 -273 -164 -282 -6 -4 -8
-8 -4 -8 3 0 -16 -37 -43 -82 -27 -46 -54 -95 -60 -110 -6 -16 -15 -28 -20
-28 -5 0 -9 -4 -9 -10 0 -5 -20 -44 -45 -86 -25 -41 -45 -77 -45 -79 0 -8 -66
-110 -72 -113 -5 -2 -8 -9 -8 -16 0 -6 -20 -44 -44 -84 -25 -40 -43 -72 -40
-72 3 0 -4 -12 -16 -27 -12 -16 -28 -41 -36 -58 -8 -16 -23 -46 -35 -65 -80
-132 -239 -411 -239 -420 0 -5 -3 -10 -7 -10 -5 0 -13 -10 -19 -23 -6 -12 -34
-62 -62 -111 -29 -49 -52 -93 -52 -97 0 -5 -4 -9 -9 -9 -5 0 -11 -8 -14 -18
-6 -18 -57 -109 -85 -152 -9 -14 -25 -41 -36 -60 -58 -108 -130 -221 -163
-259 -70 -80 -198 -152 -303 -170 -48 -8 -3988 -7 -4025 1 -77 17 -183 77
-247 140 -48 47 -156 215 -175 271 -3 9 -9 17 -13 17 -4 0 -10 8 -13 18 -3 9
-20 40 -36 67 -17 28 -38 64 -47 82 -17 32 -19 33 -89 16 -39 -9 -32 -8 -90
-17 -119 -20 -217 -30 -307 -30 -38 -1 -68 -5 -68 -11 0 -5 -5 -4 -11 2 -6 6
-22 8 -38 4 -30 -8 -63 -7 -80 3 -6 4 -11 3 -11 -2 0 -6 -10 -8 -22 -4 l-22 5
22 -30 c12 -17 22 -33 22 -36 0 -3 45 -83 101 -178 55 -95 111 -191 123 -213
13 -23 33 -57 45 -76 11 -19 26 -46 33 -60 7 -14 18 -31 25 -38 7 -7 13 -18
13 -23 0 -20 117 -165 192 -239 72 -70 253 -202 262 -190 2 3 12 -2 22 -11 28
-24 218 -94 284 -105 8 -1 44 -7 80 -12 73 -12 4103 -10 4155 1 17 4 53 12 80
18 87 19 217 68 305 116 83 45 152 91 158 106 2 4 9 7 14 7 12 0 198 184 198
195 0 3 13 23 29 43 26 32 105 162 189 311 14 25 38 68 55 95 34 58 50 85 97
171 19 33 36 62 39 65 4 3 15 22 26 42 11 21 67 120 125 220 58 100 110 190
115 200 6 10 50 86 99 170 49 84 97 168 105 186 8 17 19 32 23 32 4 0 8 5 8
10 0 6 18 40 40 76 22 36 40 67 40 69 0 2 24 43 52 92 60 101 71 120 116 200
17 32 50 87 72 123 22 36 45 76 52 90 7 14 27 49 45 78 18 29 33 54 33 56 0 6
102 180 109 186 3 3 7 12 9 20 2 8 9 22 16 30 6 8 22 35 35 60 13 25 28 51 34
58 11 14 52 86 70 122 6 14 14 27 18 30 3 3 19 30 35 60 16 30 32 57 35 60 3
3 16 25 30 50 34 61 49 87 80 140 27 46 114 197 165 285 15 28 29 52 30 55 0
3 11 28 23 55 12 28 26 59 31 70 14 31 37 106 44 140 3 17 10 50 15 75 5 25 7
48 5 52 -2 4 -1 9 3 11 10 6 9 226 -1 284 -4 23 -8 55 -10 70 -7 49 -41 167
-69 233 -6 14 -11 27 -12 30 0 3 -12 25 -25 50 -13 25 -24 47 -25 50 0 3 -8
16 -16 30 -24 38 -185 316 -237 410 -14 25 -33 55 -42 66 -16 21 -17 20 -46
-40z"/>
<path d="M1947 4574 c-1 -1 -18 -5 -38 -8 -108 -17 -328 -135 -420 -225 -15
-14 -37 -35 -50 -47 -40 -35 -179 -190 -179 -200 0 -3 -7 -12 -15 -20 -23 -23
-145 -211 -145 -223 0 -6 -5 -11 -12 -11 -6 0 -9 -3 -5 -6 3 -3 -8 -27 -24
-52 -16 -25 -29 -50 -29 -56 0 -5 -6 -17 -13 -25 -14 -16 -124 -259 -142 -311
-1 -3 -6 -16 -12 -30 -6 -14 -11 -28 -12 -32 -1 -4 -10 -28 -21 -52 -10 -24
-16 -47 -13 -50 4 -3 1 -6 -5 -6 -7 0 -11 -3 -10 -7 1 -5 -8 -39 -21 -78 -13
-38 -24 -74 -26 -80 -1 -5 -5 -17 -8 -25 -18 -49 -99 -356 -111 -425 -3 -16
-8 -41 -12 -55 -20 -88 -19 -94 23 -108 21 -7 45 -14 53 -16 8 -2 26 -9 40
-14 14 -5 28 -10 32 -11 4 -1 13 -4 20 -6 7 -3 39 -11 71 -20 31 -8 83 -22
115 -31 67 -18 68 -19 148 -38 72 -18 111 -26 141 -31 11 -2 29 -6 40 -9 10
-3 41 -8 68 -12 28 -3 53 -8 56 -10 7 -4 125 -22 197 -29 23 -3 63 -8 90 -12
61 -8 540 -8 612 1 30 3 91 13 135 22 44 9 87 18 95 19 8 2 16 4 18 5 1 2 7 4
12 5 6 1 11 3 13 5 1 1 11 4 22 6 34 8 38 9 98 32 151 57 307 163 373 254 93
125 114 312 55 468 -34 88 -33 88 -83 48 -59 -48 -105 -72 -188 -102 -79 -29
-129 -40 -235 -51 -57 -6 -203 -6 -250 0 -22 3 -47 6 -55 6 -31 1 -186 42
-212 55 -15 8 -30 14 -33 14 -14 -2 -125 64 -164 98 -91 77 -125 164 -124 317
0 78 4 107 24 190 5 22 11 48 14 57 2 9 9 27 16 40 7 13 12 24 11 25 -1 2 5
18 13 37 8 20 15 40 15 45 0 5 3 11 8 13 4 2 20 29 35 61 16 31 34 63 40 70 7
6 25 32 41 57 36 57 193 212 237 235 89 47 130 65 145 65 23 0 -8 51 -71 115
-90 93 -186 140 -311 153 -41 5 -75 7 -77 6z"/>
<path d="M6840 3500 c-41 -21 -81 -43 -87 -49 -7 -7 -13 -9 -13 -7 0 3 -30
-10 -67 -28 -67 -34 -203 -98 -213 -101 -3 -1 -27 -12 -55 -25 -27 -13 -52
-24 -55 -25 -9 -3 -53 -22 -110 -47 -66 -29 -179 -76 -275 -113 -38 -15 -79
-31 -90 -35 -11 -5 -47 -18 -80 -30 -33 -12 -73 -27 -90 -33 -16 -7 -32 -12
-35 -13 -3 0 -12 -3 -20 -6 -78 -30 -170 -61 -189 -64 -14 -3 -29 -8 -35 -12
-6 -3 -16 -7 -21 -8 -6 -1 -56 -16 -112 -34 -56 -17 -108 -33 -115 -34 -7 -2
-20 -6 -28 -9 -23 -9 -92 -28 -125 -34 -16 -3 -38 -9 -47 -14 -9 -5 -26 -9
-36 -9 -20 0 -20 -1 -2 -57 10 -32 33 -98 50 -148 18 -49 34 -97 35 -105 2 -8
4 -16 5 -17 2 -2 3 -6 5 -10 1 -5 5 -17 9 -28 22 -57 36 -96 36 -100 1 -6 -6
14 76 -225 36 -107 69 -207 71 -223 3 -15 9 -30 14 -33 5 -3 9 -16 9 -30 0
-31 16 -31 116 1 67 22 147 46 164 50 3 0 32 9 65 19 33 10 67 19 76 21 19 4
117 43 139 55 8 5 35 19 60 31 25 12 62 35 83 52 20 16 37 26 37 23 0 -10 51
35 146 129 96 95 166 191 235 322 52 99 99 186 131 243 13 25 53 99 88 165 35
66 66 122 69 125 3 3 20 32 37 65 39 77 156 295 210 393 36 65 37 65 -66 12z"/>
</g>
</svg>
