<svg xmlns="http://www.w3.org/2000/svg" width="50" height="50" viewBox="0 0 50 50" fill="none">
    <circle cx="25" cy="25" r="25" fill="#EE8F00" />
    <path fill-rule="evenodd" clip-rule="evenodd"
        d="M8 34.3942C8.47519 31.8197 9.71675 28.1207 11.9355 26.8236C12.1436 26.7012 12.3561 26.6011 12.5828 26.5259C13.3688 26.2713 14.2495 26.6595 14.6921 27.4551C13.3113 27.7686 11.9063 30.358 12.5957 31.6902C13.3892 32.9612 16.2923 33.0159 17.243 31.9576C17.6882 32.7434 17.5776 33.7148 16.978 34.2838C16.8008 34.4463 16.6094 34.5838 16.4014 34.7062C14.1922 36.006 10.4255 35.2621 8 34.3942Z"
        fill="white" />
    <path fill-rule="evenodd" clip-rule="evenodd"
        d="M15.0304 25.4021L19.1535 32.6798C19.3182 32.6597 19.4775 32.6404 19.6321 32.6216C21.7043 32.3704 22.9323 32.2216 25.1468 31.5067C33.6426 28.7448 41.2752 22.8321 42 14.39C34.4634 10.8086 25.6225 14.5885 19.0275 20.7055C17.3079 22.2981 16.5673 23.3075 15.3157 25.0135C15.2235 25.1391 15.1286 25.2684 15.0304 25.4021ZM29.8325 18.5057C30.8874 18.6251 31.7667 19.2552 32.2578 20.1221C32.5863 20.702 32.7374 21.3864 32.6626 22.104C32.4706 23.8966 30.8942 25.1899 29.1352 24.9943C28.0803 24.8749 27.2011 24.2447 26.71 23.3779C26.3814 22.7979 26.2303 22.1135 26.3052 21.396C26.4972 19.6034 28.0735 18.31 29.8325 18.5057Z"
        fill="white" />
    <path fill-rule="evenodd" clip-rule="evenodd"
        d="M29.1501 34.4399L31.353 30.2918C29.048 31.5232 26.4478 32.5792 23.9159 33.2373L25.1664 37L26.8426 36.4877C27.8366 36.1108 28.6485 35.3836 29.1501 34.4399Z"
        fill="white" />
    <path fill-rule="evenodd" clip-rule="evenodd"
        d="M18.5297 15.6937L23.1562 15.8236C20.9572 17.2422 18.7598 19.009 16.9345 20.9144L14.3622 17.9295L15.6356 16.7063C16.4565 16.0238 17.4769 15.6645 18.5297 15.6937Z"
        fill="white" />
</svg>
