<svg xmlns="http://www.w3.org/2000/svg" width="50" height="50" viewBox="0 0 50 50" fill="none">
    <path fill-rule="evenodd" clip-rule="evenodd"
        d="M25 50C38.8071 50 50 38.8071 50 25C50 11.1929 38.8071 0 25 0C11.1929 0 0 11.1929 0 25C0 38.8071 11.1929 50 25 50ZM19.1535 32.6798L15.0304 25.4021C15.1274 25.2701 15.2212 25.1422 15.3123 25.0181L15.3157 25.0135C16.5673 23.3075 17.3079 22.2981 19.0275 20.7055C25.6225 14.5885 34.4635 10.8086 42 14.39C41.2752 22.8321 33.6426 28.7448 25.1468 31.5067C22.9323 32.2215 21.7043 32.3704 19.6321 32.6216C19.4775 32.6404 19.3182 32.6597 19.1535 32.6798ZM32.2578 20.1221C31.7667 19.2552 30.8874 18.6251 29.8325 18.5057C28.0735 18.31 26.4972 19.6034 26.3052 21.396C26.2303 22.1135 26.3814 22.7979 26.71 23.3779C27.2011 24.2447 28.0803 24.8749 29.1352 24.9943C30.8942 25.1899 32.4706 23.8966 32.6626 22.104C32.7374 21.3864 32.5863 20.702 32.2578 20.1221ZM11.9355 26.8236C9.71675 28.1207 8.47519 31.8197 8 34.3942C10.4255 35.2621 14.1922 36.006 16.4014 34.7062C16.6094 34.5838 16.8008 34.4463 16.978 34.2838C17.5776 33.7148 17.6882 32.7434 17.243 31.9576C16.2923 33.0159 13.3892 32.9612 12.5957 31.6902C11.9063 30.358 13.3113 27.7686 14.6921 27.4551C14.2495 26.6595 13.3688 26.2713 12.5828 26.5259C12.3561 26.6011 12.1436 26.7012 11.9355 26.8236ZM29.1501 34.4399L31.353 30.2918C29.048 31.5232 26.4478 32.5792 23.9159 33.2373L25.1664 37L26.8426 36.4877C27.8366 36.1108 28.6485 35.3836 29.1501 34.4399ZM23.1562 15.8236L18.5297 15.6937C17.4769 15.6645 16.4565 16.0238 15.6356 16.7063L14.3622 17.9295L16.9345 20.9144C18.7598 19.009 20.9572 17.2422 23.1562 15.8236Z"
        fill="white" />
</svg>
