<svg width="30" height="30" viewBox="0 0 30 30" fill="none" xmlns="http://www.w3.org/2000/svg">
<rect width="30" height="30" rx="5" fill="url(#paint0_linear_747_801)"/>
<path d="M21.3075 12.2331C19.8981 9.39126 16.7438 7.954 13.7238 8.47664L14.5291 7.00671C14.7304 6.68006 14.5962 6.25541 14.2607 6.09209C13.9251 5.89609 13.4889 6.02676 13.3211 6.35341L11.6768 9.32593C11.6768 9.32593 11.3077 9.9139 11.8782 10.1752L14.9318 11.7758C15.0324 11.8411 15.1667 11.8738 15.2673 11.8738C15.5022 11.8738 15.7707 11.7432 15.8714 11.5145C16.0727 11.1878 15.9385 10.7632 15.6029 10.5999L14.0258 9.75058C16.4083 9.3586 18.8914 10.5345 19.9988 12.7558C21.341 15.467 20.1666 18.7335 17.3814 20.0074C16.0391 20.6281 14.5291 20.7261 13.1197 20.2361C11.7104 19.7461 10.5695 18.7662 9.93189 17.4595C9.29432 16.1529 9.19365 14.683 9.69699 13.3111C9.83122 12.9518 9.62988 12.5598 9.26076 12.4291C8.9252 12.3638 8.52252 12.5598 8.38829 12.9191C7.78428 14.6503 7.88495 16.4796 8.6903 18.1129C9.49565 19.7461 10.905 20.9874 12.6835 21.608C13.4553 21.8693 14.2271 22 14.9989 22C16.0391 22 17.0794 21.7713 18.019 21.314C21.5088 19.6808 22.9853 15.5976 21.3075 12.2331Z" fill="url(#paint1_linear_747_801)"/>
<defs>
<linearGradient id="paint0_linear_747_801" x1="0" y1="0" x2="15" y2="30" gradientUnits="userSpaceOnUse">
<stop stop-color="#E6E6E3"/>
<stop offset="1" stop-color="#C6C6C2"/>
</linearGradient>
<linearGradient id="paint1_linear_747_801" x1="15" y1="6" x2="15" y2="22" gradientUnits="userSpaceOnUse">
<stop stop-color="#3E3E3E"/>
<stop offset="1" stop-color="#101010"/>
</linearGradient>
</defs>
</svg>
