<svg width="62" height="30" viewBox="0 0 62 30" fill="none" xmlns="http://www.w3.org/2000/svg">
<path d="M0 15C0 6.71573 6.71573 0 15 0H47C55.2843 0 62 6.71573 62 15C62 23.2843 55.2843 30 47 30H15C6.71573 30 0 23.2843 0 15Z" fill="#4BD865"/>
<path d="M14.089 20.14C11.345 20.14 9.00695 18.082 9.00695 15.03C9.00695 11.978 11.345 9.92 14.089 9.92C16.819 9.92 19.171 11.978 19.171 15.03C19.171 18.082 16.819 20.14 14.089 20.14ZM10.631 15.03C10.631 17.214 12.241 18.628 14.089 18.628C15.937 18.628 17.547 17.214 17.547 15.03C17.547 12.846 15.937 11.432 14.089 11.432C12.241 11.432 10.631 12.846 10.631 15.03ZM20.5766 20V10.06H22.1586L27.1986 17.382H27.2686V10.06H28.8506V20H27.2546L22.2286 12.678H22.1586V20H20.5766Z" fill="white"/>
<circle cx="47" cy="15" r="14" fill="white"/>
</svg>
