<svg width="32" height="32" viewBox="0 0 32 32" fill="none" xmlns="http://www.w3.org/2000/svg">
<rect width="32" height="32" rx="5" fill="#1F35F0"/>
<g clip-path="url(#clip0_747_874)">
<path d="M18.408 26.7117C12.2689 29.5175 2.73969 10.995 8.74052 7.86583L10.4964 7L13.4064 12.6808L11.6714 13.5358C9.84719 14.5142 13.6464 21.9358 15.5122 21.0308C15.588 20.9967 17.2264 20.1917 17.2322 20.1883L20.1664 25.8508C20.1597 25.8542 18.5089 26.6658 18.408 26.7117ZM17.1264 15.5375L19.5572 16.2625C19.743 15.64 19.6905 14.9467 19.3572 14.3317C19.0247 13.7158 18.4722 13.2925 17.8505 13.1075L17.1264 15.5375ZM18.6297 10.4892C19.9222 10.8742 21.068 11.7525 21.7597 13.0317C22.4522 14.3117 22.5597 15.7508 22.1747 17.0425L20.6789 16.5967C20.9497 15.6875 20.873 14.675 20.3855 13.7742C19.8997 12.8733 19.093 12.2558 18.183 11.9858L18.6297 10.4892ZM19.4214 7.83333C21.3922 8.42083 23.1405 9.76 24.1955 11.7133C25.253 13.6658 25.4172 15.8617 24.8297 17.8333L23.2964 17.3767C23.7664 15.7975 23.6347 14.0383 22.7897 12.475C21.943 10.9108 20.543 9.8375 18.9639 9.3675L19.4214 7.83333Z" fill="white"/>
</g>
<defs>
<clipPath id="clip0_747_874">
<rect width="20" height="20" fill="white" transform="translate(6 7)"/>
</clipPath>
</defs>
</svg>
