<svg width="92" height="28" viewBox="0 0 92 28" fill="none" xmlns="http://www.w3.org/2000/svg">
    <g clip-path="url(#clip0_747_737)">
        <mask id="mask0_747_737" style="mask-type:luminance" maskUnits="userSpaceOnUse" x="0" y="0"
            width="92" height="28">
            <path d="M92 0H0V28H92V0Z" fill="white" />
        </mask>
        <g mask="url(#mask0_747_737)">
            <path fill-rule="evenodd" clip-rule="evenodd"
                d="M18.9186 26.0549C17.4871 26.805 15.9638 27.6031 13.8914 27.6031C6.2194 27.6031 0 21.424 0 13.8016C0 6.17917 6.2194 0 13.8914 0C21.5634 0 27.7828 6.17917 27.7828 13.8016V26.8915C23.5598 23.6233 21.3743 24.7683 18.9186 26.0549ZM19.9467 13.8016C19.9467 17.1241 17.2356 19.8176 13.8914 19.8176C10.5472 19.8176 7.83619 17.1241 7.83619 13.8016C7.83619 10.479 10.5472 7.7855 13.8914 7.7855C17.2356 7.7855 19.9467 10.479 19.9467 13.8016Z"
                fill="white" />
            <path fill-rule="evenodd" clip-rule="evenodd"
                d="M43.3003 18.7103H42.4775C41.7722 18.7103 41.0604 18.7428 40.342 18.8078C39.6237 18.8726 38.9838 18.9959 38.4223 19.1776C37.8606 19.3592 37.397 19.6251 37.0313 19.9755C36.6656 20.3259 36.4828 20.7865 36.4828 21.3574C36.4828 21.7208 36.5676 22.0322 36.7374 22.2918C36.9073 22.5512 37.1227 22.7589 37.3839 22.9145C37.6451 23.0703 37.9455 23.1806 38.2851 23.2454C38.6247 23.3103 38.9511 23.3428 39.2646 23.3428C40.5706 23.3428 41.5697 22.986 42.2619 22.2722C42.9542 21.5586 43.3003 20.5919 43.3003 19.3722V18.7103ZM31.5067 10.4188C32.6561 9.32886 33.9947 8.51139 35.5228 7.9664C37.0509 7.42141 38.6116 7.14893 40.2049 7.14893C41.8506 7.14893 43.2415 7.35004 44.3777 7.7523C45.514 8.15455 46.4347 8.77739 47.1399 9.62082C47.8452 10.4642 48.3611 11.5283 48.6876 12.8129C49.0141 14.0975 49.1774 15.6221 49.1774 17.3869V27.1577H43.3003V25.0945H43.1827C42.6864 25.899 41.9355 26.5219 40.9298 26.9631C39.9241 27.4042 38.8336 27.6248 37.6582 27.6248C36.8746 27.6248 36.0648 27.521 35.229 27.3134C34.3931 27.1058 33.6291 26.7684 32.9369 26.3012C32.2447 25.8341 31.6766 25.2113 31.2325 24.4327C30.7884 23.6541 30.5664 22.6939 30.5664 21.5521C30.5664 20.1507 30.9517 19.0218 31.7223 18.1654C32.4928 17.309 33.4854 16.6472 34.7 16.1801C35.9146 15.713 37.2664 15.4015 38.7552 15.2459C40.2442 15.0901 41.6938 15.0123 43.1044 15.0123V14.7009C43.1044 13.7406 42.7648 13.0335 42.0856 12.5793C41.4065 12.1252 40.5706 11.8981 39.578 11.8981C38.6638 11.8981 37.7822 12.0927 36.9333 12.482C36.0845 12.8713 35.3596 13.3384 34.7588 13.8834L31.5067 10.4188Z"
                fill="white" />
            <path
                d="M63.5588 12.2485C64.2641 12.5858 64.8778 13.001 65.4002 13.4941L68.9266 9.87385C67.96 8.96554 66.7781 8.28431 65.3807 7.83015C63.9832 7.376 62.5532 7.14893 61.0904 7.14893C60.1501 7.14893 59.2032 7.27219 58.2499 7.51873C57.2964 7.76527 56.4278 8.14805 55.6442 8.6671C54.8606 9.18613 54.2206 9.85438 53.7243 10.6718C53.228 11.4893 52.9799 12.482 52.9799 13.6498C52.9799 14.5581 53.1496 15.3367 53.4893 15.9855C53.8288 16.6342 54.2664 17.1792 54.8018 17.6205C55.3373 18.0616 55.9446 18.4119 56.6237 18.6715C57.3029 18.931 57.9821 19.1386 58.6612 19.2943C59.9934 19.6057 60.9729 19.9042 61.5998 20.1897C62.2267 20.4751 62.5401 20.9163 62.5401 21.5132C62.5401 22.136 62.2854 22.5707 61.7761 22.8172C61.2667 23.0637 60.7509 23.187 60.2285 23.187C59.2881 23.187 58.4001 22.9795 57.5642 22.5643C56.7283 22.1489 56.0229 21.6299 55.4483 21.0072L51.8438 24.7831C52.8623 25.7692 54.1357 26.5154 55.6637 27.0214C57.1918 27.5275 58.7526 27.7805 60.346 27.7805C61.3385 27.7805 62.3311 27.6637 63.3237 27.4302C64.3163 27.1966 65.2109 26.8203 66.0076 26.3012C66.8042 25.7822 67.4507 25.101 67.947 24.2575C68.4433 23.4141 68.6914 22.3826 68.6914 21.1628C68.6914 20.2286 68.5086 19.4241 68.1429 18.7493C67.7772 18.0746 67.294 17.5036 66.6932 17.0365C66.0924 16.5694 65.4199 16.1931 64.6754 15.9076C63.9309 15.6221 63.1931 15.4015 62.4618 15.2459C61.2079 14.9604 60.3003 14.7009 59.7387 14.4673C59.1771 14.2337 58.8964 13.8444 58.8964 13.2994C58.8964 12.7285 59.151 12.3263 59.6604 12.0927C60.1697 11.8591 60.7247 11.7423 61.3255 11.7423C62.1092 11.7423 62.8535 11.911 63.5588 12.2485Z"
                fill="white" />
            <path fill-rule="evenodd" clip-rule="evenodd"
                d="M86.0407 15.2459C86.0407 14.2337 85.7206 13.3644 85.0807 12.6377C84.4408 11.911 83.4808 11.5477 82.2009 11.5477C81.574 11.5477 80.9994 11.645 80.4769 11.8397C79.9545 12.0343 79.4974 12.3004 79.1056 12.6377C78.7138 12.975 78.4004 13.3708 78.1653 13.825C77.9301 14.2792 77.7996 14.7527 77.7735 15.2459H86.0407ZM91.957 17.6982V18.4768C91.957 18.7363 91.9439 18.9828 91.9177 19.2165H77.7735C77.8258 19.7614 77.989 20.2545 78.2632 20.6957C78.5375 21.1368 78.8901 21.5197 79.3212 21.8441C79.7521 22.1685 80.2354 22.4214 80.7708 22.6031C81.3063 22.7848 81.8613 22.8756 82.436 22.8756C83.4547 22.8756 84.3167 22.6875 85.0219 22.3112C85.7272 21.9349 86.3018 21.4483 86.7459 20.8514L91.2126 23.6542C90.2983 24.9777 89.0902 25.9963 87.5883 26.71C86.0864 27.4237 84.3428 27.7805 82.3577 27.7805C80.8949 27.7805 79.5105 27.5534 78.2044 27.0992C76.8984 26.6452 75.7557 25.9833 74.7761 25.1139C73.7966 24.2446 73.026 23.1741 72.4644 21.9024C71.9029 20.6308 71.6221 19.1776 71.6221 17.5426C71.6221 15.9595 71.8963 14.5257 72.4449 13.2411C72.9934 11.9564 73.7378 10.8665 74.6782 9.97116C75.6185 9.07583 76.7287 8.38162 78.0085 7.88854C79.2885 7.39546 80.6728 7.14893 82.1617 7.14893C83.5984 7.14893 84.9175 7.38897 86.119 7.86908C87.3205 8.34918 88.3524 9.04339 89.2143 9.9517C90.0762 10.86 90.7489 11.9629 91.2321 13.2606C91.7154 14.5581 91.957 16.0373 91.957 17.6982Z"
                fill="white" />
        </g>
    </g>
    <defs>
        <clipPath id="clip0_747_737">
            <rect width="92" height="28" fill="white" />
        </clipPath>
    </defs>
</svg>
