<svg width="70" height="70" viewBox="0 0 70 70" fill="none" xmlns="http://www.w3.org/2000/svg">
<g id="logo" clip-path="url(#clip0_747_965)">
<path id="Vector" d="M35 70C54.33 70 70 54.33 70 35C70 15.67 54.33 0 35 0C15.67 0 0 15.67 0 35C0 54.33 15.67 70 35 70Z" fill="white"/>
<path id="Vector_2" d="M43.9195 42.8673C41.7931 44.5408 38.8161 45.7959 35.8391 45.7959C29.0345 45.7959 24.3563 40.7755 24.3563 34.0816C24.3563 27.3877 29.0345 22.7857 35.8391 22.7857C38.8161 22.7857 41.7931 23.6224 43.9195 25.7143L45.1954 26.9694L52 20.6939L50.2989 19.4388C46.4713 16.0918 41.3678 14 35.8391 14C23.931 14 15 22.7857 15 34.5C15 46.2143 23.931 55 35.8391 55C41.3678 55 46.4713 52.9082 50.2989 49.5612L52 48.3061L45.1954 41.6122L43.9195 42.8673Z" fill="#17313B"/>
<path id="Vector_3" d="M35.5 41C39.0898 41 42 38.0898 42 34.5C42 30.9102 39.0898 28 35.5 28C31.9102 28 29 30.9102 29 34.5C29 38.0898 31.9102 41 35.5 41Z" fill="#EF4335"/>
</g>
<defs>
<clipPath id="clip0_747_965">
<rect width="70" height="70" fill="white"/>
</clipPath>
</defs>
</svg>
