<svg width="32" height="32" viewBox="0 0 32 32" fill="none" xmlns="http://www.w3.org/2000/svg">
<rect width="32" height="32" rx="5" fill="#1F35F0"/>
<path d="M18.5003 23.0833C18.5003 23.3133 18.3137 23.5 18.0837 23.5H13.917C13.687 23.5 13.5003 23.3133 13.5003 23.0833C13.5003 22.8533 13.687 22.6667 13.917 22.6667H18.0837C18.3137 22.6667 18.5003 22.8533 18.5003 23.0833ZM14.9178 25.7158C15.0762 25.8958 15.3053 26 15.5445 26H16.4562C16.6953 26 16.9245 25.8958 17.0828 25.7158L18.292 24.3333H13.7087L14.9178 25.7158ZM21.8337 11.6117C21.8337 15.0817 18.7087 19.095 18.7087 21.8333H13.292C13.292 19.095 10.167 15.0808 10.167 11.6117C10.167 7.9925 13.082 6 15.997 6C18.9153 6 21.8337 7.995 21.8337 11.6117ZM15.4012 9.09917L15.2187 8.11833C13.5378 8.42917 12.5037 9.66083 12.2878 11.3233L13.2778 11.4517C13.3745 10.7017 13.7795 9.39917 15.4012 9.09917Z" fill="white"/>
</svg>
