<svg xmlns="http://www.w3.org/2000/svg" width="30" height="65" viewBox="0 0 30 65" fill="none" preserveAspectRatio="none">
    <path
        d="M12.75 60.6569C15.525 61.8798 18.7841 59.8759 21.183 62.9392C20.6142 63.1729 20.0244 63.3528 19.4215 63.4764C14.0226 63.9092 8.55051 64.3497 3.10563 64.691C2.21908 64.7443 0.912448 64.5615 0.465523 63.977C-0.370887 62.9076 0.579538 61.9779 1.45159 61.196C4.17344 58.7724 6.86913 56.3135 9.5938 53.8496C10.6965 55.7485 10.6965 55.7485 6.75995 60.5052C17.91 58.3404 23.9941 47.494 19.6743 37.2912C18.6799 37.7758 17.71 38.2861 16.7071 38.7225C13.8765 40.0905 10.6239 40.3216 7.61776 39.3684C5.31579 38.5962 3.68644 37.1809 3.31949 34.7424C2.95253 32.3039 4.34308 30.5423 6.3294 29.2501C10.5963 26.4161 15.396 26.9569 19.0295 30.6679C19.4775 31.1179 20 31.5104 20.6532 32.0792C24.78 27.0759 27.129 21.5334 26.84 15.1771C26.3718 5.30538 18.5051 2.06011 11.6161 2.25728C10.7573 2.27094 9.91972 2.46002 8.553 2.64079C9.96973 0.99909 11.4956 0.761064 12.9748 0.54102C18.8184 -0.33151 25.3292 3.04293 28.0461 8.32441C29.7606 11.611 30.3598 15.3607 29.753 19.0072C29.0026 24.4308 26.7047 29.5177 23.1334 33.6613C22.7698 34.082 22.433 34.5131 21.9717 35.0849C23.6649 39.9261 24.6904 44.8474 22.863 49.9619C21.0748 54.9601 16.7719 57.5915 12.75 60.6569ZM18.2677 34.3504C15.5869 29.7789 11.1604 28.562 7.57426 31.3335C6.66026 32.0753 6.06523 33.1383 5.91026 34.306C5.81366 35.7849 7.13925 36.4965 8.52891 36.839C12.1466 37.7327 15.2361 36.6831 18.2677 34.3504Z"
        fill="white" />
</svg>
