<svg width="70" height="70" viewBox="0 0 70 70" fill="none" xmlns="http://www.w3.org/2000/svg">
<g id="logo" clip-path="url(#clip0_747_956)">
<path id="Subtract" fill-rule="evenodd" clip-rule="evenodd" d="M35 70C54.33 70 70 54.33 70 35C70 15.67 54.33 0 35 0C15.67 0 0 15.67 0 35C0 54.33 15.67 70 35 70ZM50.148 26.81H44.17C44.331 25.872 44.912 25.347 46.088 24.752L47.187 24.192C49.154 23.184 50.204 22.043 50.204 20.181C50.204 19.012 49.749 18.088 48.846 17.423C47.943 16.758 46.879 16.429 45.633 16.429C44.6691 16.4177 43.7228 16.6877 42.91 17.206C42.091 17.71 41.482 18.361 41.104 19.173L42.833 20.909C43.505 19.551 44.478 18.886 45.759 18.886C46.844 18.886 47.509 19.446 47.509 20.223C47.509 20.874 47.187 21.413 45.941 22.043L45.234 22.386C43.701 23.163 42.637 24.052 42.021 25.06C41.405 26.068 41.104 27.335 41.104 28.868V29.288H50.148V26.81ZM49.35 32.144H39.452L34.503 40.712H44.401L49.35 49.287L54.299 40.712L49.35 32.144ZM23.9264 35C23.9264 41.3 29.0574 46.431 35.3574 46.431C38.0923 46.4306 40.7358 45.4467 42.8054 43.659L47.1314 51.163C43.7154 53.663 39.5904 55.0069 35.3574 54.999C24.3114 54.999 15.3584 46.046 15.3584 35C15.3584 23.954 24.3114 15.001 35.3574 15.001C36.6712 15.0008 37.9818 15.1297 39.2704 15.386L35.3574 23.569C29.0574 23.569 23.9264 28.7 23.9264 35Z" fill="#EB583C"/>
</g>
<defs>
<clipPath id="clip0_747_956">
<rect width="70" height="70" fill="white"/>
</clipPath>
</defs>
</svg>
