<svg width="70" height="70" viewBox="0 0 70 70" fill="none" xmlns="http://www.w3.org/2000/svg">
<g id="logo" clip-path="url(#clip0_747_973)">
<path id="Vector" d="M35 70C54.33 70 70 54.33 70 35C70 15.67 54.33 0 35 0C15.67 0 0 15.67 0 35C0 54.33 15.67 70 35 70Z" fill="white"/>
<g id="Group">
<path id="Vector_2" d="M34.918 31.1819V39.3147H46.1759C45.6815 41.9301 44.198 44.1448 41.9731 45.6339L48.7621 50.9221C52.7176 47.2568 54.9996 41.873 54.9996 35.4776C54.9996 33.9885 54.8665 32.5565 54.6192 31.1821L34.918 31.1819Z" fill="#4285F4"/>
<path id="Vector_3" d="M23.1942 38.9971L21.663 40.1737L16.2432 44.4119C19.6852 51.2655 26.7399 56.0001 34.9171 56.0001C40.5649 56.0001 45.3 54.1292 48.7612 50.922L41.9722 45.6337C40.1086 46.8937 37.7314 47.6574 34.9171 47.6574C29.4783 47.6574 24.8573 43.9729 23.2028 39.0092L23.1942 38.9971Z" fill="#34A853"/>
<path id="Vector_4" d="M16.2438 25.5881C14.8176 28.4135 14 31.6017 14 34.9999C14 38.398 14.8176 41.5863 16.2438 44.4116C16.2438 44.4306 23.2041 38.9898 23.2041 38.9898C22.7857 37.7298 22.5384 36.3935 22.5384 34.9997C22.5384 33.6058 22.7857 32.2695 23.2041 31.0095L16.2438 25.5881Z" fill="#FBBC05"/>
<path id="Vector_5" d="M34.9175 22.3619C37.9983 22.3619 40.7366 23.4309 42.9236 25.4928L48.9138 19.4792C45.2816 16.0811 40.5656 14 34.9175 14C26.7403 14 19.6852 18.7155 16.2432 25.5883L23.2032 31.0101C24.8576 26.0464 29.4787 22.3619 34.9175 22.3619Z" fill="#EA4335"/>
</g>
</g>
<defs>
<clipPath id="clip0_747_973">
<rect width="70" height="70" fill="white"/>
</clipPath>
</defs>
</svg>
