<svg width="85" height="86" viewBox="0 0 85 86" fill="none" xmlns="http://www.w3.org/2000/svg">
<path d="M49.5 21H0L64.5 85.5V36C64.5 27.7157 57.7843 21 49.5 21Z" fill="#7314F2"/>
<path d="M33.8376 42.117L36.8075 39.1472L33.6396 35.9793L30.6698 38.9492L29.5511 37.8305L36.5798 30.8019L37.6984 31.9205L34.6791 34.9399L37.8469 38.1077L40.8663 35.0884L41.9849 36.207L34.9563 43.2357L33.8376 42.117ZM39.4432 47.9206C37.5029 45.9803 37.3049 42.8719 39.463 40.7138C41.6211 38.5557 44.7295 38.7537 46.6698 40.694C48.6003 42.6244 48.8081 45.7427 46.65 47.9008C44.492 50.0589 41.3736 49.851 39.4432 47.9206ZM40.6114 41.8621C39.067 43.4064 39.2056 45.5447 40.5124 46.8514C41.8191 48.1582 43.9574 48.2968 45.5017 46.7525C47.046 45.2081 46.9074 43.0698 45.6007 41.7631C44.294 40.4564 42.1557 40.3178 40.6114 41.8621ZM45.1612 53.4406L51.1504 47.4514L49.3784 45.6794L50.4178 44.6399L55.0805 49.3026L54.041 50.342L52.269 48.57L46.2798 54.5592L45.1612 53.4406Z" fill="white"/>
</svg>
