<svg xmlns="http://www.w3.org/2000/svg" width="20" height="20" viewBox="0 0 20 20" fill="none">
<path d="M10.9533 6.80917C10.9242 6.75417 11.2383 6.72417 11.2942 6.72417C11.3558 6.73167 11.1308 7.10083 10.9533 6.80917ZM9.16 4.24917L9.25 4.22333C9.30333 4.26917 9.19 4.3025 9.2075 4.33667C9.27917 4.46583 9.225 4.54333 9.21417 4.61333C9.2025 4.68417 9.1275 4.65333 9.09 4.69083C9.04583 4.74583 9.305 4.75333 9.30833 4.76167C9.3175 4.78917 8.99583 4.83583 9.055 4.90417C9.135 5.0175 9.74167 4.74167 9.645 4.7575C9.8325 4.66333 9.66917 4.65333 9.56417 4.59917C9.52833 4.42 9.49833 4.14333 9.38667 4.0325L9.46 3.9475C9.28833 3.69833 9.16 4.24917 9.16 4.24917ZM20 10C20 15.5225 15.5225 20 10 20C4.47667 20 0 15.5225 0 10C0 4.4775 4.47667 0 10 0C15.5225 0 20 4.4775 20 10ZM13.075 5.52417C13.07 5.4025 12.9167 5.2875 12.7567 5.49833C12.6442 5.64333 12.6642 5.86417 12.6033 5.9625C12.5167 6.10833 13.0758 6.245 13.0758 6.1075C13.0967 5.87667 13.6858 6.055 13.8008 6.08667C14.0075 6.14417 14.3367 5.89833 13.9767 5.76917C13.6808 5.66083 13.525 5.545 13.4983 5.33333C13.4983 5.33333 13.655 5.18667 13.5867 5.195C13.405 5.2175 13.075 5.85 13.075 5.52417ZM18.3217 10C18.3217 9.1375 18.1742 8.26667 18.0242 7.80667C17.9758 7.66167 17.8667 7.54667 17.725 7.49167C17.5117 7.40833 16.6108 7.98917 16.475 7.70333C16.3858 7.5125 16.205 7.825 15.9983 7.71C15.8983 7.655 15.62 7.28083 15.4942 7.32667C15.2367 7.41917 15.8892 8.13 16.0675 8.22333C16.235 8.09667 16.7775 7.83583 16.8942 8.19167C17.1175 8.86167 16.28 9.59583 15.8517 9.9825C15.2117 10.5608 15.3317 9.60833 14.8958 9.2725C14.6667 9.09667 14.6692 8.7225 14.4375 8.59333C14.3342 8.535 13.86 7.98917 13.8642 7.91583L13.85 8.05417C13.7717 8.11333 13.605 7.83083 13.5875 7.78667C13.5875 8.0325 13.9875 8.42417 14.12 8.62083C14.3458 8.95833 14.4667 9.45 14.7433 9.72583C14.8917 9.87417 15.4583 10.4875 15.6058 10.4742C15.7667 10.46 16.275 10.0925 16.365 10.1133C16.9017 10.24 15.1017 12.7842 14.9308 13.0992C14.79 13.3633 15.0458 14.0167 15.025 14.3292C15.0008 14.69 14.7167 14.8067 14.4475 15.0033C14.1592 15.2142 14.2267 15.6242 13.9842 15.7742C13.5533 16.0392 13.2433 16.9017 12.6317 16.8975C12.4517 16.8967 11.6817 17.1975 11.5808 16.9033C11.5025 16.69 11.3975 16.5283 11.2867 16.3175C11.1783 16.1108 11.2742 15.8967 11.1425 15.7142C11.0517 15.5875 10.7467 15.3 10.7192 15.15C10.7175 15.0208 10.8167 14.6283 10.9525 14.56C11.1433 14.4625 10.9892 14.1783 10.9658 14.0133C10.9258 13.7183 10.7433 13.475 10.5242 13.3042C10.2 13.055 10.3675 12.8567 10.4433 12.5008C10.4433 12.3308 10.34 12.1075 10.1117 12.1742C9.64167 12.3108 9.78417 11.8075 9.44167 11.83C9.195 11.8475 8.99333 12.0042 8.76417 12.0733C8.47583 12.16 8.18083 12.005 7.89583 11.9692C6.72333 11.8208 6.34083 10.4808 6.64667 9.51417C6.6775 9.35583 6.55167 9.0625 6.60667 8.94C6.73833 8.64667 7.00667 8.3175 7.24167 8.095C7.37333 7.97 7.5425 8.00167 7.6975 7.90417C7.93667 7.75333 7.94 7.44333 8.17417 7.25333C8.5075 6.9825 8.9625 6.98833 9.3975 6.93C9.62917 6.89917 10.5108 6.70833 10.65 6.88C10.65 6.91167 10.8092 7.38333 10.6342 7.35667C10.995 7.37583 11.5092 7.98083 11.8517 7.83917C12.0275 7.76583 11.9633 7.22583 12.3242 7.48667C12.5425 7.64333 13.5208 7.71333 13.7242 7.54417C13.8492 7.44083 13.9192 6.76917 13.7675 6.69333C13.8642 6.78917 13.2583 6.79667 13.2017 6.775C13.1017 6.73833 13.0083 6.87 12.8475 6.79583C12.9442 6.84167 12.3092 6.50083 12.6658 6.24C12.5167 6.34917 12.3775 6.20917 12.2167 6.32917C12.1058 6.41917 12.2683 6.47917 12.11 6.5575C11.8583 6.685 11.6683 6.12 11.5733 6.05583C11.4767 5.9925 10.7283 5.4675 10.9317 5.81L11.5892 6.46417C11.5567 6.485 11.4167 6.22583 11.4167 6.415C11.4608 6.3025 11.4333 6.8975 11.33 6.70417C11.2842 6.63 11.405 6.58833 11.335 6.48083C11.335 6.41 11.145 6.34083 11.1083 6.2925C11.0042 6.16333 10.7275 5.87833 10.5775 5.81C10.5358 5.79083 9.94083 5.8825 9.89083 5.90167C9.8325 5.98333 9.7825 6.06917 9.74167 6.16083C9.61833 6.20667 9.5025 6.26583 9.3925 6.33917L9.26167 6.63333C9.205 6.68417 8.62417 6.87583 8.62083 6.88333C8.645 6.82083 8.215 6.74083 8.24333 6.61583C8.275 6.47833 8.42083 6.04917 8.38333 5.8925C8.34333 5.72833 9.27833 6.12917 9.33833 5.69667C9.3625 5.50917 9.37667 5.29083 9.0775 5.25917C9.13417 5.26583 9.65667 5.05417 9.74333 4.95917C9.865 4.81917 10.1442 4.59083 10.3467 4.59083C10.5833 4.59083 10.5325 4.24667 10.6417 4.07833C10.7508 4.1225 10.5833 4.39167 10.7142 4.50083C10.7058 4.415 11.085 4.54833 11.1217 4.52833C11.2083 4.48333 11.6917 4.51 11.6167 4.28333C11.5333 4.0525 11.6592 4.12083 11.7675 4.0725C11.7492 4.08 12.0508 3.55667 12.1025 3.72833C12.0667 3.55167 11.7517 3.79 11.6417 3.78083C11.3875 3.76083 11.495 3.3475 11.5908 3.22667C11.665 3.13083 11.3883 3.01333 11.385 3.19667C11.38 3.47083 11.125 3.71917 11.1842 4.08333C11.2742 4.6325 10.5717 3.95083 10.51 3.98833C10.2767 4.13 10.0858 3.81 10.2067 3.61833C10.33 3.4225 10.6275 3.43167 10.75 3.22167C10.8367 3.07333 10.9375 2.90083 11.0708 2.78833C11.5167 2.41417 11.64 2.71333 12.0842 2.75417C12.5183 2.79417 12.2308 2.8575 12.1708 3.02417C12.1133 3.1825 12.4092 3.23917 12.5117 3.10667C12.57 3.03 12.7025 2.8375 12.76 2.695C12.8342 2.51 13.5108 2.53083 13.0383 2.24833C12.7267 2.0625 11.3683 1.68833 10.4583 1.68833C10.2617 1.68833 10.1242 1.9075 9.97417 2.03167C9.6775 2.2775 8.9175 2.76 8.495 2.61333C8.0625 2.46417 7.13667 3.16333 6.98833 3.16833C6.93417 3.17167 6.99167 2.64 7.28667 2.60083C7.15917 2.62 8.32583 2.01167 8.29417 1.885C8.25583 1.735 5.96167 2.57 6.06417 2.7375C6.11333 2.81417 6.31333 2.81417 6.05083 2.9825C5.90083 3.07333 5.74083 3.65 5.6 3.65C5.17917 3.83417 5.1525 3.2875 4.68417 3.99083L3.93917 4.29083C2.8325 5.46667 2.06667 6.95583 1.78917 8.61C1.77833 8.67583 2.0675 8.79833 2.105 8.84333C2.19833 8.955 2.19833 9.43667 2.24417 9.59417C2.35917 9.9925 2.64333 10.2142 2.86083 10.5767C2.98917 10.7925 3.2025 11.3383 3.135 11.565C3.225 11.4167 4.02667 12.2442 4.17333 12.4167C4.51833 12.8225 4.78417 13.3142 4.22417 13.7158C4.04333 13.8458 4.49917 14.6567 4.26417 14.8558L3.96333 14.9333C3.66667 15.1158 3.80083 15.5633 3.98083 15.7517C5.49583 17.3358 7.63083 18.3242 9.9975 18.3242C14.595 18.3242 18.3217 14.5975 18.3217 10ZM8.7325 4.7025C8.83667 4.65667 8.97667 4.65833 8.99167 4.51917C9.00417 4.39583 9.02833 4.48083 9.05833 4.43583C9.0875 4.39167 9.0025 4.32083 8.96667 4.31417C8.91333 4.3025 8.87667 4.37167 8.8425 4.40083L8.7825 4.41667L8.72583 4.48917L8.7325 4.52917L8.66 4.6175C8.58917 4.6875 8.66167 4.73333 8.7325 4.7025Z" fill="#0E0B3A"/>
</svg>
