<svg width="174" height="56" viewBox="0 0 174 56" fill="none" xmlns="http://www.w3.org/2000/svg">
<g id="Logo">
<g id="Text">
<g id="Up &#38; Fly">
<path id="Vector" d="M85.6928 51.1479C89.3923 51.1479 92.1669 48.6816 92.1669 44.3655V32.8047H90.0088V44.3655C90.0088 47.6026 88.005 48.9899 85.6928 48.9899C83.3806 48.9899 81.3768 47.6026 81.3768 44.3655V32.8047H79.2188V44.3655C79.2188 48.6816 81.9933 51.1479 85.6928 51.1479Z" fill="#535479"/>
<path id="Vector_2" d="M95.7129 55.7722H97.8709V48.3733C98.4875 49.7606 100.337 51.1479 102.804 51.1479C106.041 51.1479 109.278 48.8357 109.278 44.2114C109.278 39.7412 106.041 37.2749 102.804 37.2749C100.337 37.2749 98.4875 38.6622 97.8709 40.0495V37.5832H95.7129V55.7722ZM97.7167 44.2114C97.7167 40.9744 100.029 39.2788 102.495 39.2788C104.807 39.2788 107.274 40.9744 107.274 44.2114C107.274 47.4484 104.962 49.144 102.495 49.144C100.029 49.144 97.7167 47.4484 97.7167 44.2114Z" fill="#535479"/>
<path id="Vector_3" d="M121.3 38.1997C121.3 38.8162 121.608 39.4328 122.225 40.2035C122.841 40.9742 123.766 41.745 124.999 42.6698L128.082 45.1362C128.236 44.2113 128.39 43.4406 128.39 42.3616V41.5908H130.548V42.6698C130.548 44.2113 130.394 45.4444 130.086 46.6776L133.785 49.6063L132.244 51.1478L129.315 48.6815C128.236 50.3771 126.386 51.1478 123.766 51.1478C122.687 51.1478 121.762 50.9936 120.991 50.5312C120.221 50.0688 119.45 49.6063 118.988 48.8356C118.525 48.0649 118.217 47.2942 118.217 46.2152C118.217 45.2903 118.525 44.3654 118.988 43.7488C119.604 43.1323 120.375 42.5157 121.3 42.0533C120.683 41.4367 120.067 40.666 119.758 40.0494C119.45 39.4328 119.142 38.6621 119.142 37.8914C119.142 37.1206 119.296 36.5041 119.758 35.8875C120.221 35.2709 120.837 34.9626 121.454 34.6543C122.07 34.346 122.841 34.1919 123.458 34.1919C124.383 34.1919 124.999 34.1919 125.616 34.346C126.232 34.5002 126.849 34.6543 127.465 34.9626L126.695 36.8123C125.462 36.3499 124.383 36.1958 123.458 36.1958C122.687 36.1958 122.225 36.3499 121.762 36.8123C121.454 37.2748 121.3 37.7372 121.3 38.1997ZM123.766 49.2981C125.307 49.2981 126.541 48.6815 127.311 47.2942L122.687 43.5947C121.916 43.7489 121.454 44.2113 120.991 44.6737C120.529 45.2903 120.375 45.9069 120.375 46.5234C120.375 46.9859 120.529 47.4483 120.837 47.9107C121.146 48.3732 121.454 48.6815 122.07 48.9898C122.533 49.1439 123.149 49.2981 123.766 49.2981Z" fill="#535479"/>
<path id="Vector_4" d="M141.492 50.8396H143.65V42.6699H150.587V40.8202H143.65V34.8086H151.203V32.8047H141.492V50.8396Z" fill="#535479"/>
<path id="Vector_5" d="M154.287 50.8396H156.445V32.8047H154.287V50.8396Z" fill="#535479"/>
<path id="Vector_6" d="M162.458 55.7721H164.616L166.774 50.8394L172.323 37.583H170.165L165.695 48.219L161.379 37.583H159.066L164.616 50.6853L162.458 55.7721Z" fill="#535479"/>
</g>
<g id="Start">
<path id="Vector_7" d="M87.2336 25.7138C91.3955 25.7138 95.4033 23.2475 95.4033 18.469C95.4033 14.9237 93.0911 12.9198 88.9292 11.2242L87.2336 10.6076C84.459 9.5286 83.5342 8.29545 83.5342 6.90815C83.5342 5.05842 85.0756 3.97941 87.0795 3.97941C89.2375 3.97941 90.6248 5.05842 91.7038 7.21644L94.6326 5.67499C93.5536 3.05454 91.0873 0.434082 86.9254 0.434082C82.9176 0.434082 79.5264 2.9004 79.5264 6.90815C79.5264 10.4535 81.9927 12.3032 85.5381 13.6905L87.0795 14.3071C89.7 15.3861 91.2414 16.311 91.2414 18.469C91.2414 20.9353 89.2375 22.1684 87.0795 22.1684C84.3049 22.1684 82.6093 20.4729 81.8386 18.3148L78.6016 19.7021C79.6806 23.2475 82.9176 25.7138 87.2336 25.7138Z" fill="#0E0B3A"/>
<path id="Vector_8" d="M103.418 25.4053H107.271V4.44164H113.437V0.742188H97.0977V4.44164H103.418V25.4053Z" fill="#0E0B3A"/>
<path id="Vector_9" d="M121.451 0.742188L111.895 25.4053H116.056L117.906 20.3185H129.005L130.854 25.4053H135.016L125.305 0.742188H121.451ZM119.448 16.7732L123.609 5.82895L127.771 16.7732H119.448Z" fill="#0E0B3A"/>
<path id="Vector_10" d="M152.127 25.4053H156.289L150.431 16.3108C153.514 15.2318 155.21 12.4572 155.21 8.91184C155.21 3.97921 151.819 0.742188 146.732 0.742188H138.408V25.4053H142.262V16.9274H146.732L152.127 25.4053ZM142.262 13.5362V4.44164H146.27C149.352 4.44164 151.202 5.82894 151.202 9.06598C151.202 12.1489 149.198 13.5362 146.27 13.5362H142.262Z" fill="#0E0B3A"/>
<path id="Vector_11" d="M163.687 25.4053H167.541V4.44164H173.861V0.742188H157.521V4.44164H163.687V25.4053Z" fill="#0E0B3A"/>
</g>
</g>
<g id="Rocket">
<g id="Group">
<path id="Vector_12" fill-rule="evenodd" clip-rule="evenodd" d="M3.78483 44.6398C4.59033 40.3574 6.69493 34.2046 10.456 32.047C10.8087 31.8433 11.169 31.6768 11.5533 31.5518C12.8855 31.1284 14.3786 31.774 15.1288 33.0974C12.7882 33.6189 10.4064 37.9261 11.5752 40.1421C12.9202 42.2562 17.8413 42.3472 19.4529 40.5869C20.2075 41.8939 20.0201 43.5097 19.0036 44.4562C18.7032 44.7264 18.3788 44.9552 18.0261 45.1588C14.2814 47.3208 7.89626 46.0834 3.78483 44.6398Z" fill="#EB583C"/>
</g>
<path id="Union" fill-rule="evenodd" clip-rule="evenodd" d="M4.62919 35.5634L2.40128 31.7046C1.74847 30.5739 1.41286 29.2739 1.41604 27.9858C1.41483 26.714 1.75082 25.4274 2.42325 24.2923L14.3242 3.7009C14.9906 2.55543 15.9285 1.64051 17.028 1.00568C18.1172 0.376831 19.3889 0.0160863 20.7141 0.0116712L44.4972 0.000856238C45.8268 -0.0199211 47.0987 0.338413 48.2099 0.969348C49.327 1.61066 50.2687 2.54691 50.9274 3.68797L52.802 6.93481C51.2445 6.82437 49.6846 6.8536 48.1312 6.98978L47.4005 5.72424C47.0951 5.1952 46.6728 4.77514 46.1783 4.49357C45.6837 4.21201 45.1214 4.05257 44.5317 4.06114L20.7322 4.06757C20.1424 4.07613 19.5562 4.23474 19.0583 4.52222C18.55 4.81568 18.124 5.22763 17.8277 5.74449L5.92672 26.3359C5.63478 26.8364 5.48134 27.409 5.47793 27.9781C5.48051 28.5575 5.63313 29.1333 5.93258 29.6519L7.23219 31.9029C6.21616 32.946 5.36299 34.1992 4.62919 35.5634ZM59.268 26.3273L58.5433 25.0722C59.4483 23.789 60.2476 22.4423 60.9263 21.0546L62.8009 24.3014C63.4596 25.4425 63.7833 26.7217 63.7905 28.0039C63.7917 29.2756 63.4557 30.5623 62.7893 31.7077L50.8883 52.2991C50.2219 53.4446 49.284 54.3595 48.1845 54.9944C47.0849 55.6292 45.8236 55.9839 44.4984 55.9884L20.7153 55.9992C19.3857 56.0199 18.1138 55.6616 17.0026 55.0307C15.8855 54.3894 14.9439 53.4531 14.2851 52.3121L12.0092 48.3702C13.5576 48.4168 15.0695 48.3046 16.4645 47.9418L17.812 50.2758C18.1174 50.8048 18.5397 51.2249 19.0343 51.5065C19.5288 51.788 20.0911 51.9475 20.6809 51.9389L44.464 51.9281C45.0538 51.9195 45.6399 51.7609 46.1378 51.4734C46.6461 51.18 47.0722 50.768 47.3685 50.2512L59.265 29.6761C59.557 29.1756 59.7044 28.5926 59.7122 28.0072C59.72 27.4218 59.5674 26.846 59.268 26.3273ZM22.6908 41.7878L15.7016 29.6822C15.8662 29.4626 16.0252 29.2499 16.1797 29.0434L16.1843 29.0371L16.1853 29.0358C18.307 26.1981 19.5623 24.5191 22.4773 21.8699C33.6565 11.6951 48.643 5.40771 61.4184 11.365C60.1899 25.4074 47.2515 35.2424 32.8503 39.8364C29.0963 41.0256 27.0147 41.2732 23.5021 41.691L23.499 41.6914C23.2379 41.7224 22.969 41.7544 22.6908 41.7878ZM44.9041 20.8993C44.0717 19.4574 42.5813 18.4092 40.7931 18.2106C37.8113 17.8852 35.1392 20.0365 34.8137 23.0183C34.6868 24.2119 34.943 25.3502 35.5 26.315C36.3324 27.7568 37.8228 28.8051 39.611 29.0036C42.5928 29.3291 45.2649 27.1778 45.5903 24.196C45.7173 23.0024 45.4611 21.864 44.9041 20.8993ZM43.3721 37.8159L39.6381 44.7158C38.7878 46.2855 37.4115 47.4951 35.7265 48.1221L32.8852 48.9742L30.7655 42.7154C35.0573 41.6207 39.4649 39.8643 43.3721 37.8159ZM21.6354 13.5337L29.4779 13.7498C25.7504 16.1094 22.0255 19.0484 18.9315 22.2178L14.5711 17.2527L16.7297 15.218C18.1212 14.0827 19.8509 13.4852 21.6354 13.5337Z" fill="url(#paint0_linear_844_1149)"/>
</g>
</g>
<defs>
<linearGradient id="paint0_linear_844_1149" x1="50.1387" y1="6.72869" x2="24.0921" y2="34.9458" gradientUnits="userSpaceOnUse">
<stop stop-color="#1F35F0"/>
<stop offset="1" stop-color="#7314F2"/>
</linearGradient>
</defs>
</svg>
