<svg width="174" height="56" viewBox="0 0 174 56" fill="none" xmlns="http://www.w3.org/2000/svg">
<g opacity="0.15">
<path d="M85.6904 51.1476C89.3898 51.1476 92.1644 48.6813 92.1644 44.3653V32.8044H90.0064V44.3653C90.0064 47.6023 88.0025 48.9896 85.6904 48.9896C83.3782 48.9896 81.3743 47.6023 81.3743 44.3653V32.8044H79.2163V44.3653C79.2163 48.6813 81.9909 51.1476 85.6904 51.1476Z" fill="white"/>
<path d="M95.71 55.772H97.868V48.3731C98.4846 49.7604 100.334 51.1477 102.801 51.1477C106.038 51.1477 109.275 48.8355 109.275 44.2112C109.275 39.741 106.038 37.2747 102.801 37.2747C100.334 37.2747 98.4846 38.662 97.868 40.0493V37.5829H95.71V55.772ZM97.7138 44.2112C97.7138 40.9741 100.026 39.2785 102.492 39.2785C104.804 39.2785 107.271 40.9741 107.271 44.2112C107.271 47.4482 104.959 49.1438 102.492 49.1438C100.026 49.1438 97.7138 47.4482 97.7138 44.2112Z" fill="white"/>
<path d="M121.297 38.1997C121.297 38.8162 121.606 39.4328 122.222 40.2035C122.839 40.9742 123.764 41.745 124.997 42.6698L128.08 45.1362C128.234 44.2113 128.388 43.4406 128.388 42.3616V41.5908H130.546V42.6698C130.546 44.2113 130.392 45.4444 130.083 46.6776L133.783 49.6063L132.242 51.1478L129.313 48.6815C128.234 50.3771 126.384 51.1478 123.764 51.1478C122.685 51.1478 121.76 50.9936 120.989 50.5312C120.218 50.0688 119.448 49.6063 118.985 48.8356C118.523 48.0649 118.214 47.2942 118.214 46.2152C118.214 45.2903 118.523 44.3654 118.985 43.7488C119.602 43.1323 120.372 42.5157 121.297 42.0533C120.681 41.4367 120.064 40.666 119.756 40.0494C119.448 39.4328 119.139 38.6621 119.139 37.8914C119.139 37.1206 119.293 36.5041 119.756 35.8875C120.218 35.2709 120.835 34.9626 121.451 34.6543C122.068 34.346 122.839 34.1919 123.455 34.1919C124.38 34.1919 124.997 34.1919 125.613 34.346C126.23 34.5002 126.846 34.6543 127.463 34.9626L126.692 36.8123C125.459 36.3499 124.38 36.1958 123.455 36.1958C122.685 36.1958 122.222 36.3499 121.76 36.8123C121.451 37.2748 121.297 37.7372 121.297 38.1997ZM123.764 49.2981C125.305 49.2981 126.538 48.6815 127.309 47.2942L122.685 43.5947C121.914 43.7489 121.451 44.2113 120.989 44.6737C120.527 45.2903 120.372 45.9069 120.372 46.5234C120.372 46.9859 120.527 47.4483 120.835 47.9107C121.143 48.3732 121.451 48.6815 122.068 48.9898C122.53 49.1439 123.147 49.2981 123.764 49.2981Z" fill="white"/>
<path d="M141.49 50.8393H143.648V42.6697H150.585V40.82H143.648V34.8083H151.201V32.8044H141.49V50.8393Z" fill="white"/>
<path d="M154.284 50.8393H156.442V32.8044H154.284V50.8393Z" fill="white"/>
<path d="M162.454 55.7721H164.612L166.77 50.8394L172.319 37.583H170.161L165.691 48.219L161.375 37.583H159.063L164.612 50.6853L162.454 55.7721Z" fill="white"/>
<path d="M87.2312 25.7138C91.3931 25.7138 95.4009 23.2475 95.4009 18.469C95.4009 14.9237 93.0887 12.9198 88.9268 11.2242L87.2312 10.6076C84.4566 9.5286 83.5317 8.29545 83.5317 6.90815C83.5317 5.05842 85.0732 3.97941 87.0771 3.97941C89.2351 3.97941 90.6224 5.05842 91.7014 7.21644L94.6301 5.67499C93.5511 3.05454 91.0848 0.434082 86.9229 0.434082C82.9152 0.434082 79.524 2.9004 79.524 6.90815C79.524 10.4535 81.9903 12.3032 85.5356 13.6905L87.0771 14.3071C89.6975 15.3861 91.239 16.311 91.239 18.469C91.239 20.9353 89.2351 22.1684 87.0771 22.1684C84.3025 22.1684 82.6069 20.4729 81.8362 18.3148L78.5991 19.7021C79.6781 23.2475 82.9152 25.7138 87.2312 25.7138Z" fill="white"/>
<path d="M103.416 25.4055H107.27V4.44189H113.436V0.742432H97.0962V4.44189H103.416V25.4055Z" fill="white"/>
<path d="M121.451 0.742432L111.894 25.4055H116.055L117.905 20.3188H129.004L130.853 25.4055H135.015L125.304 0.742432H121.451ZM119.447 16.7734L123.609 5.82919L127.77 16.7734H119.447Z" fill="white"/>
<path d="M152.126 25.4055H156.288L150.43 16.311C153.513 15.232 155.209 12.4574 155.209 8.91208C155.209 3.97946 151.818 0.742432 146.731 0.742432H138.407V25.4055H142.261V16.9276H146.731L152.126 25.4055ZM142.261 13.5364V4.44189H146.269C149.351 4.44189 151.201 5.82919 151.201 9.06622C151.201 12.1491 149.197 13.5364 146.269 13.5364H142.261Z" fill="white"/>
<path d="M163.686 25.4055H167.539V4.44189H173.859V0.742432H157.52V4.44189H163.686V25.4055Z" fill="white"/>
<path fill-rule="evenodd" clip-rule="evenodd" d="M3.78386 44.6396C4.58935 40.3571 6.69395 34.2044 10.4551 32.0467C10.8078 31.8431 11.168 31.6766 11.5523 31.5516C12.8846 31.1281 14.3776 31.7737 15.1278 33.0971C12.7872 33.6186 10.4055 37.9259 11.5742 40.1418C12.9192 42.2559 17.8403 42.3469 19.4519 40.5866C20.2065 41.8937 20.0191 43.5094 19.0026 44.4559C18.7022 44.7262 18.3779 44.9549 18.0252 45.1585C14.2804 47.3206 7.89529 46.0832 3.78386 44.6396Z" fill="white"/>
<path fill-rule="evenodd" clip-rule="evenodd" d="M4.62821 35.5634L2.4003 31.7046C1.7475 30.5739 1.41188 29.2739 1.41506 27.9858C1.41386 26.714 1.74984 25.4274 2.42227 24.2923L14.3232 3.7009C14.9896 2.55543 15.9275 1.64051 17.0271 1.00568C18.1163 0.376831 19.3879 0.0160863 20.7131 0.0116712L44.4963 0.000856238C45.8259 -0.0199211 47.0977 0.338413 48.2089 0.969348C49.326 1.61066 50.2677 2.54691 50.9265 3.68797L52.801 6.93481C51.2435 6.82437 49.6837 6.8536 48.1302 6.98978L47.3996 5.72424C47.0941 5.1952 46.6718 4.77514 46.1773 4.49357C45.6828 4.21201 45.1205 4.05257 44.5307 4.06114L20.7312 4.06757C20.1414 4.07613 19.5553 4.23474 19.0573 4.52222C18.549 4.81568 18.123 5.22763 17.8267 5.74449L5.92575 26.3359C5.63381 26.8364 5.48036 27.409 5.47695 27.9781C5.47953 28.5575 5.63215 29.1333 5.9316 29.6519L7.23121 31.9029C6.21518 32.946 5.36202 34.1992 4.62821 35.5634ZM59.267 26.3273L58.5423 25.0722C59.4473 23.789 60.2466 22.4423 60.9253 21.0546L62.7999 24.3014C63.4587 25.4425 63.7823 26.7217 63.7895 28.0039C63.7907 29.2756 63.4547 30.5623 62.7883 31.7077L50.8874 52.2991C50.2209 53.4446 49.2831 54.3595 48.1835 54.9944C47.0839 55.6292 45.8227 55.9839 44.4974 55.9884L20.7143 55.9992C19.3847 56.0199 18.1128 55.6616 17.0017 55.0307C15.8845 54.3894 14.9429 53.4531 14.2841 52.3121L12.0083 48.3702C13.5566 48.4168 15.0685 48.3046 16.4635 47.9418L17.811 50.2758C18.1164 50.8048 18.5388 51.2249 19.0333 51.5065C19.5278 51.788 20.0901 51.9475 20.6799 51.9389L44.463 51.9281C45.0528 51.9195 45.6389 51.7609 46.1369 51.4734C46.6451 51.18 47.0712 50.768 47.3675 50.2512L59.2641 29.6761C59.556 29.1756 59.7035 28.5926 59.7113 28.0072C59.7191 27.4218 59.5664 26.846 59.267 26.3273ZM22.6898 41.7878L15.7006 29.6822C15.8652 29.4626 16.0243 29.2499 16.1787 29.0434L16.1833 29.0371L16.1843 29.0358C18.306 26.1981 19.5613 24.5191 22.4763 21.8699C33.6555 11.6951 48.6421 5.40771 61.4174 11.365C60.1889 25.4074 47.2506 35.2424 32.8493 39.8364C29.0954 41.0256 27.0137 41.2732 23.5011 41.691L23.4984 41.6914C23.2372 41.7224 22.9681 41.7544 22.6898 41.7878ZM44.9032 20.8995C44.0707 19.4576 42.5803 18.4094 40.7921 18.2109C37.8103 17.8854 35.1382 20.0367 34.8128 23.0185C34.6859 24.2121 34.942 25.3505 35.499 26.3152C36.3315 27.7571 37.8218 28.8053 39.61 29.0039C42.5918 29.3293 45.2639 27.178 45.5894 24.1962C45.7163 23.0026 45.4601 21.8642 44.9032 20.8995ZM43.3706 37.8158L39.6366 44.7157C38.7863 46.2854 37.41 47.495 35.725 48.122L32.8837 48.9741L30.7639 42.7153C35.0557 41.6206 39.4634 39.8642 43.3706 37.8158ZM21.6339 13.5336L29.4764 13.7498C25.7489 16.1093 22.0239 19.0483 18.93 22.2177L14.5696 17.2526L16.7282 15.2179C18.1197 14.0826 19.8493 13.4851 21.6339 13.5336Z" fill="white"/>
</g>
</svg>
