<svg width="3407" height="300" viewBox="0 0 3407 300" fill="none" xmlns="http://www.w3.org/2000/svg">
<path opacity="0.3" d="M62.6 226L60.744 226.745L61.2477 228H62.6V226ZM5.6 84V82H2.64207L3.74395 84.745L5.6 84ZM19 84L20.8598 83.2644L20.3597 82H19V84ZM68.6 209.4L66.7402 210.136L68.6 214.838L70.4598 210.136L68.6 209.4ZM118.2 84V82H116.84L116.34 83.2644L118.2 84ZM131.6 84L133.456 84.745L134.558 82H131.6V84ZM74.6 226V228H75.9523L76.4561 226.745L74.6 226ZM64.4561 225.255L7.45605 83.255L3.74395 84.745L60.744 226.745L64.4561 225.255ZM5.6 86H19V82H5.6V86ZM17.1402 84.7356L66.7402 210.136L70.4598 208.664L20.8598 83.2644L17.1402 84.7356ZM70.4598 210.136L120.06 84.7356L116.34 83.2644L66.7402 208.664L70.4598 210.136ZM118.2 86H131.6V82H118.2V86ZM129.744 83.255L72.744 225.255L76.4561 226.745L133.456 84.745L129.744 83.255ZM74.6 224H62.6V228H74.6V224ZM149.514 226H147.514V228H149.514V226ZM149.514 122V120H147.514V122H149.514ZM161.714 122H163.714V120H161.714V122ZM161.714 226V228H163.714V226H161.714ZM149.514 95.8H147.514V97.8H149.514V95.8ZM149.514 84V82H147.514V84H149.514ZM161.714 84H163.714V82H161.714V84ZM161.714 95.8V97.8H163.714V95.8H161.714ZM151.514 226V122H147.514V226H151.514ZM149.514 124H161.714V120H149.514V124ZM159.714 122V226H163.714V122H159.714ZM161.714 224H149.514V228H161.714V224ZM151.514 95.8V84H147.514V95.8H151.514ZM149.514 86H161.714V82H149.514V86ZM159.714 84V95.8H163.714V84H159.714ZM161.714 93.8H149.514V97.8H161.714V93.8ZM279.619 145.6L280.599 147.343L282.307 146.383L281.382 144.656L279.619 145.6ZM270.019 151L268.264 151.96L269.235 153.735L270.999 152.743L270.019 151ZM270.019 197L270.999 195.257L269.235 194.265L268.264 196.04L270.019 197ZM279.619 202.4L281.382 203.344L282.307 201.617L280.599 200.657L279.619 202.4ZM235.219 226C209.547 226 183.819 207.327 183.819 174.2H179.819C179.819 209.873 207.69 230 235.219 230V226ZM183.819 174.2C183.819 140.663 209.558 122 235.219 122V118C207.679 118 179.819 138.137 179.819 174.2H183.819ZM235.219 122C252.582 122 269.249 130.479 277.856 146.544L281.382 144.656C271.988 127.121 253.855 118 235.219 118V122ZM278.638 143.857L269.038 149.257L270.999 152.743L280.599 147.343L278.638 143.857ZM271.773 150.04C264.387 136.535 250.273 129.2 235.619 129.2V133.2C248.964 133.2 261.65 139.865 268.264 151.96L271.773 150.04ZM235.619 129.2C214.054 129.2 192.019 145.161 192.019 174.2H196.019C196.019 147.639 215.984 133.2 235.619 133.2V129.2ZM192.019 174.2C192.019 202.852 214.067 218.8 235.619 218.8V214.8C215.97 214.8 196.019 200.348 196.019 174.2H192.019ZM235.619 218.8C250.273 218.8 264.387 211.465 271.773 197.96L268.264 196.04C261.65 208.135 248.964 214.8 235.619 214.8V218.8ZM269.038 198.743L278.638 204.143L280.599 200.657L270.999 195.257L269.038 198.743ZM277.856 201.456C269.249 217.521 252.582 226 235.219 226V230C253.855 230 271.988 220.879 281.382 203.344L277.856 201.456ZM308.305 132.2H310.305V130.2H308.305V132.2ZM294.905 132.2H292.905V134.2H294.905V132.2ZM294.905 122V120H292.905V122H294.905ZM308.305 122V124H310.305V122H308.305ZM308.305 95.4V93.4H306.305V95.4H308.305ZM320.505 95.4H322.505V93.4H320.505V95.4ZM320.505 122H318.505V124H320.505V122ZM340.705 122H342.705V120H340.705V122ZM340.705 132.2V134.2H342.705V132.2H340.705ZM320.505 132.2V130.2H318.505V132.2H320.505ZM340.305 214.2H342.305V211.188L339.529 212.357L340.305 214.2ZM340.305 224.2L341.414 225.864L342.305 225.27V224.2H340.305ZM328.305 225.2C322.596 225.2 318.136 223.818 315.125 221.173C312.158 218.566 310.305 214.474 310.305 208.4H306.305C306.305 215.326 308.451 220.634 312.485 224.177C316.473 227.682 322.014 229.2 328.305 229.2V225.2ZM310.305 208.4V132.2H306.305V208.4H310.305ZM308.305 130.2H294.905V134.2H308.305V130.2ZM296.905 132.2V122H292.905V132.2H296.905ZM294.905 124H308.305V120H294.905V124ZM310.305 122V95.4H306.305V122H310.305ZM308.305 97.4H320.505V93.4H308.305V97.4ZM318.505 95.4V122H322.505V95.4H318.505ZM320.505 124H340.705V120H320.505V124ZM338.705 122V132.2H342.705V122H338.705ZM340.705 130.2H320.505V134.2H340.705V130.2ZM318.505 132.2V205.8H322.505V132.2H318.505ZM318.505 205.8C318.505 209.508 319.433 212.699 321.655 214.954C323.883 217.214 327.082 218.2 330.905 218.2V214.2C327.727 214.2 325.726 213.386 324.504 212.146C323.277 210.901 322.505 208.892 322.505 205.8H318.505ZM330.905 218.2C333.54 218.2 337.008 217.758 341.081 216.043L339.529 212.357C336.001 213.842 333.069 214.2 330.905 214.2V218.2ZM338.305 214.2V224.2H342.305V214.2H338.305ZM339.195 222.536C336.081 224.612 332.155 225.2 328.305 225.2V229.2C332.455 229.2 337.328 228.588 341.414 225.864L339.195 222.536ZM409.442 226C383.571 226 357.842 207.328 357.842 174H353.842C353.842 209.872 381.713 230 409.442 230V226ZM357.842 174C357.842 140.672 383.571 122 409.442 122V118C381.713 118 353.842 138.128 353.842 174H357.842ZM409.442 122C435.313 122 461.042 140.672 461.042 174H465.042C465.042 138.128 437.171 118 409.442 118V122ZM461.042 174C461.042 207.328 435.313 226 409.442 226V230C437.171 230 465.042 209.872 465.042 174H461.042ZM366.042 174C366.042 202.822 387.459 218.8 409.442 218.8V214.8C389.425 214.8 370.042 200.378 370.042 174H366.042ZM409.442 218.8C431.425 218.8 452.842 202.822 452.842 174H448.842C448.842 200.378 429.459 214.8 409.442 214.8V218.8ZM452.842 174C452.842 145.178 431.425 129.2 409.442 129.2V133.2C429.459 133.2 448.842 147.622 448.842 174H452.842ZM409.442 129.2C387.459 129.2 366.042 145.178 366.042 174H370.042C370.042 147.622 389.425 133.2 409.442 133.2V129.2ZM483.303 226H481.303V228H483.303V226ZM483.303 122V120H481.303V122H483.303ZM495.503 122H497.503V120H495.503V122ZM495.503 146.2H493.503L497.419 146.775L495.503 146.2ZM534.703 120.6H536.703V119.091L535.253 118.677L534.703 120.6ZM534.703 132L534.218 133.94L536.703 134.562V132H534.703ZM495.503 226V228H497.503V226H495.503ZM485.303 226V122H481.303V226H485.303ZM483.303 124H495.503V120H483.303V124ZM493.503 122V146.2H497.503V122H493.503ZM497.419 146.775C499.438 140.043 502.917 133.854 508.09 129.36C513.233 124.891 520.161 122 529.303 122V118C519.245 118 511.373 121.209 505.466 126.34C499.59 131.446 495.768 138.357 493.587 145.625L497.419 146.775ZM529.303 122C531.592 122 532.992 122.191 534.154 122.523L535.253 118.677C533.614 118.209 531.815 118 529.303 118V122ZM532.703 120.6V132H536.703V120.6H532.703ZM535.188 130.06C533.425 129.619 531.862 129.4 529.503 129.4V133.4C531.545 133.4 532.781 133.581 534.218 133.94L535.188 130.06ZM529.503 129.4C519.453 129.4 510.407 133.378 503.892 140.611C497.384 147.836 493.503 158.189 493.503 170.8H497.503C497.503 159.011 501.122 149.664 506.864 143.289C512.599 136.922 520.553 133.4 529.503 133.4V129.4ZM493.503 170.8V226H497.503V170.8H493.503ZM495.503 224H483.303V228H495.503V224ZM574.783 264L572.954 263.189L571.708 266H574.783V264ZM591.983 225.2L593.811 226.011L594.164 225.216L593.823 224.416L591.983 225.2ZM547.983 122V120H544.956L546.143 122.784L547.983 122ZM560.783 122L562.626 121.224L562.111 120H560.783V122ZM597.983 210.4L596.139 211.176L597.983 215.556L599.826 211.176L597.983 210.4ZM635.183 122V120H633.855L633.339 121.224L635.183 122ZM647.983 122L649.822 122.785L651.011 120H647.983V122ZM603.583 226L605.412 226.809L605.417 226.797L605.422 226.785L603.583 226ZM586.783 264V266H588.085L588.612 264.809L586.783 264ZM576.611 264.811L593.811 226.011L590.154 224.389L572.954 263.189L576.611 264.811ZM593.823 224.416L549.823 121.216L546.143 122.784L590.143 225.984L593.823 224.416ZM547.983 124H560.783V120H547.983V124ZM558.939 122.776L596.139 211.176L599.826 209.624L562.626 121.224L558.939 122.776ZM599.826 211.176L637.026 122.776L633.339 121.224L596.139 209.624L599.826 211.176ZM635.183 124H647.983V120H635.183V124ZM646.143 121.215L601.743 225.215L605.422 226.785L649.822 122.785L646.143 121.215ZM601.754 225.191L584.954 263.191L588.612 264.809L605.412 226.809L601.754 225.191ZM586.783 262H574.783V266H586.783V262ZM709.67 84V82H707.67V84H709.67ZM721.87 84H723.87V82H721.87V84ZM721.87 144.2H719.87V146.2H721.87V144.2ZM722.47 144.2V146.2H723.766L724.296 145.017L722.47 144.2ZM722.47 203.8L724.296 202.983L723.766 201.8H722.47V203.8ZM721.87 203.8V201.8H719.87V203.8H721.87ZM721.87 226V228H723.87V226H721.87ZM709.67 226H707.67V228H709.67V226ZM709.67 86H721.87V82H709.67V86ZM719.87 84V144.2H723.87V84H719.87ZM721.87 146.2H722.47V142.2H721.87V146.2ZM724.296 145.017C729.937 132.419 745.165 122 764.07 122V118C743.776 118 727.004 129.181 720.645 143.383L724.296 145.017ZM764.07 122C776.605 122 789.002 126.484 798.25 135.182C807.472 143.854 813.67 156.815 813.67 174H817.67C817.67 155.785 811.069 141.746 800.99 132.268C790.939 122.816 777.536 118 764.07 118V122ZM813.67 174C813.67 191.185 807.472 204.146 798.25 212.818C789.002 221.516 776.605 226 764.07 226V230C777.536 230 790.939 225.184 800.99 215.732C811.069 206.254 817.67 192.215 817.67 174H813.67ZM764.07 226C745.165 226 729.937 215.581 724.296 202.983L720.645 204.617C727.004 218.819 743.776 230 764.07 230V226ZM722.47 201.8H721.87V205.8H722.47V201.8ZM719.87 203.8V226H723.87V203.8H719.87ZM721.87 224H709.67V228H721.87V224ZM711.67 226V84H707.67V226H711.67ZM719.47 174C719.47 188.815 724.823 200.062 732.962 207.593C741.07 215.095 751.821 218.8 762.47 218.8V214.8C752.72 214.8 742.971 211.405 735.679 204.657C728.418 197.938 723.47 187.785 723.47 174H719.47ZM762.47 218.8C773.112 218.8 783.865 215.15 791.976 207.67C800.12 200.161 805.47 188.912 805.47 174H801.47C801.47 187.888 796.521 198.039 789.265 204.73C781.976 211.45 772.228 214.8 762.47 214.8V218.8ZM805.47 174C805.47 159.088 800.12 147.839 791.976 140.33C783.865 132.85 773.112 129.2 762.47 129.2V133.2C772.228 133.2 781.976 136.55 789.265 143.27C796.521 149.961 801.47 160.112 801.47 174H805.47ZM762.47 129.2C751.821 129.2 741.07 132.905 732.962 140.407C724.823 147.938 719.47 159.185 719.47 174H723.47C723.47 160.215 728.418 150.062 735.679 143.343C742.971 136.595 752.72 133.2 762.47 133.2V129.2ZM931.842 178.4V180.4H933.676L933.835 178.573L931.842 178.4ZM842.442 178.4V176.4H840.277L840.448 178.558L842.442 178.4ZM918.042 203.2L919.478 201.808L917.94 200.221L916.514 201.91L918.042 203.2ZM924.442 209.8L925.996 211.059L927.113 209.681L925.878 208.408L924.442 209.8ZM842.442 168.6L840.45 168.423L840.257 170.6H842.442V168.6ZM920.842 168.6V170.6H922.892L922.842 168.551L920.842 168.6ZM883.642 226C870.299 226 857.605 221.36 848.263 212.568C838.944 203.799 832.842 190.79 832.842 173.8H828.842C828.842 191.81 835.341 205.901 845.522 215.482C855.679 225.04 869.385 230 883.642 230V226ZM832.842 173.8C832.842 140.204 857.245 122 882.242 122V118C855.24 118 828.842 137.796 828.842 173.8H832.842ZM882.242 122C894.976 122 907.688 126.632 916.79 135.901C925.857 145.135 931.505 159.136 929.85 178.227L933.835 178.573C935.579 158.464 929.627 143.265 919.644 133.099C909.697 122.968 895.909 118 882.242 118V122ZM931.842 176.4H842.442V180.4H931.842V176.4ZM840.448 178.558C841.488 191.651 846.914 201.854 855.019 208.771C863.103 215.67 873.732 219.2 885.042 219.2V215.2C874.552 215.2 864.881 211.93 857.615 205.729C850.37 199.546 845.397 190.349 844.436 178.242L840.448 178.558ZM885.042 219.2C898.719 219.2 911.523 214.02 919.57 204.49L916.514 201.91C909.361 210.38 897.766 215.2 885.042 215.2V219.2ZM916.606 204.592L923.006 211.192L925.878 208.408L919.478 201.808L916.606 204.592ZM922.888 208.541C913.919 219.61 899.324 226 883.642 226V230C900.36 230 916.166 223.19 925.996 211.059L922.888 208.541ZM842.442 170.6H920.842V166.6H842.442V170.6ZM922.842 168.551C922.211 142.922 902.977 128.8 882.242 128.8V132.8C901.107 132.8 918.273 145.478 918.843 168.649L922.842 168.551ZM882.242 128.8C862.092 128.8 842.749 142.508 840.45 168.423L844.434 168.777C846.535 145.092 863.992 132.8 882.242 132.8V128.8ZM952.248 226H950.248V228H952.248V226ZM952.248 84V82H950.248V84H952.248ZM964.448 84H966.448V82H964.448V84ZM964.448 226V228H966.448V226H964.448ZM954.248 226V84H950.248V226H954.248ZM952.248 86H964.448V82H952.248V86ZM962.448 84V226H966.448V84H962.448ZM964.448 224H952.248V228H964.448V224ZM1038.15 226C1012.28 226 986.553 207.328 986.553 174H982.553C982.553 209.872 1010.42 230 1038.15 230V226ZM986.553 174C986.553 140.672 1012.28 122 1038.15 122V118C1010.42 118 982.553 138.128 982.553 174H986.553ZM1038.15 122C1064.02 122 1089.75 140.672 1089.75 174H1093.75C1093.75 138.128 1065.88 118 1038.15 118V122ZM1089.75 174C1089.75 207.328 1064.02 226 1038.15 226V230C1065.88 230 1093.75 209.872 1093.75 174H1089.75ZM994.753 174C994.753 202.822 1016.17 218.8 1038.15 218.8V214.8C1018.14 214.8 998.753 200.378 998.753 174H994.753ZM1038.15 218.8C1060.14 218.8 1081.55 202.822 1081.55 174H1077.55C1077.55 200.378 1058.17 214.8 1038.15 214.8V218.8ZM1081.55 174C1081.55 145.178 1060.14 129.2 1038.15 129.2V133.2C1058.17 133.2 1077.55 147.622 1077.55 174H1081.55ZM1038.15 129.2C1016.17 129.2 994.753 145.178 994.753 174H998.753C998.753 147.622 1018.14 133.2 1038.15 133.2V129.2ZM1112.01 226H1110.01V228H1112.01V226ZM1112.01 122V120H1110.01V122H1112.01ZM1124.21 122H1126.21V120H1124.21V122ZM1124.21 140.2H1122.21L1126 141.108L1124.21 140.2ZM1201.41 226V228H1203.41V226H1201.41ZM1189.21 226H1187.21V228H1189.21V226ZM1124.21 226V228H1126.21V226H1124.21ZM1114.01 226V122H1110.01V226H1114.01ZM1112.01 124H1124.21V120H1112.01V124ZM1122.21 122V140.2H1126.21V122H1122.21ZM1126 141.108C1130.88 131.534 1141.81 122 1160.21 122V118C1140.21 118 1127.95 128.466 1122.43 139.292L1126 141.108ZM1160.21 122C1170.91 122 1180.67 125.319 1187.74 132.208C1194.8 139.081 1199.41 149.72 1199.41 164.8H1203.41C1203.41 148.88 1198.52 137.119 1190.53 129.342C1182.56 121.581 1171.72 118 1160.21 118V122ZM1199.41 164.8V226H1203.41V164.8H1199.41ZM1201.41 224H1189.21V228H1201.41V224ZM1191.21 226V166.2H1187.21V226H1191.21ZM1191.21 166.2C1191.21 153.896 1187.53 144.59 1181.28 138.358C1175.02 132.134 1166.43 129.2 1157.01 129.2V133.2C1165.6 133.2 1173.1 135.866 1178.45 141.192C1183.79 146.51 1187.21 154.704 1187.21 166.2H1191.21ZM1157.01 129.2C1147.7 129.2 1138.97 132.134 1132.55 138.337C1126.11 144.557 1122.21 153.864 1122.21 166.2H1126.21C1126.21 154.736 1129.81 146.543 1135.33 141.213C1140.86 135.866 1148.53 133.2 1157.01 133.2V129.2ZM1122.21 166.2V226H1126.21V166.2H1122.21ZM1124.21 224H1112.01V228H1124.21V224ZM1245.46 260.2H1243.46V261.245L1244.32 261.842L1245.46 260.2ZM1245.46 249.4L1246.57 247.736L1243.46 245.663V249.4H1245.46ZM1315.46 203.8H1317.46V201.8H1315.46V203.8ZM1314.66 203.8V201.8H1313.37L1312.84 202.983L1314.66 203.8ZM1314.66 144.2L1312.84 145.017L1313.37 146.2H1314.66V144.2ZM1315.46 144.2V146.2H1317.46V144.2H1315.46ZM1315.46 122V120H1313.46V122H1315.46ZM1327.66 122H1329.66V120H1327.66V122ZM1276.06 265.6C1261.57 265.6 1250.8 261.475 1246.6 258.558L1244.32 261.842C1249.33 265.325 1260.95 269.6 1276.06 269.6V265.6ZM1247.46 260.2V249.4H1243.46V260.2H1247.46ZM1244.35 251.064C1249.47 254.478 1259.86 259 1274.66 259V255C1260.67 255 1251.05 250.722 1246.57 247.736L1244.35 251.064ZM1274.66 259C1285.31 259 1295.99 256.651 1304.06 250.6C1312.22 244.479 1317.46 234.754 1317.46 220.6H1313.46C1313.46 233.646 1308.7 242.121 1301.66 247.4C1294.53 252.749 1284.81 255 1274.66 255V259ZM1317.46 220.6V203.8H1313.46V220.6H1317.46ZM1315.46 201.8H1314.66V205.8H1315.46V201.8ZM1312.84 202.983C1307.2 215.581 1291.97 226 1273.06 226V230C1293.36 230 1310.13 218.819 1316.49 204.617L1312.84 202.983ZM1273.06 226C1248.45 226 1223.66 208.181 1223.66 174H1219.66C1219.66 210.619 1246.48 230 1273.06 230V226ZM1223.66 174C1223.66 139.819 1248.45 122 1273.06 122V118C1246.48 118 1219.66 137.381 1219.66 174H1223.66ZM1273.06 122C1291.97 122 1307.2 132.419 1312.84 145.017L1316.49 143.383C1310.13 129.181 1293.36 118 1273.06 118V122ZM1314.66 146.2H1315.46V142.2H1314.66V146.2ZM1317.46 144.2V122H1313.46V144.2H1317.46ZM1315.46 124H1327.66V120H1315.46V124ZM1325.66 122V221.2H1329.66V122H1325.66ZM1325.66 221.2C1325.66 238.208 1319.13 249.189 1309.83 255.985C1300.44 262.853 1288 265.6 1276.06 265.6V269.6C1288.52 269.6 1301.89 266.747 1312.19 259.215C1322.59 251.611 1329.66 239.392 1329.66 221.2H1325.66ZM1231.86 174C1231.86 188.912 1237.21 200.16 1245.33 207.668C1253.41 215.147 1264.12 218.8 1274.66 218.8V214.8C1265.01 214.8 1255.31 211.453 1248.05 204.732C1240.81 198.04 1235.86 187.888 1235.86 174H1231.86ZM1274.66 218.8C1285.31 218.8 1296.11 215.096 1304.27 207.597C1312.46 200.069 1317.86 188.822 1317.86 174H1313.86C1313.86 187.778 1308.87 197.931 1301.56 204.653C1294.22 211.404 1284.41 214.8 1274.66 214.8V218.8ZM1317.86 174C1317.86 159.178 1312.46 147.931 1304.27 140.403C1296.11 132.904 1285.31 129.2 1274.66 129.2V133.2C1284.41 133.2 1294.22 136.596 1301.56 143.347C1308.87 150.069 1313.86 160.222 1313.86 174H1317.86ZM1274.66 129.2C1264.12 129.2 1253.41 132.853 1245.33 140.332C1237.21 147.84 1231.86 159.088 1231.86 174H1235.86C1235.86 160.112 1240.81 149.96 1248.05 143.268C1255.31 136.547 1265.01 133.2 1274.66 133.2V129.2ZM1346.83 200.4L1346.29 198.476L1344.53 198.973L1344.87 200.77L1346.83 200.4ZM1357.43 197.4L1359.38 196.922L1358.88 194.912L1356.89 195.476L1357.43 197.4ZM1384.03 177.6L1384.82 175.76L1384.8 175.751L1384.78 175.743L1384.03 177.6ZM1376.03 174.4L1375.28 176.252L1375.29 176.257L1376.03 174.4ZM1413.03 141.8L1413.66 143.701L1415.46 143.11L1414.96 141.274L1413.03 141.8ZM1403.23 145L1401.37 145.721L1402.05 147.49L1403.86 146.901L1403.23 145ZM1380.83 164.8L1380.08 166.651L1380.08 166.654L1380.09 166.657L1380.83 164.8ZM1387.83 167.6L1388.59 165.75L1388.59 165.747L1388.58 165.743L1387.83 167.6ZM1382.43 226C1373.31 226 1365.66 223.458 1359.94 218.998C1354.23 214.544 1350.32 208.088 1348.8 200.03L1344.87 200.77C1346.55 209.712 1350.94 217.056 1357.48 222.152C1364.01 227.242 1372.56 230 1382.43 230V226ZM1347.38 202.324L1357.98 199.324L1356.89 195.476L1346.29 198.476L1347.38 202.324ZM1355.49 197.878C1357.19 204.758 1360.61 210.168 1365.33 213.852C1370.05 217.534 1375.94 219.4 1382.43 219.4V215.4C1376.72 215.4 1371.72 213.766 1367.79 210.698C1363.86 207.632 1360.88 203.042 1359.38 196.922L1355.49 197.878ZM1382.43 219.4C1388.33 219.4 1394.37 217.932 1399 214.598C1403.71 211.209 1406.83 205.963 1406.83 198.8H1402.83C1402.83 204.637 1400.36 208.691 1396.67 211.352C1392.89 214.068 1387.74 215.4 1382.43 215.4V219.4ZM1406.83 198.8C1406.83 192.942 1404.8 188.561 1400.9 184.934C1397.11 181.424 1391.62 178.661 1384.82 175.76L1383.25 179.44C1390.05 182.339 1394.95 184.876 1398.17 187.866C1401.27 190.739 1402.83 194.058 1402.83 198.8H1406.83ZM1384.78 175.743L1376.78 172.543L1375.29 176.257L1383.29 179.457L1384.78 175.743ZM1376.79 172.548C1368.39 169.132 1362.66 165.052 1359.04 160.589C1355.44 156.157 1353.83 151.256 1353.83 146H1349.83C1349.83 152.144 1351.73 157.943 1355.93 163.111C1360.11 168.248 1366.47 172.668 1375.28 176.252L1376.79 172.548ZM1353.83 146C1353.83 132.003 1365.62 122 1382.03 122V118C1364.05 118 1349.83 129.197 1349.83 146H1353.83ZM1382.03 122C1396.85 122 1407.77 130.106 1411.1 142.326L1414.96 141.274C1411.1 127.094 1398.42 118 1382.03 118V122ZM1412.41 139.899L1402.61 143.099L1403.86 146.901L1413.66 143.701L1412.41 139.899ZM1405.1 144.279C1403.3 139.629 1400.66 135.631 1396.88 132.8C1393.09 129.955 1388.3 128.4 1382.43 128.4V132.4C1387.56 132.4 1391.48 133.745 1394.48 136C1397.51 138.269 1399.77 141.571 1401.37 145.721L1405.1 144.279ZM1382.43 128.4C1377.12 128.4 1372 129.779 1368.17 132.711C1364.27 135.691 1361.83 140.178 1361.83 146H1365.83C1365.83 141.422 1367.7 138.109 1370.6 135.889C1373.56 133.621 1377.75 132.4 1382.43 132.4V128.4ZM1361.83 146C1361.83 150.365 1363.2 154.29 1366.26 157.77C1369.27 161.193 1373.83 164.09 1380.08 166.651L1381.59 162.949C1375.64 160.51 1371.7 157.907 1369.26 155.13C1366.87 152.41 1365.83 149.435 1365.83 146H1361.83ZM1380.09 166.657L1387.09 169.457L1388.58 165.743L1381.58 162.943L1380.09 166.657ZM1387.07 169.45C1396.07 173.147 1403.05 176.631 1407.81 181.128C1412.45 185.515 1415.03 190.935 1415.03 198.8H1419.03C1419.03 189.865 1416.02 183.385 1410.56 178.222C1405.21 173.169 1397.6 169.453 1388.59 165.75L1387.07 169.45ZM1415.03 198.8C1415.03 208.241 1411.01 214.952 1405 219.363C1398.92 223.827 1390.72 226 1382.43 226V230C1391.35 230 1400.44 227.673 1407.37 222.587C1414.36 217.448 1419.03 209.559 1419.03 198.8H1415.03ZM1489.16 132.2H1491.16V130.2H1489.16V132.2ZM1475.76 132.2H1473.76V134.2H1475.76V132.2ZM1475.76 122V120H1473.76V122H1475.76ZM1489.16 122V124H1491.16V122H1489.16ZM1489.16 95.4V93.4H1487.16V95.4H1489.16ZM1501.36 95.4H1503.36V93.4H1501.36V95.4ZM1501.36 122H1499.36V124H1501.36V122ZM1521.56 122H1523.56V120H1521.56V122ZM1521.56 132.2V134.2H1523.56V132.2H1521.56ZM1501.36 132.2V130.2H1499.36V132.2H1501.36ZM1521.16 214.2H1523.16V211.188L1520.39 212.357L1521.16 214.2ZM1521.16 224.2L1522.27 225.864L1523.16 225.27V224.2H1521.16ZM1509.16 225.2C1503.46 225.2 1499 223.818 1495.98 221.173C1493.02 218.566 1491.16 214.474 1491.16 208.4H1487.16C1487.16 215.326 1489.31 220.634 1493.34 224.177C1497.33 227.682 1502.87 229.2 1509.16 229.2V225.2ZM1491.16 208.4V132.2H1487.16V208.4H1491.16ZM1489.16 130.2H1475.76V134.2H1489.16V130.2ZM1477.76 132.2V122H1473.76V132.2H1477.76ZM1475.76 124H1489.16V120H1475.76V124ZM1491.16 122V95.4H1487.16V122H1491.16ZM1489.16 97.4H1501.36V93.4H1489.16V97.4ZM1499.36 95.4V122H1503.36V95.4H1499.36ZM1501.36 124H1521.56V120H1501.36V124ZM1519.56 122V132.2H1523.56V122H1519.56ZM1521.56 130.2H1501.36V134.2H1521.56V130.2ZM1499.36 132.2V205.8H1503.36V132.2H1499.36ZM1499.36 205.8C1499.36 209.508 1500.29 212.699 1502.51 214.954C1504.74 217.214 1507.94 218.2 1511.76 218.2V214.2C1508.59 214.2 1506.59 213.386 1505.36 212.146C1504.14 210.901 1503.36 208.892 1503.36 205.8H1499.36ZM1511.76 218.2C1514.4 218.2 1517.87 217.758 1521.94 216.043L1520.39 212.357C1516.86 213.842 1513.93 214.2 1511.76 214.2V218.2ZM1519.16 214.2V224.2H1523.16V214.2H1519.16ZM1520.05 222.536C1516.94 224.612 1513.01 225.2 1509.16 225.2V229.2C1513.31 229.2 1518.19 228.588 1522.27 225.864L1520.05 222.536ZM1590.3 226C1564.43 226 1538.7 207.328 1538.7 174H1534.7C1534.7 209.872 1562.57 230 1590.3 230V226ZM1538.7 174C1538.7 140.672 1564.43 122 1590.3 122V118C1562.57 118 1534.7 138.128 1534.7 174H1538.7ZM1590.3 122C1616.17 122 1641.9 140.672 1641.9 174H1645.9C1645.9 138.128 1618.03 118 1590.3 118V122ZM1641.9 174C1641.9 207.328 1616.17 226 1590.3 226V230C1618.03 230 1645.9 209.872 1645.9 174H1641.9ZM1546.9 174C1546.9 202.822 1568.32 218.8 1590.3 218.8V214.8C1570.28 214.8 1550.9 200.378 1550.9 174H1546.9ZM1590.3 218.8C1612.28 218.8 1633.7 202.822 1633.7 174H1629.7C1629.7 200.378 1610.32 214.8 1590.3 214.8V218.8ZM1633.7 174C1633.7 145.178 1612.28 129.2 1590.3 129.2V133.2C1610.32 133.2 1629.7 147.622 1629.7 174H1633.7ZM1590.3 129.2C1568.32 129.2 1546.9 145.178 1546.9 174H1550.9C1550.9 147.622 1570.28 133.2 1590.3 133.2V129.2ZM1716.12 132.2H1718.12V130.2H1716.12V132.2ZM1702.72 132.2H1700.72V134.2H1702.72V132.2ZM1702.72 122V120H1700.72V122H1702.72ZM1716.12 122V124H1718.12V122H1716.12ZM1716.12 95.4V93.4H1714.12V95.4H1716.12ZM1728.32 95.4H1730.32V93.4H1728.32V95.4ZM1728.32 122H1726.32V124H1728.32V122ZM1748.52 122H1750.52V120H1748.52V122ZM1748.52 132.2V134.2H1750.52V132.2H1748.52ZM1728.32 132.2V130.2H1726.32V132.2H1728.32ZM1748.12 214.2H1750.12V211.188L1747.34 212.357L1748.12 214.2ZM1748.12 224.2L1749.23 225.864L1750.12 225.27V224.2H1748.12ZM1736.12 225.2C1730.41 225.2 1725.95 223.818 1722.94 221.173C1719.97 218.566 1718.12 214.474 1718.12 208.4H1714.12C1714.12 215.326 1716.26 220.634 1720.3 224.177C1724.29 227.682 1729.83 229.2 1736.12 229.2V225.2ZM1718.12 208.4V132.2H1714.12V208.4H1718.12ZM1716.12 130.2H1702.72V134.2H1716.12V130.2ZM1704.72 132.2V122H1700.72V132.2H1704.72ZM1702.72 124H1716.12V120H1702.72V124ZM1718.12 122V95.4H1714.12V122H1718.12ZM1716.12 97.4H1728.32V93.4H1716.12V97.4ZM1726.32 95.4V122H1730.32V95.4H1726.32ZM1728.32 124H1748.52V120H1728.32V124ZM1746.52 122V132.2H1750.52V122H1746.52ZM1748.52 130.2H1728.32V134.2H1748.52V130.2ZM1726.32 132.2V205.8H1730.32V132.2H1726.32ZM1726.32 205.8C1726.32 209.508 1727.25 212.699 1729.47 214.954C1731.7 217.214 1734.89 218.2 1738.72 218.2V214.2C1735.54 214.2 1733.54 213.386 1732.32 212.146C1731.09 210.901 1730.32 208.892 1730.32 205.8H1726.32ZM1738.72 218.2C1741.35 218.2 1744.82 217.758 1748.89 216.043L1747.34 212.357C1743.81 213.842 1740.88 214.2 1738.72 214.2V218.2ZM1746.12 214.2V224.2H1750.12V214.2H1746.12ZM1747.01 222.536C1743.89 224.612 1739.97 225.2 1736.12 225.2V229.2C1740.27 229.2 1745.14 228.588 1749.23 225.864L1747.01 222.536ZM1769.63 226H1767.63V228H1769.63V226ZM1769.63 84V82H1767.63V84H1769.63ZM1781.83 84H1783.83V82H1781.83V84ZM1781.83 140.2H1779.83L1783.61 141.108L1781.83 140.2ZM1859.03 226V228H1861.03V226H1859.03ZM1846.83 226H1844.83V228H1846.83V226ZM1781.83 226V228H1783.83V226H1781.83ZM1771.63 226V84H1767.63V226H1771.63ZM1769.63 86H1781.83V82H1769.63V86ZM1779.83 84V140.2H1783.83V84H1779.83ZM1783.61 141.108C1788.49 131.534 1799.43 122 1817.83 122V118C1797.83 118 1785.57 128.466 1780.05 139.292L1783.61 141.108ZM1817.83 122C1828.52 122 1838.28 125.319 1845.36 132.208C1852.42 139.081 1857.03 149.72 1857.03 164.8H1861.03C1861.03 148.88 1856.14 137.119 1848.15 129.342C1840.18 121.581 1829.34 118 1817.83 118V122ZM1857.03 164.8V226H1861.03V164.8H1857.03ZM1859.03 224H1846.83V228H1859.03V224ZM1848.83 226V166.2H1844.83V226H1848.83ZM1848.83 166.2C1848.83 153.896 1845.15 144.59 1838.89 138.358C1832.64 132.134 1824.04 129.2 1814.63 129.2V133.2C1823.22 133.2 1830.72 135.866 1836.07 141.192C1841.41 146.51 1844.83 154.704 1844.83 166.2H1848.83ZM1814.63 129.2C1805.32 129.2 1796.58 132.134 1790.17 138.337C1783.73 144.557 1779.83 153.864 1779.83 166.2H1783.83C1783.83 154.736 1787.43 146.543 1792.95 141.213C1798.48 135.866 1806.14 133.2 1814.63 133.2V129.2ZM1779.83 166.2V226H1783.83V166.2H1779.83ZM1781.83 224H1769.63V228H1781.83V224ZM1980.28 178.4V180.4H1982.11L1982.27 178.573L1980.28 178.4ZM1890.88 178.4V176.4H1888.71L1888.89 178.558L1890.88 178.4ZM1966.48 203.2L1967.92 201.808L1966.38 200.221L1964.95 201.91L1966.48 203.2ZM1972.88 209.8L1974.43 211.059L1975.55 209.681L1974.32 208.408L1972.88 209.8ZM1890.88 168.6L1888.89 168.423L1888.69 170.6H1890.88V168.6ZM1969.28 168.6V170.6H1971.33L1971.28 168.551L1969.28 168.6ZM1932.08 226C1918.74 226 1906.04 221.36 1896.7 212.568C1887.38 203.799 1881.28 190.79 1881.28 173.8H1877.28C1877.28 191.81 1883.78 205.901 1893.96 215.482C1904.12 225.04 1917.82 230 1932.08 230V226ZM1881.28 173.8C1881.28 140.204 1905.68 122 1930.68 122V118C1903.68 118 1877.28 137.796 1877.28 173.8H1881.28ZM1930.68 122C1943.41 122 1956.13 126.632 1965.23 135.901C1974.29 145.135 1979.94 159.136 1978.29 178.227L1982.27 178.573C1984.02 158.464 1978.06 143.265 1968.08 133.099C1958.13 122.968 1944.35 118 1930.68 118V122ZM1980.28 176.4H1890.88V180.4H1980.28V176.4ZM1888.89 178.558C1889.93 191.651 1895.35 201.854 1903.46 208.771C1911.54 215.67 1922.17 219.2 1933.48 219.2V215.2C1922.99 215.2 1913.32 211.93 1906.05 205.729C1898.81 199.546 1893.83 190.349 1892.87 178.242L1888.89 178.558ZM1933.48 219.2C1947.16 219.2 1959.96 214.02 1968.01 204.49L1964.95 201.91C1957.8 210.38 1946.2 215.2 1933.48 215.2V219.2ZM1965.04 204.592L1971.44 211.192L1974.32 208.408L1967.92 201.808L1965.04 204.592ZM1971.33 208.541C1962.36 219.61 1947.76 226 1932.08 226V230C1948.8 230 1964.6 223.19 1974.43 211.059L1971.33 208.541ZM1890.88 170.6H1969.28V166.6H1890.88V170.6ZM1971.28 168.551C1970.65 142.922 1951.41 128.8 1930.68 128.8V132.8C1949.54 132.8 1966.71 145.478 1967.28 168.649L1971.28 168.551ZM1930.68 128.8C1910.53 128.8 1891.19 142.508 1888.89 168.423L1892.87 168.777C1894.97 145.092 1912.43 132.8 1930.68 132.8V128.8ZM2114.24 226H2112.24V228H2114.24V226ZM2056.44 226V228H2058.44V226H2056.44ZM2044.24 226H2042.24V228H2044.24V226ZM2044.24 122V120H2042.24V122H2044.24ZM2056.44 122H2058.44V120H2056.44V122ZM2056.44 139H2054.44L2058.24 139.88L2056.44 139ZM2123.04 142.8L2121.17 143.497L2122.97 148.356L2124.9 143.543L2123.04 142.8ZM2196.44 226V228H2198.44V226H2196.44ZM2184.24 226H2182.24V228H2184.24V226ZM2126.44 226V228H2128.44V226H2126.44ZM2116.24 226V165.6H2112.24V226H2116.24ZM2116.24 165.6C2116.24 154.944 2113.89 145.847 2108.84 139.371C2103.74 132.818 2096.07 129.2 2086.04 129.2V133.2C2095.01 133.2 2101.44 136.382 2105.69 141.829C2109.99 147.353 2112.24 155.456 2112.24 165.6H2116.24ZM2086.04 129.2C2076.03 129.2 2068.03 132.807 2062.58 139.316C2057.17 145.778 2054.44 154.883 2054.44 165.6H2058.44C2058.44 155.516 2061.01 147.422 2065.65 141.884C2070.25 136.393 2077.06 133.2 2086.04 133.2V129.2ZM2054.44 165.6V226H2058.44V165.6H2054.44ZM2056.44 224H2044.24V228H2056.44V224ZM2046.24 226V122H2042.24V226H2046.24ZM2044.24 124H2056.44V120H2044.24V124ZM2054.44 122V139H2058.44V122H2054.44ZM2058.24 139.88C2062.74 130.694 2072.28 122 2089.04 122V118C2070.6 118 2059.75 127.706 2054.64 138.12L2058.24 139.88ZM2089.04 122C2103.73 122 2115.7 128.791 2121.17 143.497L2124.92 142.103C2118.78 125.609 2105.15 118 2089.04 118V122ZM2124.9 143.543C2129.04 133.181 2139.58 122 2158.84 122V118C2137.7 118 2125.84 130.419 2121.18 142.057L2124.9 143.543ZM2158.84 122C2169.21 122 2178.03 125.255 2184.27 132.007C2190.53 138.778 2194.44 149.331 2194.44 164.4H2198.44C2198.44 148.669 2194.35 137.022 2187.21 129.293C2180.05 121.545 2170.07 118 2158.84 118V122ZM2194.44 164.4V226H2198.44V164.4H2194.44ZM2196.44 224H2184.24V228H2196.44V224ZM2186.24 226V165.6H2182.24V226H2186.24ZM2186.24 165.6C2186.24 154.944 2183.89 145.847 2178.84 139.371C2173.74 132.818 2166.07 129.2 2156.04 129.2V133.2C2165.01 133.2 2171.44 136.382 2175.69 141.829C2179.99 147.353 2182.24 155.456 2182.24 165.6H2186.24ZM2156.04 129.2C2146.12 129.2 2138.13 132.81 2132.66 139.312C2127.22 145.771 2124.44 154.875 2124.44 165.6H2128.44C2128.44 155.525 2131.06 147.429 2135.72 141.888C2140.35 136.39 2147.16 133.2 2156.04 133.2V129.2ZM2124.44 165.6V226H2128.44V165.6H2124.44ZM2126.44 224H2114.24V228H2126.44V224ZM2270.18 226C2244.31 226 2218.58 207.328 2218.58 174H2214.58C2214.58 209.872 2242.46 230 2270.18 230V226ZM2218.58 174C2218.58 140.672 2244.31 122 2270.18 122V118C2242.46 118 2214.58 138.128 2214.58 174H2218.58ZM2270.18 122C2296.06 122 2321.78 140.672 2321.78 174H2325.78C2325.78 138.128 2297.91 118 2270.18 118V122ZM2321.78 174C2321.78 207.328 2296.06 226 2270.18 226V230C2297.91 230 2325.78 209.872 2325.78 174H2321.78ZM2226.78 174C2226.78 202.822 2248.2 218.8 2270.18 218.8V214.8C2250.17 214.8 2230.78 200.378 2230.78 174H2226.78ZM2270.18 218.8C2292.17 218.8 2313.58 202.822 2313.58 174H2309.58C2309.58 200.378 2290.2 214.8 2270.18 214.8V218.8ZM2313.58 174C2313.58 145.178 2292.17 129.2 2270.18 129.2V133.2C2290.2 133.2 2309.58 147.622 2309.58 174H2313.58ZM2270.18 129.2C2248.2 129.2 2226.78 145.178 2226.78 174H2230.78C2230.78 147.622 2250.17 133.2 2270.18 133.2V129.2ZM2335.12 200.4L2334.57 198.476L2332.81 198.973L2333.15 200.77L2335.12 200.4ZM2345.72 197.4L2347.66 196.922L2347.16 194.912L2345.17 195.476L2345.72 197.4ZM2372.32 177.6L2373.1 175.76L2373.08 175.751L2373.06 175.743L2372.32 177.6ZM2364.32 174.4L2363.56 176.252L2363.57 176.257L2364.32 174.4ZM2401.32 141.8L2401.94 143.701L2403.75 143.11L2403.25 141.274L2401.32 141.8ZM2391.52 145L2389.65 145.721L2390.33 147.49L2392.14 146.901L2391.52 145ZM2369.12 164.8L2368.36 166.651L2368.36 166.654L2368.37 166.657L2369.12 164.8ZM2376.12 167.6L2376.88 165.75L2376.87 165.747L2376.86 165.743L2376.12 167.6ZM2370.72 226C2361.59 226 2353.94 223.458 2348.22 218.998C2342.51 214.544 2338.6 208.088 2337.08 200.03L2333.15 200.77C2334.83 209.712 2339.22 217.056 2345.76 222.152C2352.29 227.242 2360.84 230 2370.72 230V226ZM2335.66 202.324L2346.26 199.324L2345.17 195.476L2334.57 198.476L2335.66 202.324ZM2343.77 197.878C2345.47 204.758 2348.89 210.168 2353.61 213.852C2358.33 217.534 2364.23 219.4 2370.72 219.4V215.4C2365.01 215.4 2360 213.766 2356.07 210.698C2352.14 207.632 2349.16 203.042 2347.66 196.922L2343.77 197.878ZM2370.72 219.4C2376.61 219.4 2382.66 217.932 2387.28 214.598C2391.99 211.209 2395.12 205.963 2395.12 198.8H2391.12C2391.12 204.637 2388.64 208.691 2384.95 211.352C2381.18 214.068 2376.02 215.4 2370.72 215.4V219.4ZM2395.12 198.8C2395.12 192.942 2393.08 188.561 2389.18 184.934C2385.4 181.424 2379.9 178.661 2373.1 175.76L2371.53 179.44C2378.33 182.339 2383.24 184.876 2386.45 187.866C2389.55 190.739 2391.12 194.058 2391.12 198.8H2395.12ZM2373.06 175.743L2365.06 172.543L2363.57 176.257L2371.57 179.457L2373.06 175.743ZM2365.07 172.548C2356.68 169.132 2350.94 165.052 2347.32 160.589C2343.72 156.157 2342.12 151.256 2342.12 146H2338.12C2338.12 152.144 2340.01 157.943 2344.21 163.111C2348.39 168.248 2354.76 172.668 2363.56 176.252L2365.07 172.548ZM2342.12 146C2342.12 132.003 2353.9 122 2370.32 122V118C2352.33 118 2338.12 129.197 2338.12 146H2342.12ZM2370.32 122C2385.13 122 2396.05 130.106 2399.39 142.326L2403.25 141.274C2399.38 127.094 2386.7 118 2370.32 118V122ZM2400.69 139.899L2390.89 143.099L2392.14 146.901L2401.94 143.701L2400.69 139.899ZM2393.38 144.279C2391.58 139.629 2388.94 135.631 2385.17 132.8C2381.37 129.955 2376.59 128.4 2370.72 128.4V132.4C2375.85 132.4 2379.76 133.745 2382.77 136C2385.79 138.269 2388.05 141.571 2389.65 145.721L2393.38 144.279ZM2370.72 128.4C2365.4 128.4 2360.29 129.779 2356.45 132.711C2352.55 135.691 2350.12 140.178 2350.12 146H2354.12C2354.12 141.422 2355.98 138.109 2358.88 135.889C2361.85 133.621 2366.03 132.4 2370.72 132.4V128.4ZM2350.12 146C2350.12 150.365 2351.48 154.29 2354.54 157.77C2357.55 161.193 2362.11 164.09 2368.36 166.651L2369.87 162.949C2363.92 160.51 2359.98 157.907 2357.54 155.13C2355.15 152.41 2354.12 149.435 2354.12 146H2350.12ZM2368.37 166.657L2375.37 169.457L2376.86 165.743L2369.86 162.943L2368.37 166.657ZM2375.36 169.45C2384.35 173.147 2391.34 176.631 2396.09 181.128C2400.73 185.515 2403.32 190.935 2403.32 198.8H2407.32C2407.32 189.865 2404.3 183.385 2398.84 178.222C2393.5 173.169 2385.88 169.453 2376.88 165.75L2375.36 169.45ZM2403.32 198.8C2403.32 208.241 2399.29 214.952 2393.28 219.363C2387.21 223.827 2379 226 2370.72 226V230C2379.63 230 2388.73 227.673 2395.65 222.587C2402.64 217.448 2407.32 209.559 2407.32 198.8H2403.32ZM2431.94 132.2H2433.94V130.2H2431.94V132.2ZM2418.54 132.2H2416.54V134.2H2418.54V132.2ZM2418.54 122V120H2416.54V122H2418.54ZM2431.94 122V124H2433.94V122H2431.94ZM2431.94 95.4V93.4H2429.94V95.4H2431.94ZM2444.14 95.4H2446.14V93.4H2444.14V95.4ZM2444.14 122H2442.14V124H2444.14V122ZM2464.34 122H2466.34V120H2464.34V122ZM2464.34 132.2V134.2H2466.34V132.2H2464.34ZM2444.14 132.2V130.2H2442.14V132.2H2444.14ZM2463.94 214.2H2465.94V211.188L2463.16 212.357L2463.94 214.2ZM2463.94 224.2L2465.05 225.864L2465.94 225.27V224.2H2463.94ZM2451.94 225.2C2446.23 225.2 2441.77 223.818 2438.76 221.173C2435.79 218.566 2433.94 214.474 2433.94 208.4H2429.94C2429.94 215.326 2432.08 220.634 2436.12 224.177C2440.11 227.682 2445.65 229.2 2451.94 229.2V225.2ZM2433.94 208.4V132.2H2429.94V208.4H2433.94ZM2431.94 130.2H2418.54V134.2H2431.94V130.2ZM2420.54 132.2V122H2416.54V132.2H2420.54ZM2418.54 124H2431.94V120H2418.54V124ZM2433.94 122V95.4H2429.94V122H2433.94ZM2431.94 97.4H2444.14V93.4H2431.94V97.4ZM2442.14 95.4V122H2446.14V95.4H2442.14ZM2444.14 124H2464.34V120H2444.14V124ZM2462.34 122V132.2H2466.34V122H2462.34ZM2464.34 130.2H2444.14V134.2H2464.34V130.2ZM2442.14 132.2V205.8H2446.14V132.2H2442.14ZM2442.14 205.8C2442.14 209.508 2443.07 212.699 2445.29 214.954C2447.52 217.214 2450.71 218.2 2454.54 218.2V214.2C2451.36 214.2 2449.36 213.386 2448.14 212.146C2446.91 210.901 2446.14 208.892 2446.14 205.8H2442.14ZM2454.54 218.2C2457.17 218.2 2460.64 217.758 2464.71 216.043L2463.16 212.357C2459.63 213.842 2456.7 214.2 2454.54 214.2V218.2ZM2461.94 214.2V224.2H2465.94V214.2H2461.94ZM2462.83 222.536C2459.71 224.612 2455.79 225.2 2451.94 225.2V229.2C2456.09 229.2 2460.96 228.588 2465.05 225.864L2462.83 222.536ZM2537.41 132.2H2539.41V130.2H2537.41V132.2ZM2524.01 132.2H2522.01V134.2H2524.01V132.2ZM2524.01 122V120H2522.01V122H2524.01ZM2537.41 122V124H2539.41V122H2537.41ZM2537.41 95.4V93.4H2535.41V95.4H2537.41ZM2549.61 95.4H2551.61V93.4H2549.61V95.4ZM2549.61 122H2547.61V124H2549.61V122ZM2569.81 122H2571.81V120H2569.81V122ZM2569.81 132.2V134.2H2571.81V132.2H2569.81ZM2549.61 132.2V130.2H2547.61V132.2H2549.61ZM2569.41 214.2H2571.41V211.188L2568.63 212.357L2569.41 214.2ZM2569.41 224.2L2570.52 225.864L2571.41 225.27V224.2H2569.41ZM2557.41 225.2C2551.7 225.2 2547.24 223.818 2544.23 221.173C2541.26 218.566 2539.41 214.474 2539.41 208.4H2535.41C2535.41 215.326 2537.55 220.634 2541.59 224.177C2545.57 227.682 2551.12 229.2 2557.41 229.2V225.2ZM2539.41 208.4V132.2H2535.41V208.4H2539.41ZM2537.41 130.2H2524.01V134.2H2537.41V130.2ZM2526.01 132.2V122H2522.01V132.2H2526.01ZM2524.01 124H2537.41V120H2524.01V124ZM2539.41 122V95.4H2535.41V122H2539.41ZM2537.41 97.4H2549.61V93.4H2537.41V97.4ZM2547.61 95.4V122H2551.61V95.4H2547.61ZM2549.61 124H2569.81V120H2549.61V124ZM2567.81 122V132.2H2571.81V122H2567.81ZM2569.81 130.2H2549.61V134.2H2569.81V130.2ZM2547.61 132.2V205.8H2551.61V132.2H2547.61ZM2547.61 205.8C2547.61 209.508 2548.53 212.699 2550.76 214.954C2552.98 217.214 2556.18 218.2 2560.01 218.2V214.2C2556.83 214.2 2554.83 213.386 2553.61 212.146C2552.38 210.901 2551.61 208.892 2551.61 205.8H2547.61ZM2560.01 218.2C2562.64 218.2 2566.11 217.758 2570.18 216.043L2568.63 212.357C2565.1 213.842 2562.17 214.2 2560.01 214.2V218.2ZM2567.41 214.2V224.2H2571.41V214.2H2567.41ZM2568.3 222.536C2565.18 224.612 2561.26 225.2 2557.41 225.2V229.2C2561.56 229.2 2566.43 228.588 2570.52 225.864L2568.3 222.536ZM2685.94 178.4V180.4H2687.78L2687.94 178.573L2685.94 178.4ZM2596.54 178.4V176.4H2594.38L2594.55 178.558L2596.54 178.4ZM2672.14 203.2L2673.58 201.808L2672.04 200.221L2670.62 201.91L2672.14 203.2ZM2678.54 209.8L2680.1 211.059L2681.21 209.681L2679.98 208.408L2678.54 209.8ZM2596.54 168.6L2594.55 168.423L2594.36 170.6H2596.54V168.6ZM2674.94 168.6V170.6H2676.99L2676.94 168.551L2674.94 168.6ZM2637.74 226C2624.4 226 2611.71 221.36 2602.36 212.568C2593.05 203.799 2586.94 190.79 2586.94 173.8H2582.94C2582.94 191.81 2589.44 205.901 2599.62 215.482C2609.78 225.04 2623.49 230 2637.74 230V226ZM2586.94 173.8C2586.94 140.204 2611.35 122 2636.34 122V118C2609.34 118 2582.94 137.796 2582.94 173.8H2586.94ZM2636.34 122C2649.08 122 2661.79 126.632 2670.89 135.901C2679.96 145.135 2685.61 159.136 2683.95 178.227L2687.94 178.573C2689.68 158.464 2683.73 143.265 2673.75 133.099C2663.8 122.968 2650.01 118 2636.34 118V122ZM2685.94 176.4H2596.54V180.4H2685.94V176.4ZM2594.55 178.558C2595.59 191.651 2601.02 201.854 2609.12 208.771C2617.2 215.67 2627.83 219.2 2639.14 219.2V215.2C2628.65 215.2 2618.98 211.93 2611.72 205.729C2604.47 199.546 2599.5 190.349 2598.54 178.242L2594.55 178.558ZM2639.14 219.2C2652.82 219.2 2665.62 214.02 2673.67 204.49L2670.62 201.91C2663.46 210.38 2651.87 215.2 2639.14 215.2V219.2ZM2670.71 204.592L2677.11 211.192L2679.98 208.408L2673.58 201.808L2670.71 204.592ZM2676.99 208.541C2668.02 219.61 2653.43 226 2637.74 226V230C2654.46 230 2670.27 223.19 2680.1 211.059L2676.99 208.541ZM2596.54 170.6H2674.94V166.6H2596.54V170.6ZM2676.94 168.551C2676.31 142.922 2657.08 128.8 2636.34 128.8V132.8C2655.21 132.8 2672.37 145.478 2672.94 168.649L2676.94 168.551ZM2636.34 128.8C2616.19 128.8 2596.85 142.508 2594.55 168.423L2598.54 168.777C2600.64 145.092 2618.09 132.8 2636.34 132.8V128.8ZM2706.35 226H2704.35V228H2706.35V226ZM2706.35 122V120H2704.35V122H2706.35ZM2718.55 122H2720.55V120H2718.55V122ZM2718.55 140.2H2716.55L2720.33 141.108L2718.55 140.2ZM2795.75 226V228H2797.75V226H2795.75ZM2783.55 226H2781.55V228H2783.55V226ZM2718.55 226V228H2720.55V226H2718.55ZM2708.35 226V122H2704.35V226H2708.35ZM2706.35 124H2718.55V120H2706.35V124ZM2716.55 122V140.2H2720.55V122H2716.55ZM2720.33 141.108C2725.21 131.534 2736.15 122 2754.55 122V118C2734.55 118 2722.29 128.466 2716.77 139.292L2720.33 141.108ZM2754.55 122C2765.24 122 2775 125.319 2782.08 132.208C2789.14 139.081 2793.75 149.72 2793.75 164.8H2797.75C2797.75 148.88 2792.86 137.119 2784.87 129.342C2776.9 121.581 2766.06 118 2754.55 118V122ZM2793.75 164.8V226H2797.75V164.8H2793.75ZM2795.75 224H2783.55V228H2795.75V224ZM2785.55 226V166.2H2781.55V226H2785.55ZM2785.55 166.2C2785.55 153.896 2781.87 144.59 2775.61 138.358C2769.36 132.134 2760.76 129.2 2751.35 129.2V133.2C2759.94 133.2 2767.44 135.866 2772.79 141.192C2778.13 146.51 2781.55 154.704 2781.55 166.2H2785.55ZM2751.35 129.2C2742.04 129.2 2733.3 132.134 2726.89 138.337C2720.45 144.557 2716.55 153.864 2716.55 166.2H2720.55C2720.55 154.736 2724.15 146.543 2729.67 141.213C2735.2 135.866 2742.86 133.2 2751.35 133.2V129.2ZM2716.55 166.2V226H2720.55V166.2H2716.55ZM2718.55 224H2706.35V228H2718.55V224ZM2909.2 144.2L2907.37 145.017L2907.9 146.2H2909.2V144.2ZM2909.8 144.2V146.2H2911.8V144.2H2909.8ZM2909.8 122V120H2907.8V122H2909.8ZM2922 122H2924V120H2922V122ZM2922 226V228H2924V226H2922ZM2909.8 226H2907.8V228H2909.8V226ZM2909.8 203.8H2911.8V201.8H2909.8V203.8ZM2909.2 203.8V201.8H2907.9L2907.37 202.983L2909.2 203.8ZM2867.6 226C2855.06 226 2842.67 221.516 2833.42 212.818C2824.2 204.146 2818 191.185 2818 174H2814C2814 192.215 2820.6 206.254 2830.68 215.732C2840.73 225.184 2854.13 230 2867.6 230V226ZM2818 174C2818 156.815 2824.2 143.854 2833.42 135.182C2842.67 126.484 2855.06 122 2867.6 122V118C2854.13 118 2840.73 122.816 2830.68 132.268C2820.6 141.746 2814 155.785 2814 174H2818ZM2867.6 122C2886.5 122 2901.73 132.419 2907.37 145.017L2911.02 143.383C2904.67 129.181 2887.89 118 2867.6 118V122ZM2909.2 146.2H2909.8V142.2H2909.2V146.2ZM2911.8 144.2V122H2907.8V144.2H2911.8ZM2909.8 124H2922V120H2909.8V124ZM2920 122V226H2924V122H2920ZM2922 224H2909.8V228H2922V224ZM2911.8 226V203.8H2907.8V226H2911.8ZM2909.8 201.8H2909.2V205.8H2909.8V201.8ZM2907.37 202.983C2901.73 215.581 2886.5 226 2867.6 226V230C2887.89 230 2904.67 218.819 2911.02 204.617L2907.37 202.983ZM2826.2 174C2826.2 188.912 2831.55 200.161 2839.69 207.67C2847.8 215.15 2858.56 218.8 2869.2 218.8V214.8C2859.44 214.8 2849.69 211.45 2842.4 204.73C2835.15 198.039 2830.2 187.888 2830.2 174H2826.2ZM2869.2 218.8C2879.85 218.8 2890.6 215.095 2898.71 207.593C2906.85 200.062 2912.2 188.815 2912.2 174H2908.2C2908.2 187.785 2903.25 197.938 2895.99 204.657C2888.7 211.405 2878.95 214.8 2869.2 214.8V218.8ZM2912.2 174C2912.2 159.185 2906.85 147.938 2898.71 140.407C2890.6 132.905 2879.85 129.2 2869.2 129.2V133.2C2878.95 133.2 2888.7 136.595 2895.99 143.343C2903.25 150.062 2908.2 160.215 2908.2 174H2912.2ZM2869.2 129.2C2858.56 129.2 2847.8 132.85 2839.69 140.33C2831.55 147.839 2826.2 159.088 2826.2 174H2830.2C2830.2 160.112 2835.15 149.961 2842.4 143.27C2849.69 136.55 2859.44 133.2 2869.2 133.2V129.2ZM3039.97 145.6L3040.95 147.343L3042.66 146.383L3041.73 144.656L3039.97 145.6ZM3030.37 151L3028.62 151.96L3029.59 153.735L3031.35 152.743L3030.37 151ZM3030.37 197L3031.35 195.257L3029.59 194.265L3028.62 196.04L3030.37 197ZM3039.97 202.4L3041.73 203.344L3042.66 201.617L3040.95 200.657L3039.97 202.4ZM2995.57 226C2969.9 226 2944.17 207.327 2944.17 174.2H2940.17C2940.17 209.873 2968.04 230 2995.57 230V226ZM2944.17 174.2C2944.17 140.663 2969.91 122 2995.57 122V118C2968.03 118 2940.17 138.137 2940.17 174.2H2944.17ZM2995.57 122C3012.93 122 3029.6 130.479 3038.21 146.544L3041.73 144.656C3032.34 127.121 3014.21 118 2995.57 118V122ZM3038.99 143.857L3029.39 149.257L3031.35 152.743L3040.95 147.343L3038.99 143.857ZM3032.12 150.04C3024.74 136.535 3010.62 129.2 2995.97 129.2V133.2C3009.32 133.2 3022 139.865 3028.62 151.96L3032.12 150.04ZM2995.97 129.2C2974.41 129.2 2952.37 145.161 2952.37 174.2H2956.37C2956.37 147.639 2976.34 133.2 2995.97 133.2V129.2ZM2952.37 174.2C2952.37 202.852 2974.42 218.8 2995.97 218.8V214.8C2976.32 214.8 2956.37 200.348 2956.37 174.2H2952.37ZM2995.97 218.8C3010.62 218.8 3024.74 211.465 3032.12 197.96L3028.62 196.04C3022 208.135 3009.32 214.8 2995.97 214.8V218.8ZM3029.39 198.743L3038.99 204.143L3040.95 200.657L3031.35 195.257L3029.39 198.743ZM3038.21 201.456C3029.6 217.521 3012.93 226 2995.57 226V230C3014.21 230 3032.34 220.879 3041.73 203.344L3038.21 201.456ZM3060.26 226H3058.26V228H3060.26V226ZM3060.26 122V120H3058.26V122H3060.26ZM3072.46 122H3074.46V120H3072.46V122ZM3072.46 226V228H3074.46V226H3072.46ZM3060.26 95.8H3058.26V97.8H3060.26V95.8ZM3060.26 84V82H3058.26V84H3060.26ZM3072.46 84H3074.46V82H3072.46V84ZM3072.46 95.8V97.8H3074.46V95.8H3072.46ZM3062.26 226V122H3058.26V226H3062.26ZM3060.26 124H3072.46V120H3060.26V124ZM3070.46 122V226H3074.46V122H3070.46ZM3072.46 224H3060.26V228H3072.46V224ZM3062.26 95.8V84H3058.26V95.8H3062.26ZM3060.26 86H3072.46V82H3060.26V86ZM3070.46 84V95.8H3074.46V84H3070.46ZM3072.46 93.8H3060.26V97.8H3072.46V93.8ZM3146.16 226C3120.29 226 3094.56 207.328 3094.56 174H3090.56C3090.56 209.872 3118.43 230 3146.16 230V226ZM3094.56 174C3094.56 140.672 3120.29 122 3146.16 122V118C3118.43 118 3090.56 138.128 3090.56 174H3094.56ZM3146.16 122C3172.03 122 3197.76 140.672 3197.76 174H3201.76C3201.76 138.128 3173.89 118 3146.16 118V122ZM3197.76 174C3197.76 207.328 3172.03 226 3146.16 226V230C3173.89 230 3201.76 209.872 3201.76 174H3197.76ZM3102.76 174C3102.76 202.822 3124.18 218.8 3146.16 218.8V214.8C3126.14 214.8 3106.76 200.378 3106.76 174H3102.76ZM3146.16 218.8C3168.14 218.8 3189.56 202.822 3189.56 174H3185.56C3185.56 200.378 3166.18 214.8 3146.16 214.8V218.8ZM3189.56 174C3189.56 145.178 3168.14 129.2 3146.16 129.2V133.2C3166.18 133.2 3185.56 147.622 3185.56 174H3189.56ZM3146.16 129.2C3124.18 129.2 3102.76 145.178 3102.76 174H3106.76C3106.76 147.622 3126.14 133.2 3146.16 133.2V129.2ZM3309.42 122H3311.42V120H3309.42V122ZM3309.42 226V228H3311.42V226H3309.42ZM3297.22 226H3295.22V228H3297.22V226ZM3297.22 207.8H3299.22L3295.44 206.892L3297.22 207.8ZM3220.02 122V120H3218.02V122H3220.02ZM3232.22 122H3234.22V120H3232.22V122ZM3297.22 122V120H3295.22V122H3297.22ZM3307.42 122V226H3311.42V122H3307.42ZM3309.42 224H3297.22V228H3309.42V224ZM3299.22 226V207.8H3295.22V226H3299.22ZM3295.44 206.892C3290.56 216.466 3279.62 226 3261.22 226V230C3281.22 230 3293.48 219.534 3299 208.708L3295.44 206.892ZM3261.22 226C3250.53 226 3240.77 222.681 3233.69 215.792C3226.63 208.919 3222.02 198.28 3222.02 183.2H3218.02C3218.02 199.12 3222.91 210.881 3230.9 218.658C3238.88 226.419 3249.72 230 3261.22 230V226ZM3222.02 183.2V122H3218.02V183.2H3222.02ZM3220.02 124H3232.22V120H3220.02V124ZM3230.22 122V181.8H3234.22V122H3230.22ZM3230.22 181.8C3230.22 194.104 3233.9 203.41 3240.16 209.642C3246.41 215.866 3255.01 218.8 3264.42 218.8V214.8C3255.83 214.8 3248.33 212.134 3242.98 206.808C3237.64 201.49 3234.22 193.296 3234.22 181.8H3230.22ZM3264.42 218.8C3273.73 218.8 3282.47 215.866 3288.89 209.663C3295.32 203.443 3299.22 194.136 3299.22 181.8H3295.22C3295.22 193.264 3291.62 201.457 3286.11 206.787C3280.57 212.134 3272.91 214.8 3264.42 214.8V218.8ZM3299.22 181.8V122H3295.22V181.8H3299.22ZM3297.22 124H3309.42V120H3297.22V124ZM3328.67 200.4L3328.13 198.476L3326.37 198.973L3326.7 200.77L3328.67 200.4ZM3339.27 197.4L3341.21 196.922L3340.72 194.912L3338.73 195.476L3339.27 197.4ZM3365.87 177.6L3366.65 175.76L3366.63 175.751L3366.61 175.743L3365.87 177.6ZM3357.87 174.4L3357.12 176.252L3357.13 176.257L3357.87 174.4ZM3394.87 141.8L3395.49 143.701L3397.3 143.11L3396.8 141.274L3394.87 141.8ZM3385.07 145L3383.2 145.721L3383.89 147.49L3385.69 146.901L3385.07 145ZM3362.67 164.8L3361.91 166.651L3361.92 166.654L3361.93 166.657L3362.67 164.8ZM3369.67 167.6L3370.43 165.75L3370.42 165.747L3370.41 165.743L3369.67 167.6ZM3364.27 226C3355.14 226 3347.5 223.458 3341.77 218.998C3336.06 214.544 3332.15 208.088 3330.64 200.03L3326.7 200.77C3328.39 209.712 3332.78 217.056 3339.32 222.152C3345.84 227.242 3354.4 230 3364.27 230V226ZM3329.21 202.324L3339.81 199.324L3338.73 195.476L3328.13 198.476L3329.21 202.324ZM3337.33 197.878C3339.02 204.758 3342.44 210.168 3347.16 213.852C3351.88 217.534 3357.78 219.4 3364.27 219.4V215.4C3358.56 215.4 3353.56 213.766 3349.63 210.698C3345.7 207.632 3342.72 203.042 3341.21 196.922L3337.33 197.878ZM3364.27 219.4C3370.17 219.4 3376.21 217.932 3380.84 214.598C3385.54 211.209 3388.67 205.963 3388.67 198.8H3384.67C3384.67 204.637 3382.2 208.691 3378.5 211.352C3374.73 214.068 3369.57 215.4 3364.27 215.4V219.4ZM3388.67 198.8C3388.67 192.942 3386.64 188.561 3382.73 184.934C3378.95 181.424 3373.46 178.661 3366.65 175.76L3365.09 179.44C3371.88 182.339 3376.79 184.876 3380.01 187.866C3383.1 190.739 3384.67 194.058 3384.67 198.8H3388.67ZM3366.61 175.743L3358.61 172.543L3357.13 176.257L3365.13 179.457L3366.61 175.743ZM3358.62 172.548C3350.23 169.132 3344.5 165.052 3340.87 160.589C3337.27 156.157 3335.67 151.256 3335.67 146H3331.67C3331.67 152.144 3333.57 157.943 3337.77 163.111C3341.94 168.248 3348.31 172.668 3357.12 176.252L3358.62 172.548ZM3335.67 146C3335.67 132.003 3347.45 122 3363.87 122V118C3345.89 118 3331.67 129.197 3331.67 146H3335.67ZM3363.87 122C3378.69 122 3389.61 130.106 3392.94 142.326L3396.8 141.274C3392.93 127.094 3380.25 118 3363.87 118V122ZM3394.25 139.899L3384.45 143.099L3385.69 146.901L3395.49 143.701L3394.25 139.899ZM3386.94 144.279C3385.14 139.629 3382.5 135.631 3378.72 132.8C3374.93 129.955 3370.14 128.4 3364.27 128.4V132.4C3369.4 132.4 3373.31 133.745 3376.32 136C3379.35 138.269 3381.6 141.571 3383.2 145.721L3386.94 144.279ZM3364.27 128.4C3358.95 128.4 3353.84 129.779 3350.01 132.711C3346.11 135.691 3343.67 140.178 3343.67 146H3347.67C3347.67 141.422 3349.53 138.109 3352.44 135.889C3355.4 133.621 3359.59 132.4 3364.27 132.4V128.4ZM3343.67 146C3343.67 150.365 3345.03 154.29 3348.09 157.77C3351.1 161.193 3355.67 164.09 3361.91 166.651L3363.43 162.949C3357.48 160.51 3353.54 157.907 3351.1 155.13C3348.71 152.41 3347.67 149.435 3347.67 146H3343.67ZM3361.93 166.657L3368.93 169.457L3370.41 165.743L3363.41 162.943L3361.93 166.657ZM3368.91 169.45C3377.9 173.147 3384.89 176.631 3389.65 181.128C3394.29 185.515 3396.87 190.935 3396.87 198.8H3400.87C3400.87 189.865 3397.85 183.385 3392.39 178.222C3387.05 173.169 3379.44 169.453 3370.43 165.75L3368.91 169.45ZM3396.87 198.8C3396.87 208.241 3392.84 214.952 3386.84 219.363C3380.76 223.827 3372.56 226 3364.27 226V230C3373.18 230 3382.28 227.673 3389.2 222.587C3396.2 217.448 3400.87 209.559 3400.87 198.8H3396.87Z" fill="#1F35F0"/>
</svg>
