<svg width="60" height="60" viewBox="0 0 60 60" fill="none" xmlns="http://www.w3.org/2000/svg">
    <path
        d="M0.5 30C0.5 13.7076 13.7076 0.5 30 0.5C46.2924 0.5 59.5 13.7076 59.5 30C59.5 46.2924 46.2924 59.5 30 59.5H0.5V30Z"
        fill="white" stroke="#E4E8F0" />
    <path
        d="M35.9326 31.0517C36.4207 30.5636 36.4207 29.7721 35.9326 29.284L27.9776 21.329C27.4895 20.8409 26.698 20.8409 26.2098 21.329C25.7217 21.8172 25.7217 22.6086 26.2098 23.0968L33.2809 30.1679L26.2098 37.2389C25.7217 37.7271 25.7217 38.5185 26.2098 39.0067C26.698 39.4949 27.4895 39.4949 27.9776 39.0067L35.9326 31.0517Z"
        fill="#1F35F0" />
</svg>
