<svg width="60" height="60" viewBox="0 0 60 60" fill="none" xmlns="http://www.w3.org/2000/svg">
    <path
        d="M0 30C0 13.4315 13.4315 0 30 0C46.5685 0 60 13.4315 60 30C60 46.5685 46.5685 60 30 60H0V30Z"
        fill="#166C39" />
    <path
        d="M35.9307 31.0518C36.4188 30.5637 36.4188 29.7722 35.9307 29.2841L27.9757 21.3291C27.4876 20.841 26.6961 20.841 26.2079 21.3291C25.7198 21.8173 25.7198 22.6087 26.2079 23.0969L33.279 30.168L26.2079 37.239C25.7198 37.7272 25.7198 38.5186 26.2079 39.0068C26.6961 39.495 27.4876 39.495 27.9757 39.0068L35.9307 31.0518Z"
        fill="white" />
</svg>
