<svg width="60" height="60" viewBox="0 0 60 60" fill="none" xmlns="http://www.w3.org/2000/svg">
    <path
        d="M60 30C60 13.4315 46.5685 0 30 0C13.4315 0 0 13.4315 0 30C0 46.5685 13.4315 60 30 60H60V30Z"
        fill="#166C39" />
    <path
        d="M24.0674 31.0517C23.5793 30.5636 23.5793 29.7721 24.0674 29.284L32.0224 21.329C32.5105 20.8409 33.302 20.8409 33.7902 21.329C34.2783 21.8172 34.2783 22.6086 33.7902 23.0968L26.7191 30.1679L33.7902 37.2389C34.2783 37.7271 34.2783 38.5185 33.7902 39.0067C33.302 39.4949 32.5105 39.4949 32.0224 39.0067L24.0674 31.0517Z"
        fill="white" />
</svg>
