<?xml version="1.0" encoding="utf-8"?>
<!-- Generator: Adobe Illustrator 26.1.0, SVG Export Plug-In . SVG Version: 6.00 Build 0)  -->
<svg version="1.1" id="Слой_1" xmlns="http://www.w3.org/2000/svg" xmlns:xlink="http://www.w3.org/1999/xlink" x="0px" y="0px"
	 viewBox="0 0 348 132" style="enable-background:new 0 0 348 132;" xml:space="preserve">
<style type="text/css">
	.st0{fill:#0E0B3A;}
	.st1{fill:#FFFFFF;filter:url(#Adobe_OpacityMaskFilter);}
	.st2{mask:url(#path-4-inside-1_747_811_00000098217345892842507530000001872120949180852159_);fill:#0E0B3A;}
	.st3{fill:#F7F9FC;}
	.st4{fill:#1F35F0;fill-opacity:5.000000e-02;}
	.st5{fill:#1F35F0;}
</style>
<path class="st0" d="M5.3,70L0.6,54.4h2.6l3.3,11.3l3.6-11.3h2l3.6,11.3l3.3-11.3h2.6L16.9,70h-2l-3.8-11.4L7.3,70H5.3z M27.2,70.2
	c-3.1,0-5.9-2.1-5.9-5.9c0-3.9,2.8-5.9,5.7-5.9s6.1,2.1,5.5,6.9h-9c0.4,2,1.9,3,3.9,3c1.2,0,2.3-0.4,3.2-1.2l1.1,1.2
	C30.8,69.4,29.1,70.2,27.2,70.2z M23.6,63.4h6.8c-0.1-2-1.7-3-3.3-3C25.4,60.4,23.9,61.4,23.6,63.4z M39.1,70V54.4h2.4V64l4.9-5.4
	h2.9l-4.7,5.1l5.2,6.3h-2.8l-3.9-4.6l-1.6,1.7V70H39.1z M55.6,70.2c-3.1,0-5.9-2.1-5.9-5.9c0-3.9,2.8-5.9,5.7-5.9
	c2.9,0,6.1,2.1,5.5,6.9h-9c0.4,2,1.9,3,3.9,3c1.2,0,2.3-0.4,3.2-1.2l1.1,1.2C59.2,69.4,57.6,70.2,55.6,70.2z M52,63.4h6.8
	c-0.1-2-1.7-3-3.3-3C53.9,60.4,52.3,61.4,52,63.4z M68.3,70.2c-3.1,0-5.9-2.1-5.9-5.9c0-3.9,2.8-5.9,5.7-5.9s6.1,2.1,5.5,6.9h-9
	c0.4,2,1.9,3,3.9,3c1.2,0,2.3-0.4,3.2-1.2l1.1,1.2C71.9,69.4,70.2,70.2,68.3,70.2z M64.6,63.4h6.8c-0.1-2-1.7-3-3.3-3
	C66.5,60.4,65,61.4,64.6,63.4z M75.4,74.2V58.6h2.4v1.8h0.1c0.4-0.9,1.9-2,4-2c2.7,0,5.5,2,5.5,5.9s-2.8,5.9-5.5,5.9
	c-2.1,0-3.5-1.1-4-2h-0.1v6H75.4z M77.7,64.3c0,2.5,1.8,3.7,3.6,3.7c1.8,0,3.6-1.3,3.6-3.7s-1.8-3.7-3.6-3.7
	C79.5,60.5,77.7,61.8,77.7,64.3z M99.3,70.2c-3,0-6-2.1-6-5.9s3-5.9,6-5.9c3,0,6,2.1,6,5.9S102.2,70.2,99.3,70.2z M95.7,64.3
	c0,2.4,1.7,3.7,3.6,3.7c1.9,0,3.6-1.4,3.6-3.7s-1.7-3.7-3.6-3.7C97.4,60.6,95.7,61.9,95.7,64.3z M117.6,58.6V70h-2.4v-1.7
	c-0.6,1.1-1.8,1.9-3.7,1.9c-2.4,0-4.4-1.5-4.4-4.9v-6.7h2.4v6.3c0,2,1.1,3.1,2.8,3.1c1.6,0,2.8-1.1,2.8-3.1v-6.3H117.6z M120,70
	V58.6h2.4v2.9c0.4-1.7,1.5-3.2,3.6-3.2c0.3,0,0.5,0,0.7,0.1v2.3c-0.2,0-0.4-0.1-0.7-0.1c-2.2,0-3.7,1.6-3.7,4V70H120z"/>
<path class="st0" d="M250,68v-4h6v-6h4v6h6v4h-6v6h-4v-6H250z"/>
<defs>
	<filter id="Adobe_OpacityMaskFilter" filterUnits="userSpaceOnUse" x="142" y="-1" width="11" height="134">
		<feColorMatrix  type="matrix" values="1 0 0 0 0  0 1 0 0 0  0 0 1 0 0  0 0 0 1 0"/>
	</filter>
</defs>
<mask maskUnits="userSpaceOnUse" x="142" y="-1" width="11" height="134" id="path-4-inside-1_747_811_00000098217345892842507530000001872120949180852159_">
	<path class="st1" d="M153,0h-4.1c-1.6,0-2.9,1.3-2.9,2.9v59.1c0,1.2-0.7,2.2-1.7,2.7l-0.5,0.2c-1.1,0.5-1,2.1,0.2,2.4
		c1.2,0.3,2.1,1.4,2.1,2.7v59c0,1.6,1.3,2.9,2.9,2.9h4.1"/>
</mask>
<path class="st2" d="M144.3,64.7l0.4,0.9l0,0L144.3,64.7z M143.8,65l-0.4-0.9l0,0L143.8,65z M144,67.4l-0.3,1l0,0L144,67.4z M153-1
	h-4.1v2h4.1V-1z M148.9-1c-2.2,0-3.9,1.8-3.9,3.9h2c0-1.1,0.9-1.9,1.9-1.9V-1z M145,2.9v59.1h2V2.9H145z M145,62.1
	c0,0.8-0.5,1.5-1.1,1.8l0.8,1.8c1.4-0.6,2.3-2,2.3-3.6H145z M143.9,63.8l-0.5,0.2l0.8,1.8l0.5-0.2L143.9,63.8z M143.4,64.1
	c-2,0.9-1.7,3.7,0.3,4.3l0.5-1.9c-0.1,0-0.1-0.1-0.1-0.1c0,0-0.1-0.1-0.1-0.2c0-0.1,0-0.1,0-0.2c0,0,0.1-0.1,0.1-0.1L143.4,64.1z
	 M143.7,68.3c0.8,0.2,1.3,0.9,1.3,1.7h2c0-1.7-1.2-3.2-2.8-3.6L143.7,68.3z M145,70.1v59h2v-59H145z M145,129.1
	c0,2.2,1.8,3.9,3.9,3.9v-2c-1.1,0-1.9-0.9-1.9-1.9H145z M148.9,133h4.1v-2h-4.1V133z"/>
<path class="st3" d="M178,0h160c5.5,0,10,4.5,10,10v33c0,5.5-4.5,10-10,10H178c-5.5,0-10-4.5-10-10V10C168,4.5,172.5,0,178,0z"/>
<path class="st4" d="M178,0h160c5.5,0,10,4.5,10,10v33c0,5.5-4.5,10-10,10H178c-5.5,0-10-4.5-10-10V10C168,4.5,172.5,0,178,0z"/>
<path class="st3" d="M178,79h159c5.5,0,10,4.5,10,10v33c0,5.5-4.5,10-10,10H178c-5.5,0-10-4.5-10-10V89C168,83.5,172.5,79,178,79z"
	/>
<path class="st4" d="M178,79h159c5.5,0,10,4.5,10,10v33c0,5.5-4.5,10-10,10H178c-5.5,0-10-4.5-10-10V89C168,83.5,172.5,79,178,79z"
	/>
<path class="st5" d="M190.2,35V23.6h2.4v2.9c0.4-1.7,1.5-3.2,3.6-3.2c0.3,0,0.5,0,0.7,0.1v2.3c-0.2,0-0.4-0.1-0.7-0.1
	c-2.2,0-3.7,1.6-3.7,4V35H190.2z M203.5,35.2c-2.7,0-5.5-2-5.5-5.9s2.8-5.9,5.5-5.9c2.1,0,3.5,1.1,4,2h0.1v-1.8h2.4V35h-2.4v-1.8
	h-0.1C207,34.1,205.6,35.2,203.5,35.2z M200.4,29.3c0,2.5,1.8,3.7,3.6,3.7c1.8,0,3.6-1.3,3.6-3.7s-1.8-3.7-3.6-3.7
	C202.1,25.5,200.4,26.8,200.4,29.3z M216.4,35.1c-1.7,0-3-0.9-3-2.9v-6.7h-1.6v-2h1.6v-2.9h2.4v2.9h2.3v2h-2.3v6.3
	c0,0.7,0.4,1.2,1.3,1.2c0.3,0,0.6,0,1.1-0.2v1.9C217.7,35,217,35.1,216.4,35.1z M225.4,35.2c-3.1,0-5.9-2.1-5.9-5.9
	c0-3.9,2.8-5.9,5.7-5.9c2.9,0,6.1,2.1,5.5,6.9h-9c0.4,2,1.9,3,3.9,3c1.2,0,2.3-0.4,3.2-1.2l1.1,1.2C229,34.4,227.3,35.2,225.4,35.2z
	 M221.7,28.4h6.8c-0.1-2-1.7-3-3.3-3C223.6,25.4,222.1,26.4,221.7,28.4z M235.8,35.2c-2.2,0-3.8-1.1-4.2-3.1l2-0.6
	c0.2,1,1,1.7,2.2,1.7c0.9,0,1.8-0.5,1.8-1.5c0-0.7-0.5-1.2-1.6-1.6l-1.2-0.5c-1.9-0.7-2.7-1.9-2.7-3.2c0-1.9,1.7-3.1,3.8-3.1
	c2,0,3.4,1.1,3.8,2.8l-1.9,0.5c-0.3-0.9-1-1.3-1.8-1.3c-0.9,0-1.5,0.5-1.5,1.2c0,0.6,0.4,1.1,1.4,1.5l1.1,0.4c1.6,0.6,3,1.4,3,3.4
	C240,34.1,238.1,35.2,235.8,35.2z M249.9,35V21.7h-3.9v-2.3h10.4v2.3h-3.9V35H249.9z M267.7,35v-6.6h-7V35h-2.5V19.4h2.5v6.7h7v-6.7
	h2.5V35H267.7z M281.3,35l-3.4-5.3h0h-2.8V35h-2.5V19.4h5.3c3.3,0,5.4,2.1,5.4,5.2c0,2.3-1.1,3.9-3.1,4.7L284,35H281.3z M275.1,27.5
	h2.5c1.9,0,3.2-0.9,3.2-2.9c0-2-1.3-2.9-3.2-2.9h-2.5V27.5z M285.7,35V19.4h2.5V35H285.7z M290.6,35V19.4h8.6v2.3h-6.1v4.4h5.6v2.1
	h-5.6V35H290.6z M304.7,35V21.7h-3.9v-2.3h10.4v2.3h-3.9V35H304.7z M317.7,35v-6.5l-5.6-9.1h2.8l4,6.8l4-6.8h2.8l-5.6,9.1V35H317.7z
	"/>
<path class="st5" d="M194.6,114.2c-3,0-6-2.1-6-5.9s3-5.9,6-5.9c2,0,3.9,0.9,4.9,2.8l-1.8,1.1c-0.7-1.1-1.8-1.7-3.1-1.7
	c-1.8,0-3.6,1.4-3.6,3.7s1.8,3.7,3.6,3.7c1.3,0,2.4-0.7,3.1-1.7l1.8,1.1C198.5,113.3,196.6,114.2,194.6,114.2z M201.4,114V98.4h2.4
	V114H201.4z M206.2,114v-11.4h2.4V114H206.2z M206.2,100.6v-2.2h2.4v2.2H206.2z M216.4,114.2c-3.1,0-5.9-2.1-5.9-5.9
	c0-3.9,2.8-5.9,5.7-5.9c2.9,0,6.1,2.1,5.5,6.9h-9c0.4,2,1.9,3,3.9,3c1.2,0,2.3-0.4,3.2-1.2l1.1,1.2
	C220,113.4,218.4,114.2,216.4,114.2z M212.8,107.4h6.8c-0.1-2-1.7-3-3.3-3C214.7,104.4,213.1,105.4,212.8,107.4z M223.7,114v-11.4
	h2.4v1.7c0.6-1.1,1.8-1.9,3.7-1.9c2.4,0,4.4,1.5,4.4,4.9v6.7h-2.4v-6.3c0-2-1.1-3.1-2.8-3.1c-1.6,0-2.8,1.1-2.8,3.1v6.3H223.7z
	 M240.3,114.1c-1.7,0-3-0.9-3-2.9v-6.7h-1.6v-2h1.6v-2.9h2.4v2.9h2.3v2h-2.3v6.3c0,0.7,0.4,1.2,1.3,1.2c0.3,0,0.6,0,1.1-0.2v1.9
	C241.6,114,240.9,114.1,240.3,114.1z M247.6,114.2c-2.2,0-3.8-1.1-4.2-3.1l2-0.6c0.2,1,1,1.7,2.2,1.7c0.9,0,1.8-0.5,1.8-1.5
	c0-0.7-0.5-1.2-1.6-1.6l-1.2-0.5c-1.9-0.7-2.7-1.9-2.7-3.2c0-1.9,1.7-3.1,3.8-3.1c2,0,3.4,1.1,3.8,2.8l-1.9,0.5
	c-0.3-0.9-1-1.3-1.8-1.3c-0.9,0-1.5,0.5-1.5,1.2c0,0.6,0.4,1.1,1.4,1.5l1.1,0.4c1.6,0.6,3,1.4,3,3.4
	C251.7,113.1,249.8,114.2,247.6,114.2z M267.7,114v-6.6h-7v6.6h-2.5V98.4h2.5v6.7h7v-6.7h2.5V114H267.7z M277.9,98.4h2.6l6.1,15.6
	h-2.7l-1.2-3.2h-7l-1.2,3.2h-2.7L277.9,98.4z M276.5,108.5h5.3l-2.6-7L276.5,108.5z M288.1,114V98.4h5.3c3.4,0,5.5,2.1,5.5,5.2
	c0,3.1-2.1,5.2-5.5,5.2h-2.8v5.2H288.1z M290.6,106.5h2.6c1.9,0,3.2-0.9,3.2-2.9c0-2-1.3-2.9-3.2-2.9h-2.6V106.5z M300.9,114V98.4
	h5.3c3.4,0,5.5,2.1,5.5,5.2c0,3.1-2.1,5.2-5.5,5.2h-2.8v5.2H300.9z M303.4,106.5h2.6c1.9,0,3.2-0.9,3.2-2.9c0-2-1.3-2.9-3.2-2.9
	h-2.6V106.5z M318,114v-6.5l-5.6-9.1h2.8l4,6.8l4-6.8h2.8l-5.6,9.1v6.5H318z"/>
</svg>
