<svg width="43" height="31" viewBox="0 0 43 31" fill="none" xmlns="http://www.w3.org/2000/svg">
    <path opacity="0.07"
        d="M41.4045 -5C42.3426 -5 43 -4.29575 43 -3.50825C43 -2.95025 42.669 -2.3495 41.8656 -1.92875C37.7844 0.204249 33.0596 7.57975 33.0596 12.1292C39.9437 11.9222 42.9338 17.9387 42.9338 21.7097C42.9338 26.2255 38.9668 31 33.1006 31C25.7052 31 22.076 25.2692 22.076 19.0592C22.076 5.60425 37.6748 -5 41.4045 -5ZM19.3285 -5C20.2643 -5 20.924 -4.29575 20.924 -3.50825C20.924 -2.95025 20.593 -2.3495 19.7896 -1.92875C15.7084 0.204249 10.9836 7.57975 10.9836 12.1292C17.8677 11.9222 20.8578 17.9387 20.8578 21.7097C20.8578 26.2255 16.8885 31 11.0246 31C3.62695 31 0 25.2692 0 19.0592C0 5.60425 15.5966 -5 19.3285 -5Z"
        fill="#0E0B3A" />
</svg>
