<svg width="1019" height="504" viewBox="0 0 1019 504" fill="none" xmlns="http://www.w3.org/2000/svg">
<path d="M12 492C43.3333 485.922 95 472 120 449.5C149.062 423.344 181 387.031 254.5 389.988C328 392.945 444 332.821 511 241.158C578 149.495 624 171.179 696 160.337C768 149.495 773.5 57.3388 854 71.1376C918.4 82.1766 982.833 36.3121 1007 12" stroke="#1F35F0" stroke-width="6"/>
<circle cx="12" cy="492" r="10" fill="#1F35F0" stroke="white" stroke-width="4"/>
<circle cx="1007" cy="12" r="10" fill="#1F35F0" stroke="white" stroke-width="4"/>
<circle cx="204" cy="395" r="22" fill="#1ACBF5" stroke="white" stroke-width="4"/>
<path d="M179.786 359.51C181.524 357.244 182.382 356.276 182.382 354.824C182.382 353.064 181.15 352.448 179.984 352.448C178.752 352.448 177.432 353.196 177.432 355.132V355.528H174.968V354.912C174.968 352.294 176.75 350.16 180.028 350.16C183.064 350.16 184.956 352.03 184.956 354.494C184.956 356.628 183.57 358.146 182.338 359.708L179.082 363.822H184.956V366H174.77L179.786 359.51ZM194.855 366.22C190.587 366.22 186.935 362.986 186.935 358.19C186.935 353.394 190.587 350.16 194.855 350.16C199.123 350.16 202.775 353.394 202.775 358.19C202.775 362.986 199.123 366.22 194.855 366.22ZM189.421 358.19C189.421 361.622 191.907 363.932 194.855 363.932C197.781 363.932 200.289 361.622 200.289 358.19C200.289 354.758 197.781 352.448 194.855 352.448C191.907 352.448 189.421 354.758 189.421 358.19ZM209.542 359.51C211.28 357.244 212.138 356.276 212.138 354.824C212.138 353.064 210.906 352.448 209.74 352.448C208.508 352.448 207.188 353.196 207.188 355.132V355.528H204.724V354.912C204.724 352.294 206.506 350.16 209.784 350.16C212.82 350.16 214.712 352.03 214.712 354.494C214.712 356.628 213.326 358.146 212.094 359.708L208.838 363.822H214.712V366H204.526L209.542 359.51ZM224.611 366.22C220.343 366.22 216.691 362.986 216.691 358.19C216.691 353.394 220.343 350.16 224.611 350.16C228.879 350.16 232.531 353.394 232.531 358.19C232.531 362.986 228.879 366.22 224.611 366.22ZM219.177 358.19C219.177 361.622 221.663 363.932 224.611 363.932C227.537 363.932 230.045 361.622 230.045 358.19C230.045 354.758 227.537 352.448 224.611 352.448C221.663 352.448 219.177 354.758 219.177 358.19Z" fill="#0E0B3A"/>
<circle cx="816" cy="73" r="22" fill="#7314F2" stroke="white" stroke-width="4"/>
<path d="M794.786 37.51C796.524 35.244 797.382 34.276 797.382 32.824C797.382 31.064 796.15 30.448 794.984 30.448C793.752 30.448 792.432 31.196 792.432 33.132V33.528H789.968V32.912C789.968 30.294 791.75 28.16 795.028 28.16C798.064 28.16 799.956 30.03 799.956 32.494C799.956 34.628 798.57 36.146 797.338 37.708L794.082 41.822H799.956V44H789.77L794.786 37.51ZM809.855 44.22C805.587 44.22 801.935 40.986 801.935 36.19C801.935 31.394 805.587 28.16 809.855 28.16C814.123 28.16 817.775 31.394 817.775 36.19C817.775 40.986 814.123 44.22 809.855 44.22ZM804.421 36.19C804.421 39.622 806.907 41.932 809.855 41.932C812.781 41.932 815.289 39.622 815.289 36.19C815.289 32.758 812.781 30.448 809.855 30.448C806.907 30.448 804.421 32.758 804.421 36.19ZM824.542 37.51C826.28 35.244 827.138 34.276 827.138 32.824C827.138 31.064 825.906 30.448 824.74 30.448C823.508 30.448 822.188 31.196 822.188 33.132V33.528H819.724V32.912C819.724 30.294 821.506 28.16 824.784 28.16C827.82 28.16 829.712 30.03 829.712 32.494C829.712 34.628 828.326 36.146 827.094 37.708L823.838 41.822H829.712V44H819.526L824.542 37.51ZM836.487 37.51C838.225 35.244 839.083 34.276 839.083 32.824C839.083 31.064 837.851 30.448 836.685 30.448C835.453 30.448 834.133 31.196 834.133 33.132V33.528H831.669V32.912C831.669 30.294 833.451 28.16 836.729 28.16C839.765 28.16 841.657 30.03 841.657 32.494C841.657 34.628 840.271 36.146 839.039 37.708L835.783 41.822H841.657V44H831.471L836.487 37.51Z" fill="#0E0B3A"/>
</svg>
