<svg xmlns="http://www.w3.org/2000/svg" width="3990" height="1940" viewBox="0 0 3990 1940"
    fill="none">
    <path
        d="M3 1938.16C70 1846.49 116 1868.18 188 1857.34C217.208 1852.94 235.233 1835.66 252 1817C319 1725.34 365 1747.18 437 1736.34C466.208 1731.94 484.233 1714.66 501 1696C568 1604.34 614 1626.18 686 1615.34C715.208 1610.94 733.233 1593.66 750 1575C817 1483.34 863 1505.18 935 1494.34C964.208 1489.94 982.233 1472.66 999 1454C1066 1362.34 1112 1384.18 1184 1373.34C1213.21 1368.94 1231.23 1351.66 1248 1333C1315 1241.34 1361 1263.18 1433 1252.34C1462.21 1247.94 1480.23 1230.66 1497 1212C1564 1120.34 1610 1142.18 1682 1131.34C1711.21 1126.94 1729.23 1109.66 1746 1091C1813 999.337 1859 1021.18 1931 1010.34C1960.21 1005.94 1978.23 988.659 1995 970C2062 878.337 2108 900.179 2180 889.337C2209.21 884.939 2227.23 867.659 2244 849C2311 757.337 2357 779.179 2429 768.337C2458.21 763.939 2476.23 746.659 2493 728C2560 636.337 2606 658.179 2678 647.337C2707.21 642.939 2725.23 625.659 2742 607C2809 515.337 2855 537.179 2927 526.337C2956.21 521.939 2974.23 504.659 2991 486C3058 394.337 3104 416.179 3176 405.337C3205.21 400.939 3223.23 383.659 3240 365C3307 273.337 3353 295.179 3425 284.337C3454.21 279.939 3472.23 262.659 3489 244C3556 152.337 3602 174.179 3674 163.337C3703.21 158.939 3721.23 141.659 3738 123C3805 31.3367 3851 53.1787 3923 42.3368C3952.21 37.9386 3970.23 20.6592 3987 2"
        stroke="#1F35F0" stroke-width="6" />
</svg>
