<svg width="50" height="50" viewBox="0 0 50 50" fill="none" xmlns="http://www.w3.org/2000/svg">
<path fill-rule="evenodd" clip-rule="evenodd" d="M25 50C38.8071 50 50 38.8071 50 25C50 11.1929 38.8071 0 25 0C11.1929 0 0 11.1929 0 25C0 38.8071 11.1929 50 25 50ZM33.5 15.2C33.5 16.3004 33.9292 17.3042 34.6319 18.0532L29.9328 26.4546C29.7104 26.4182 29.4823 26.4 29.25 26.4C28.7641 26.4 28.2966 26.4812 27.8617 26.6296L24.2817 21.7366C24.7351 21.0674 25 20.2638 25 19.4C25 17.0816 23.096 15.2 20.75 15.2C18.404 15.2 16.5 17.0816 16.5 19.4C16.5 20.5326 16.9548 21.5602 17.6914 22.3148L13.0192 30.6686C12.7699 30.6238 12.5135 30.6 12.25 30.6C9.904 30.6 8 32.4816 8 34.8C8 37.1184 9.904 39 12.25 39C14.596 39 16.5 37.1184 16.5 34.8C16.5 33.757 16.1147 32.8008 15.4757 32.0658L20.2287 23.5692L20.75 23.6C21.1892 23.6 21.6128 23.5342 22.0108 23.4124L25.6446 28.3782C25.2366 29.0222 25 29.7838 25 30.6C25 32.9184 26.904 34.8 29.25 34.8C31.596 34.8 33.5 32.9184 33.5 30.6C33.5 29.5248 33.0906 28.5434 32.4177 27.8014L37.1394 19.3566C37.3392 19.386 37.5432 19.4 37.75 19.4C40.096 19.4 42 17.5184 42 15.2C42 12.8816 40.096 11 37.75 11C35.404 11 33.5 12.8816 33.5 15.2ZM30.6667 30.6C30.6667 29.8272 30.032 29.2 29.25 29.2C28.468 29.2 27.8333 29.8272 27.8333 30.6C27.8333 31.3728 28.468 32 29.25 32C30.032 32 30.6667 31.3728 30.6667 30.6ZM22.1667 19.4C22.1667 18.6272 21.532 18 20.75 18C19.968 18 19.3333 18.6272 19.3333 19.4C19.3333 20.1728 19.968 20.8 20.75 20.8C21.532 20.8 22.1667 20.1728 22.1667 19.4Z" fill="#1F35F0"/>
</svg>
