<svg width="3990" height="240" viewBox="27.701 0 4452.013 172.061" fill="none"
    xmlns="http://www.w3.org/2000/svg">
    <defs></defs>
    <path
        d="M 241.074 1043.05 C 308.701 952.873 355.132 974.21 427.806 963.546 C 457.288 959.218 475.482 942.22 492.405 923.864 C 560.033 833.697 606.464 855.181 679.139 844.517 C 708.621 840.189 726.814 823.191 743.738 804.835 C 811.366 714.668 857.797 736.153 930.471 725.488 C 959.953 721.16 978.146 704.162 995.07 685.806 C 1062.698 595.638 1109.128 617.122 1181.804 606.459 C 1211.285 602.13 1229.479 585.131 1246.403 566.775 C 1314.03 476.608 1360.461 498.093 1433.135 487.43 C 1462.619 483.101 1480.808 466.103 1497.735 447.747 C 1565.362 357.58 1611.793 379.064 1684.468 368.401 C 1713.952 364.073 1732.141 347.074 1749.067 328.718 C 1816.695 238.551 1863.126 260.035 1935.8 249.372 C 1965.283 245.044 1983.471 228.045 2000.399 209.689 C 2068.026 119.518 2114.457 141.005 2187.132 130.342 C 2216.616 126.014 2234.804 109.014 2251.732 90.659 C 2319.359 0.489 2365.789 21.975 2438.464 11.309 C 2467.947 6.983 2486.136 -10.015 2503.063 -28.37 C 2570.69 -118.54 2617.121 -97.053 2689.796 -107.72 C 2719.28 -112.046 2737.469 -129.044 2754.396 -147.399 C 2822.023 -237.569 2868.454 -216.082 2941.128 -226.748 C 2970.612 -231.075 2988.801 -248.073 3005.727 -266.428 C 3073.355 -356.599 3119.787 -335.112 3192.461 -345.778 C 3221.945 -350.105 3240.133 -367.104 3257.06 -385.459 C 3324.688 -475.628 3371.118 -454.142 3443.793 -464.807 C 3473.277 -469.133 3491.465 -486.132 3508.392 -504.487 C 3576.02 -594.657 3622.451 -573.171 3695.126 -583.836 C 3724.609 -588.162 3742.798 -605.161 3759.725 -623.516 C 3827.352 -713.686 3873.783 -692.2 3946.457 -702.865 C 3975.941 -707.191 3994.13 -724.19 4011.057 -742.545 C 4078.684 -832.716 4125.116 -811.23 4197.79 -821.895 C 4227.273 -826.221 4245.462 -843.219 4262.389 -861.575"
        stroke="#1F35F0" stroke-width="6" style=""
        transform="matrix(0.903747, 0.428067, -0.428067, 0.903747, 255.577636, -955.15829)"></path>
</svg>
