<svg width="1440" height="1109" viewBox="0 0 1440 1109" fill="none" xmlns="http://www.w3.org/2000/svg">
<g opacity="0.7">
<g opacity="0.2">
<rect x="63" width="1" height="1109" fill="#C1C7D2"/>
<rect x="164" width="1" height="1109" fill="#C1C7D2"/>
<rect x="265" width="1" height="1109" fill="#C1C7D2"/>
<rect x="366" width="1" height="1109" fill="#C1C7D2"/>
<rect x="467" width="1" height="1109" fill="#C1C7D2"/>
<rect x="568" width="1" height="1109" fill="#C1C7D2"/>
<rect x="669" width="1" height="1109" fill="#C1C7D2"/>
<rect x="770" width="1" height="1109" fill="#C1C7D2"/>
<rect x="871" width="1" height="1109" fill="#C1C7D2"/>
<rect x="972" width="1" height="1109" fill="#C1C7D2"/>
<rect x="1073" width="1" height="1109" fill="#C1C7D2"/>
<rect x="1174" width="1" height="1109" fill="#C1C7D2"/>
<rect x="1275" width="1" height="1109" fill="#C1C7D2"/>
<rect x="1376" width="1" height="1109" fill="#C1C7D2"/>
</g>
<g opacity="0.2">
<rect y="1071" width="1" height="1440" transform="rotate(-90 0 1071)" fill="#C1C7D2"/>
<rect y="970" width="1" height="1440" transform="rotate(-90 0 970)" fill="#C1C7D2"/>
<rect y="869" width="1" height="1440" transform="rotate(-90 0 869)" fill="#C1C7D2"/>
<rect y="768" width="1" height="1440" transform="rotate(-90 0 768)" fill="#C1C7D2"/>
<rect y="667" width="1" height="1440" transform="rotate(-90 0 667)" fill="#C1C7D2"/>
<rect y="566" width="1" height="1440" transform="rotate(-90 0 566)" fill="#C1C7D2"/>
<rect y="465" width="1" height="1440" transform="rotate(-90 0 465)" fill="#C1C7D2"/>
<rect y="364" width="1" height="1440" transform="rotate(-90 0 364)" fill="#C1C7D2"/>
<rect y="263" width="1" height="1440" transform="rotate(-90 0 263)" fill="#C1C7D2"/>
<rect y="162" width="1" height="1440" transform="rotate(-90 0 162)" fill="#C1C7D2"/>
<rect y="61" width="1" height="1440" transform="rotate(-90 0 61)" fill="#C1C7D2"/>
</g>
</g>
</svg>
