<svg xmlns="http://www.w3.org/2000/svg" width="241" height="235" viewBox="0 0 241 235" fill="none">
<path opacity="0.2" d="M117.533 0H117.55V0.00392144C129.126 0.00588216 140.313 1.68034 150.872 4.79984C152.561 5.29786 154.265 5.84686 155.981 6.439C164.666 9.44282 172.876 13.429 180.479 18.2602C181.015 18.5994 181.174 19.3092 180.836 19.8444C180.801 19.8974 180.76 19.9503 180.719 19.9974L172.309 30.7774C171.936 31.2558 171.257 31.3578 170.763 31.0225L170.744 31.0107C168.606 29.6912 166.397 28.4422 164.13 27.2677C161.845 26.0874 159.523 24.9933 157.168 23.9953L157.164 23.9933C144.992 18.8307 131.599 15.9759 117.531 15.9759H117.519V15.972C103.504 15.972 90.1436 18.817 77.9955 23.9541C76.0107 24.7933 74.0632 25.6913 72.1608 26.6423C62.3407 31.5519 53.4209 38.0164 45.7229 45.7122L45.7151 45.72L45.6621 45.7691C43.1086 48.3258 40.6903 51.0179 38.4211 53.8335C36.1382 56.6667 33.9985 59.6294 32.0235 62.7038C21.87 78.5072 15.9784 97.3144 15.9784 117.498V117.51H15.9745C15.9745 131.521 18.8203 144.878 23.9588 157.022C24.7982 159.008 25.6965 160.953 26.6477 162.855C31.5587 172.671 38.025 181.59 45.7249 189.286L45.7327 189.294L45.7759 189.339C48.3334 191.894 51.0301 194.313 53.8484 196.584C56.6825 198.868 59.6459 201.005 62.7232 202.98C78.5309 213.13 97.3453 219.02 117.533 219.02H117.544V219.026C131.563 219.024 144.92 216.181 157.068 211.044C159.055 210.205 161 209.307 162.903 208.356C172.723 203.446 181.644 196.982 189.34 189.286L189.35 189.276L189.409 189.219C191.959 186.664 194.375 183.976 196.642 181.165C198.927 178.331 201.065 175.367 203.04 172.292C213.195 156.489 219.085 137.682 219.085 117.5V117.48H219.091C219.089 109.012 218.047 100.773 216.084 92.8989C215.759 91.5871 215.415 90.3146 215.058 89.0833C213.172 82.5992 210.651 76.3798 207.578 70.4996C207.311 69.9918 207.464 69.3761 207.915 69.0467L218.783 60.4568C219.277 60.0647 219.997 60.149 220.387 60.645C220.422 60.6882 220.452 60.7352 220.477 60.7823H220.481L220.489 60.798L220.501 60.8215C221.797 63.1704 223.023 65.5762 224.163 68.0291C225.304 70.4839 226.361 72.9799 227.33 75.5073C232.325 88.55 235.063 102.71 235.063 117.502V117.514H235.059C235.057 133.731 231.766 149.187 225.82 163.24C224.857 165.52 223.817 167.773 222.705 169.99C217.012 181.372 209.532 191.694 200.639 200.585L200.631 200.593L200.588 200.633C197.623 203.595 194.498 206.397 191.231 209.03C187.95 211.675 184.521 214.146 180.966 216.43C162.667 228.179 140.891 235 117.531 235H117.519V234.996C101.297 234.994 85.8366 231.704 71.7803 225.759C69.4993 224.796 67.2458 223.755 65.0257 222.644C53.6425 216.954 43.3165 209.473 34.4221 200.585L34.4143 200.576L34.3594 200.519C31.4018 197.558 28.6031 194.441 25.975 191.18C23.3312 187.9 20.858 184.472 18.5751 180.918C6.82323 162.62 0 140.852 0 117.5V117.486H0.00392253C0.00588379 101.269 3.29688 85.8148 9.24147 71.7604C10.2064 69.48 11.2459 67.2291 12.3579 65.0076C18.0495 53.6276 25.5317 43.3064 34.4221 34.4145L34.43 34.4067L34.481 34.3616C37.4425 31.4029 40.5668 28.601 43.8283 25.9717C47.1115 23.3286 50.5378 20.8562 54.0956 18.5739C72.4 6.81938 94.174 0 117.533 0ZM182.529 31.9578L215.419 0.539198L217.61 21.7287L241 24.6521L205.78 58.7706L188.642 60.2411L120.257 123.827L113.955 118.402L178.73 50.7571L182.529 31.9578ZM117.533 80.3071H117.562V80.3111C119.774 80.313 121.928 80.5032 124.001 80.8679C124.242 80.911 124.583 80.9757 125.015 81.064H125.021C126.747 81.4169 128.437 81.8934 130.079 82.4816C130.675 82.6933 130.985 83.3482 130.771 83.9443C130.73 84.0619 130.667 84.1678 130.595 84.2619L130.597 84.2639L121.416 96.036C121.159 96.3674 120.751 96.5144 120.361 96.4635V96.4674L120.308 96.4595L119.9 96.4125L119.865 96.4066L119.512 96.3693L119.482 96.3654C118.87 96.3125 118.221 96.2831 117.533 96.2831H117.521V96.2772C114.597 96.2791 111.804 96.8752 109.266 97.9497C108.846 98.1281 108.438 98.3163 108.048 98.5104C106.004 99.532 104.141 100.883 102.527 102.497L102.519 102.504L102.466 102.551C101.948 103.073 101.458 103.624 100.995 104.198C100.519 104.789 100.071 105.41 99.6577 106.053C97.5395 109.351 96.3117 113.283 96.3117 117.498V117.51H96.3059C96.3078 120.437 96.904 123.227 97.9788 125.762C98.1573 126.184 98.3456 126.592 98.5397 126.98C99.5616 129.025 100.915 130.886 102.527 132.498L102.535 132.507L102.582 132.556C103.104 133.074 103.655 133.568 104.229 134.029C104.82 134.505 105.441 134.954 106.085 135.368C109.386 137.484 113.318 138.713 117.533 138.713H117.544V138.717C120.473 138.717 123.265 138.121 125.799 137.046C126.221 136.868 126.627 136.68 127.017 136.486C129.063 135.462 130.924 134.111 132.536 132.498L132.546 132.488L132.585 132.451C132.872 132.162 133.15 131.87 133.407 131.582C133.664 131.294 133.933 130.97 134.207 130.621C135.537 128.935 136.618 127.045 137.386 125.012C137.475 124.774 137.634 124.582 137.832 124.455L152.667 112.726C153.163 112.334 153.881 112.418 154.273 112.914C154.41 113.088 154.487 113.29 154.51 113.496H154.516L154.526 113.584L154.53 113.645L154.577 114.135V114.149H154.581L154.624 114.682V114.692C154.693 115.633 154.732 116.569 154.732 117.498V117.51H154.726C154.724 122.641 153.683 127.531 151.802 131.978C151.5 132.694 151.168 133.407 150.815 134.115C149.009 137.721 146.644 140.989 143.833 143.797L143.825 143.805L143.763 143.858C142.837 144.779 141.864 145.656 140.85 146.474C139.811 147.309 138.724 148.093 137.602 148.813C131.809 152.53 124.921 154.689 117.531 154.689H117.519V154.683C112.386 154.681 107.495 153.64 103.049 151.76C102.333 151.458 101.617 151.126 100.911 150.773C97.3041 148.968 94.0347 146.603 91.2262 143.795L91.2183 143.787L91.1536 143.717C90.2358 142.793 89.3649 141.823 88.5491 140.811C87.7116 139.772 86.9291 138.688 86.2073 137.564C82.4888 131.774 80.3294 124.886 80.3294 117.5V117.486H80.3333C80.3353 112.357 81.3787 107.467 83.2576 103.022C83.5616 102.306 83.8911 101.593 84.2441 100.885C86.0465 97.285 88.4118 94.0184 91.2242 91.2068L91.2262 91.2048L91.2242 91.2028L91.2321 91.195C92.1637 90.2656 93.158 89.3735 94.2093 88.5265C95.2487 87.6892 96.3333 86.9069 97.4571 86.1854C103.255 82.4659 110.146 80.3071 117.533 80.3071ZM119.48 96.3654C118.878 96.2909 118.439 95.7576 118.476 95.1537L119.48 96.3654ZM117.533 39.8222H117.552V39.8261C124.503 39.8281 131.236 40.7418 137.632 42.4496C138.673 42.728 139.709 43.028 140.734 43.3495C146 44.9926 151.033 47.1886 155.76 49.865C156.309 50.1768 156.503 50.8767 156.191 51.4257C156.162 51.4728 156.132 51.5218 156.097 51.5649L156.091 51.5708L147.571 62.496C147.214 62.9508 146.581 63.0646 146.094 62.7842L146.067 62.7705C144.914 62.1685 143.712 61.5862 142.462 61.0372C141.205 60.4823 139.942 59.9725 138.675 59.5098C132.087 57.1059 124.964 55.7942 117.531 55.7942H117.519V55.7903C109.001 55.7903 100.883 57.5216 93.4993 60.6431C92.3343 61.1372 91.1497 61.6842 89.9533 62.2803L89.8631 62.3215C83.9342 65.2998 78.5447 69.2114 73.8867 73.8662L73.8788 73.874L73.8337 73.9191C72.2902 75.4661 70.8251 77.1014 69.4503 78.8072C68.0637 80.5287 66.7634 82.3306 65.5631 84.1992C59.3949 93.8028 55.8156 105.234 55.8156 117.498V117.51H55.8117C55.8117 126.025 57.5435 134.143 60.6658 141.523C61.1757 142.731 61.7229 143.915 62.2995 145.068C65.2826 151.03 69.213 156.45 73.8925 161.128L73.9004 161.136C75.4733 162.71 77.1227 164.193 78.833 165.569C80.555 166.955 82.3574 168.255 84.2264 169.455C93.8327 175.624 105.269 179.2 117.535 179.2H117.546V179.204C126.064 179.204 134.184 177.474 141.568 174.353C142.776 173.841 143.961 173.296 145.114 172.718C151.078 169.736 156.499 165.808 161.179 161.128L161.186 161.12C162.761 159.546 164.244 157.899 165.621 156.189C167.007 154.465 168.308 152.665 169.508 150.795C175.68 141.189 179.259 129.758 179.259 117.498H179.256V117.469H179.259C179.259 113.663 178.91 109.93 178.247 106.31C178.147 105.769 178.03 105.177 177.894 104.547C177.253 101.538 176.392 98.6183 175.339 95.8105C175.151 95.3066 175.339 94.7537 175.764 94.4635L186.871 85.6834C187.367 85.2913 188.085 85.3756 188.475 85.8717C188.534 85.9481 188.581 86.0246 188.619 86.1069L188.628 86.1265L188.636 86.1422L188.638 86.1403C189.217 87.452 189.774 88.8167 190.305 90.2303C190.829 91.6264 191.311 93.0283 191.745 94.4321C194.01 101.724 195.232 109.471 195.232 117.496V117.508H195.226C195.226 128.227 193.051 138.444 189.121 147.732C188.485 149.236 187.795 150.726 187.059 152.197C183.296 159.722 178.351 166.545 172.473 172.42L172.464 172.428L172.421 172.469C170.463 174.42 168.404 176.271 166.25 178.006C164.081 179.755 161.814 181.388 159.464 182.896C147.363 190.664 132.97 195.172 117.531 195.172H117.519C106.797 195.17 96.5765 192.996 87.2841 189.066C85.7798 188.429 84.2892 187.741 82.8183 187.006C75.2929 183.241 68.4657 178.3 62.5878 172.424L62.58 172.416L62.5251 172.357C60.5775 170.406 58.732 168.351 57.0021 166.202C55.2527 164.034 53.619 161.767 52.1088 159.418C44.3383 147.323 39.8293 132.931 39.8293 117.498V117.486H39.8333C39.8352 106.767 42.0122 96.5497 45.9426 87.2598C46.578 85.756 47.2664 84.2658 48.0019 82.7953C51.7636 75.2759 56.708 68.4546 62.5859 62.5763L62.5878 62.5744L62.5859 62.5724L62.5937 62.5646L62.6447 62.5175C64.5981 60.5666 66.6574 58.7196 68.807 56.9883C70.9781 55.2393 73.2434 53.6061 75.593 52.0983C87.6979 44.3299 102.096 39.8222 117.533 39.8222Z" fill="white"/>
</svg>
