<svg width="48" height="48" viewBox="0 0 48 48" fill="none" xmlns="http://www.w3.org/2000/svg">
<mask id="mask0_751_5956" style="mask-type:alpha" maskUnits="userSpaceOnUse" x="4" y="4" width="40" height="40">
<path d="M24 44C35.0457 44 44 35.0457 44 24C44 12.9543 35.0457 4 24 4C12.9543 4 4 12.9543 4 24C4 35.0457 12.9543 44 24 44Z" fill="#F0F0F0"/>
</mask>
<g mask="url(#mask0_751_5956)">
<path fill-rule="evenodd" clip-rule="evenodd" d="M4 4H44V31.2H4V4Z" fill="#002079"/>
<path fill-rule="evenodd" clip-rule="evenodd" d="M4 31.6001H44V44.0001H4V31.6001Z" fill="#C3010D"/>
<path fill-rule="evenodd" clip-rule="evenodd" d="M3.97852 31.2707C4.21704 37.1936 12.5642 37.0305 17.968 39.4887C19.9868 40.4071 22.2719 41.5602 23.9972 44.0001C25.2471 42.2384 26.9745 40.8085 29.9876 39.4994C35.5219 37.0945 43.8819 36.9709 44.0685 31.1753L36.5731 24.6763H11.4977L3.97852 31.2707Z" fill="#C3010D"/>
<path fill-rule="evenodd" clip-rule="evenodd" d="M10.4324 29.2304C9.3171 29.2593 8.62853 29.729 8.10718 30.1071C7.42738 30.6822 4.45265 31.4401 3.75 31.1813C4.0306 32.1133 3.71971 32.5275 3.80362 32.761C5.01214 33.1855 7.61962 32.6219 8.66958 31.8915C9.20775 31.5012 9.56859 31.2079 10.5413 31.2079C11.514 31.2079 11.8748 31.5012 12.413 31.8915C12.9511 32.2818 13.6671 32.7682 14.8471 32.7682C16.027 32.7682 16.7408 32.2818 17.2789 31.8915C17.8171 31.5012 18.1802 31.2079 19.1529 31.2079C20.1256 31.2079 20.4864 31.5012 21.0246 31.8915C21.5627 32.2818 22.2765 32.7682 23.4564 32.7682C24.6364 32.7682 25.3524 32.2818 25.8905 31.8915C26.4287 31.5012 26.7895 31.2079 27.7622 31.2079C28.7349 31.2079 29.0958 31.5012 29.6339 31.8915C30.1721 32.2818 30.8881 32.7682 32.068 32.7682C33.248 32.7682 33.964 32.2818 34.5021 31.8915C35.0403 31.5012 35.4011 31.2079 36.3738 31.2079C37.3465 31.2079 37.7073 31.5012 38.2455 31.8915C38.7837 32.2818 39.4996 32.7682 40.6796 32.7682C41.8596 32.7682 43.048 32.7542 43.5861 32.3639C44.4611 32.3788 44.4179 30.8086 43.0237 30.5796C42.4856 30.9699 41.6523 30.7907 40.6796 30.7907C39.7069 30.7907 39.3461 30.4974 38.8079 30.1071C38.2697 29.7168 37.5538 29.2304 36.3738 29.2304C35.1938 29.2304 34.4779 29.7168 33.9397 30.1071C33.4015 30.4974 33.0407 30.7907 32.068 30.7907C31.0953 30.7907 30.7345 30.4974 30.1963 30.1071C29.6582 29.7168 28.9422 29.2304 27.7622 29.2304C26.5823 29.2304 25.8663 29.7168 25.3281 30.1071C24.79 30.4974 24.4291 30.7907 23.4564 30.7907C22.4837 30.7907 22.1229 30.4974 21.5847 30.1071C21.0466 29.7168 20.3328 29.2304 19.1529 29.2304C17.9729 29.2304 17.2569 29.7168 16.7188 30.1071C16.1806 30.4974 15.8198 30.7907 14.8471 30.7907C13.8744 30.7907 13.5135 30.4974 12.9754 30.1071C12.4372 29.7168 11.7212 29.2304 10.5413 29.2304C10.5044 29.2304 10.4683 29.2295 10.4324 29.2304Z" fill="white"/>
<path fill-rule="evenodd" clip-rule="evenodd" d="M10.4337 34.0619C9.31849 34.0908 8.62991 34.5606 8.10857 34.9387C7.5704 35.329 7.20956 35.6223 6.23687 35.6223C5.26418 35.6223 4.90334 35.329 4.36517 34.9387C3.84734 34.5631 3.1665 34.1004 2.06445 34.0658V36.0394C2.93853 36.0652 3.29206 36.351 3.805 36.723C4.34316 37.1133 5.05691 37.5998 6.23687 37.5998C7.41683 37.5998 8.13281 37.1133 8.67097 36.723C9.20913 36.3327 9.56997 36.0394 10.5427 36.0394C11.5154 36.0394 11.8762 36.3327 12.4144 36.723C12.9525 37.1133 13.6685 37.5998 14.8485 37.5998C16.0284 37.5998 16.7422 37.1133 17.2803 36.723C17.8185 36.3327 18.1816 36.0394 19.1542 36.0394C20.1269 36.0394 20.4878 36.3327 21.0259 36.723C21.5641 37.1133 22.2779 37.5998 23.4578 37.5998C24.6378 37.5998 25.3538 37.1133 25.8919 36.723C26.4301 36.3327 26.7909 36.0394 27.7636 36.0394C28.7363 36.0394 29.0972 36.3327 29.6353 36.723C30.1735 37.1133 30.8894 37.5998 32.0694 37.5998C33.2494 37.5998 33.9653 37.1133 34.5035 36.723C35.0417 36.3327 35.4025 36.0394 36.3752 36.0394C37.3479 36.0394 37.7087 36.3327 38.2469 36.723C38.785 37.1133 39.501 37.5998 40.681 37.5998C41.8609 37.5998 42.5769 37.1133 43.1151 36.723C43.6059 36.367 43.9498 36.0928 44.7445 36.0471V34.0697C43.7068 34.1306 43.053 34.5758 42.5527 34.9387C42.0145 35.329 41.6537 35.6223 40.681 35.6223C39.7083 35.6223 39.3474 35.329 38.8093 34.9387C38.2711 34.5484 37.5551 34.0619 36.3752 34.0619C35.1952 34.0619 34.4793 34.5484 33.9411 34.9387C33.4029 35.329 33.0421 35.6223 32.0694 35.6223C31.0967 35.6223 30.7359 35.329 30.1977 34.9387C29.6595 34.5484 28.9436 34.0619 27.7636 34.0619C26.5836 34.0619 25.8677 34.5484 25.3295 34.9387C24.7914 35.329 24.4305 35.6223 23.4578 35.6223C22.4851 35.6223 22.1243 35.329 21.5861 34.9387C21.048 34.5484 20.3342 34.0619 19.1543 34.0619C17.9743 34.0619 17.2583 34.5484 16.7202 34.9387C16.182 35.329 15.8211 35.6223 14.8485 35.6223C13.8758 35.6223 13.5149 35.329 12.9768 34.9387C12.4386 34.5484 11.7226 34.0619 10.5427 34.0619C10.5058 34.0619 10.4697 34.061 10.4337 34.0619Z" fill="white"/>
<path fill-rule="evenodd" clip-rule="evenodd" d="M33.573 15.7342H31.9324V17.4476H28.9948V15.7847L28.0966 15.7837V10.3407L29.1525 9.3238V6.0415H27.123V7.44958H25.2803V6.0415H22.7631V7.44958H20.9204V6.0415H18.8909V9.3238L19.9469 10.3407V15.7837L19.0487 15.7847V17.4476H16.1111V15.7342H14.4705V13.8487L13.266 12.4937L12.0107 13.8229V18.5351L12.7964 19.4687L11.498 24.6736H36.5456L35.247 19.4687L36.0328 18.5351V13.8229L34.7774 12.4937L33.573 13.8487V15.7342Z" fill="white"/>
<path d="M21.0794 19.4609V20.8087H21.4832V19.9072C21.3557 19.7372 21.2494 19.5884 21.0794 19.4609ZM20.5907 19.1593V20.8087H20.9944V19.3931C20.8623 19.2846 20.7439 19.2103 20.5907 19.1593ZM20.0382 20.8087H20.5057L20.5098 19.1249C20.361 19.0612 20.1869 19.0196 20.0382 19.0187L20.0382 20.8087ZM26.5827 23.9538V24.6338H26.9446V23.9538H26.5827ZM27.0296 24.6338H27.4334V23.9538H27.0296V24.6338ZM27.5184 24.6338H28.0071V23.9538H27.5184V24.6338ZM26.9446 21.3825H26.5827V23.3712H26.9446V21.3825ZM27.4334 21.3825H27.0296V23.3712H27.4334V21.3825ZM28.0071 23.3712V21.3825H27.5184V23.3712H28.0071ZM26.9658 19.4487C26.7958 19.5762 26.7102 19.7249 26.5827 19.895V20.8087H26.9658V19.4487ZM27.4334 19.1512C27.3058 19.2149 27.1571 19.2999 27.0508 19.3849V20.8087H27.4334V19.1512ZM28.0071 20.8087V19.0187C27.8371 19.04 27.6671 19.0653 27.5184 19.129V20.8087L28.0071 20.8087ZM28.0071 23.8688V23.4438H27.8584V23.8688H28.0071ZM28.0071 21.2975V20.8937H27.8584V21.2975H28.0071ZM28.9421 24.6338V22.955H28.5384V24.6338H28.9421ZM28.4534 24.6338V19.0024H28.0883V24.6338H28.4534ZM28.5297 22.8736H30.8972V20.8512H28.5384L28.5297 22.8736ZM34.4248 19.5124L33.8386 18.8962H32.8522V20.7662H35.5511C35.4448 20.3412 35.3386 19.9375 35.2111 19.5124H34.4248ZM35.5511 20.8512H34.2973L34.2886 22.8736H36.0311C35.8611 22.1936 35.7211 21.5312 35.5511 20.8512ZM35.2323 19.4186L35.9548 18.5562H33.6598L34.4593 19.4186H35.2323ZM30.9822 22.8736H34.2036L34.2123 20.8512H30.9822L30.9822 22.8736ZM32.7672 18.8962H29.0272V20.7662H32.7672V18.8962ZM32.7672 24.6338V22.955H29.0272V24.6338H32.7672ZM23.9695 10.6509H20.0025V12.3398H23.9695V10.6509ZM24.0545 10.5659H28.0496V10.4009L24.0545 10.3921V10.5659ZM23.9695 10.3921H20.0025V10.5659H23.9695V10.3921ZM24.0545 10.3109H28.0708L29.0696 9.35466H24.0545V10.3109ZM23.9695 9.35466L18.9902 9.34739L19.9677 10.3037L23.9695 10.3109L23.9695 9.35466ZM25.2445 6.0821H22.8007V7.48463H20.8669V6.0821H18.9332V9.26966H29.1121V6.0821H27.157V7.48463H25.2445L25.2445 6.0821ZM36.5999 24.7158H11.4453C11.9371 22.9843 12.263 21.2119 12.7515 19.4796L11.9697 18.5507V13.8066L13.2678 12.4321L14.5393 13.8332V15.6927H16.1799V17.4061H18.9815V15.7433L19.9059 15.7423V10.3589L18.8499 9.34193V6H20.9631V7.40806H22.7221V6H25.323V7.40806H27.082V6H29.1952V9.34193L28.1393 10.3589V15.7423L29.0375 15.7433V17.4061H31.8914V15.6927H33.5109V13.8332L34.7774 12.4321L36.0754 13.8066V18.5507L35.2937 19.4796C35.7821 21.2119 36.1081 22.9843 36.5999 24.7158ZM24.0544 12.3398H28.0495V10.6509H24.0544V12.3398ZM20.0024 14.9436H23.9694V12.436H20.0024V14.9436ZM24.0544 14.9436H28.0495V12.436H24.0544V14.9436ZM33.6645 13.796H35.9547L34.7824 12.569L33.6645 13.796ZM33.5959 18.4711H35.9972V13.881H33.5959V18.4711ZM24.0545 18.4711H33.5109V15.7723H31.9858V17.4936H28.9421V15.8322H26.2858V15.7423H28.0496V15.0285H24.0545V17.3751H24.8832V17.4724H24.0545V18.4711ZM23.9695 17.4724H23.1407V17.3751H23.9695V15.0285H20.0025V15.7423H21.7382V15.8322H19.0819V17.4936H16.0856V15.7723H14.5343V18.4711H23.9695L23.9695 17.4724ZM14.4493 18.4711V13.881H12.0693V18.4711H14.4493ZM14.3891 13.796L13.27 12.5585L12.0978 13.8033L14.3891 13.796ZM12.8307 19.4186H13.5993L14.4068 18.5561H12.1029L12.8307 19.4186ZM13.6205 19.5124H12.8343C12.728 19.9374 12.6218 20.3412 12.5155 20.7662H15.1931V18.8962H14.2156L13.6205 19.5124ZM14.5343 18.5561L14.3006 18.8112H23.0982C23.2682 18.7262 23.4382 18.6837 23.6082 18.6412L23.5921 18.5561H14.5343ZM17.0844 22.8646V20.8512H13.8509V22.8646H17.0844ZM12.4943 20.8512C12.3243 21.5312 12.1755 22.1845 12.0055 22.8646H13.7693V20.8512H12.4943ZM11.9843 22.955C11.8568 23.5288 11.7292 24.0813 11.5592 24.6338H15.2568V22.955H11.9843ZM15.3418 24.6338H19.0181V22.955H15.3418V24.6338ZM19.5069 22.8646V20.8512H17.1659V22.8646H19.5069ZM15.2781 18.8961V20.7662H19.0181V18.8961H15.2781ZM21.5469 24.6338H26.4983V23.9538H25.6695V23.3711H26.4983V21.3825H25.6695V20.8087H25.9245C26.0308 20.5962 26.0945 20.4687 26.2008 20.2774C25.9245 19.4912 25.2155 18.8723 24.4079 18.7236L24.323 19.1724L24.2457 19.1512L24.352 18.5561H23.672L23.7782 19.1724L23.7068 19.1776L23.6217 18.7261C23.4517 18.7474 23.2894 18.8111 23.1194 18.8749C22.5032 19.1724 22.1207 19.6187 21.8444 20.2987C21.9507 20.4899 22.0144 20.5962 22.0994 20.8087H22.3544V21.3825H21.5469V23.3711H22.3544V23.9538H21.5469L21.5469 24.6338ZM19.1031 18.8961V20.7662H19.5069V18.9174L19.9677 18.9284C20.777 18.9479 21.3373 19.4489 21.7807 20.2137C21.9719 19.7037 22.3969 19.1724 22.9282 18.8961L19.1031 18.8961ZM19.588 24.6338H19.9531V19.0065L19.588 18.9977V24.6338ZM19.1031 24.6338H19.5069V22.955H19.1031V24.6338ZM36.061 22.955H32.8522V24.6338H36.486C36.3373 24.0813 36.1885 23.5288 36.061 22.955ZM21.4619 23.9538H21.0794V24.6338H21.4619V23.9538ZM20.9944 24.6338V23.9538H20.6119V24.6338H20.9944ZM20.5269 24.6338V23.9538H20.0381V24.6338H20.5269ZM20.0381 23.8688H20.1869V23.4438H20.0381V23.8688ZM20.0381 23.3711H20.5269V21.3825H20.0381V23.3711ZM20.0381 21.2975H20.1869V20.8937H20.0381V21.2975ZM21.5682 20.0012V20.8087H22.0144C21.8869 20.5325 21.7382 20.2562 21.5682 20.0012ZM20.6119 21.3825V23.3712H20.9944V21.3825H20.6119ZM21.0794 21.3825V23.3712H21.4619V21.3825H21.0794ZM22.2694 20.8937H20.2595V21.2975H22.2694V20.8937ZM22.2694 23.4438H20.2595V23.8688H22.2694V23.4438ZM25.7545 20.8937V21.2975H27.7733V20.8937H25.7545ZM25.7545 23.4438V23.8688H27.7733V23.4438H25.7545ZM28.9421 18.8962H25.0957C25.6483 19.1724 26.0733 19.6612 26.2645 20.1924C26.7705 19.3579 27.2539 18.9919 28.0905 18.9213L28.5383 18.9174V20.7662H28.9421L28.9421 18.8962ZM26.4983 20.0012C26.307 20.2562 26.1583 20.5325 26.0308 20.8087H26.4983V20.0012ZM33.5322 18.5562H24.437L24.4235 18.6412C24.6148 18.6837 24.777 18.7262 24.9258 18.8112H33.7748L33.5322 18.5562Z" fill="#1F1A17"/>
<path fill-rule="evenodd" clip-rule="evenodd" d="M22.0465 17.4721H23.1703V14.9824H21.7341V15.8205H22.0455L22.0465 17.4721ZM26.0547 17.4721H24.8611L24.8626 14.9824H26.3101L26.311 15.8205H26.0545L26.0547 17.4721ZM21.7341 11.3418H23.1703V13.6799H21.7341V11.3418ZM24.8748 11.3418H26.311V13.6799H24.8748V11.3418ZM12.8906 14.448H13.6132V16.6368H12.8906V14.448ZM34.4318 14.448H35.1545V16.6368H34.4318V14.448Z" fill="#1F1A17"/>
<path fill-rule="evenodd" clip-rule="evenodd" d="M25.2068 24.6608L22.8223 24.6607L22.8279 21.0752C22.83 19.7245 25.0912 19.5505 25.2068 21.0165V24.6608Z" fill="#002079"/>
<path fill-rule="evenodd" clip-rule="evenodd" d="M22.8539 24.6771V21.0898C22.8539 19.7445 25.0712 19.5714 25.1844 21.0313V24.6771L25.9325 24.6761V23.9459H25.6753V23.3791H25.9325V21.3756H25.6754V20.8141H25.928C25.8225 19.7466 25.0247 19.228 24.2612 19.1553C24.1935 19.1489 24.125 19.1458 24.058 19.146C23.96 19.1465 23.8629 19.1538 23.7689 19.1669C22.9921 19.2761 22.3474 19.8288 22.1016 20.8142H22.3514V21.3755H22.0938V23.3764H22.3508V23.947H22.0938V24.6771L22.8539 24.6771Z" fill="#1F1A17"/>
<path fill-rule="evenodd" clip-rule="evenodd" d="M12.6101 28.9081L14.5215 29.7179C14.5224 29.8816 14.5016 30.0393 14.7501 30.1735C15.1093 30.3678 15.9509 30.8345 16.5386 31.3388C16.799 33.819 18.4877 35.75 21.9003 37.0181C23.2628 35.8785 24.7441 35.8248 26.1736 37.0181C27.5525 36.5788 29.0514 36.0847 30.2196 35.1997L33.3846 35.203C33.3247 34.0002 32.8973 33.363 32.3028 32.9826C32.8255 32.2609 33.0532 31.4875 33.0381 30.6087H34.1227V29.9548L33.4606 29.3899H30.8747L30.323 29.9548V30.6087H31.0204C26.4442 34.3837 22.4676 33.0947 18.6197 30.4372L18.6193 30.4368C18.1514 30.0566 17.6186 29.5305 17.3191 29.0213L12.6094 28.4185L12.6101 28.9081Z" fill="#E7B400"/>
<path fill-rule="evenodd" clip-rule="evenodd" d="M22.0092 33.5278C22.2025 33.5278 22.3601 33.6855 22.3601 33.8788C22.3601 34.0721 22.2025 34.2299 22.0092 34.2299C21.8158 34.2299 21.6582 34.0721 21.6582 33.8788C21.6582 33.6855 21.8158 33.5278 22.0092 33.5278Z" fill="white"/>
<path d="M22.0078 33.4883H22.0084C22.1156 33.4884 22.2133 33.5325 22.284 33.6032C22.3542 33.6737 22.3981 33.7708 22.3984 33.8776V33.8795C22.3982 33.9869 22.3541 34.0846 22.2836 34.1551H22.2835C22.213 34.2255 22.1158 34.2693 22.009 34.2696H22.0072C21.8999 34.2694 21.8022 34.2253 21.7316 34.1545C21.6614 34.0842 21.6175 33.987 21.6172 33.8801V33.8783C21.6173 33.771 21.6614 33.6733 21.7321 33.6026C21.8025 33.5325 21.8996 33.4886 22.0066 33.4883H22.0078ZM22.0084 33.5676H22.0065C21.9214 33.5678 21.8439 33.6028 21.7879 33.6587C21.7316 33.7149 21.6966 33.7927 21.6965 33.8783V33.8801C21.6967 33.9652 21.7317 34.0428 21.7876 34.0988C21.8438 34.1551 21.9216 34.1902 22.0072 34.1903H22.009C22.094 34.19 22.1715 34.1551 22.2276 34.0992L22.2276 34.0991C22.2839 34.0428 22.319 33.965 22.3191 33.8795V33.8777C22.3189 33.7926 22.2839 33.715 22.2279 33.659C22.1718 33.6027 22.094 33.5677 22.0084 33.5676Z" fill="#1F1A17"/>
<path fill-rule="evenodd" clip-rule="evenodd" d="M20.31 33.9561C20.5033 33.9561 20.6609 34.1137 20.6609 34.307C20.6609 34.5004 20.5033 34.6581 20.31 34.6581C20.1166 34.6581 19.959 34.5004 19.959 34.307C19.959 34.1137 20.1166 33.9561 20.31 33.9561Z" fill="white"/>
<path d="M20.3105 33.916H20.3111C20.4184 33.9162 20.5161 33.9602 20.5867 34.031C20.657 34.1014 20.7008 34.1985 20.7011 34.3054V34.3072C20.701 34.4146 20.6569 34.5123 20.5864 34.5829H20.5862C20.5157 34.6532 20.4185 34.697 20.3118 34.6973H20.31C20.2026 34.6972 20.105 34.6531 20.0343 34.5823C19.9641 34.5119 19.9203 34.4147 19.9199 34.3079V34.3061C19.9201 34.1987 19.9641 34.1011 20.0349 34.0304C20.1052 33.9602 20.2024 33.9164 20.3093 33.916H20.3105ZM20.3111 33.9953H20.3093C20.2241 33.9956 20.1466 34.0306 20.0906 34.0864C20.0344 34.1427 19.9993 34.2205 19.9992 34.3061V34.3079C19.9995 34.393 20.0345 34.4705 20.0903 34.5266C20.1466 34.5828 20.2244 34.6179 20.31 34.618H20.3118C20.3968 34.6178 20.4742 34.5829 20.5304 34.5269L20.5303 34.5268C20.5866 34.4705 20.6217 34.3927 20.6218 34.3072V34.3054C20.6216 34.2203 20.5866 34.1427 20.5306 34.0867C20.4746 34.0305 20.3967 33.9954 20.3111 33.9953Z" fill="#1F1A17"/>
<path fill-rule="evenodd" clip-rule="evenodd" d="M20.7787 35.1709C20.972 35.1709 21.1297 35.3285 21.1297 35.5219C21.1297 35.7152 20.972 35.8729 20.7787 35.8729C20.5854 35.8729 20.4277 35.7152 20.4277 35.5219C20.4277 35.3285 20.5854 35.1709 20.7787 35.1709Z" fill="white"/>
<path d="M20.7793 35.1313H20.7798C20.8871 35.1315 20.9848 35.1755 21.0554 35.2463C21.1257 35.3167 21.1696 35.4139 21.1699 35.5207V35.5225C21.1697 35.63 21.1256 35.7277 21.0551 35.7982H21.0549C20.9845 35.8686 20.8873 35.9123 20.7805 35.9127H20.7787C20.6714 35.9125 20.5737 35.8684 20.503 35.7976C20.4328 35.7273 20.389 35.63 20.3887 35.5232V35.5214C20.3888 35.414 20.4328 35.3164 20.5036 35.2457C20.574 35.1755 20.6711 35.1317 20.778 35.1313H20.7793ZM20.7798 35.2107H20.778C20.6929 35.2109 20.6154 35.2459 20.5593 35.3018C20.5031 35.358 20.4681 35.4358 20.468 35.5214V35.5232C20.4682 35.6083 20.5032 35.6858 20.5591 35.7419C20.6153 35.7981 20.6931 35.8333 20.7787 35.8333H20.7805C20.8655 35.8331 20.943 35.7982 20.9991 35.7422L20.9991 35.7422C21.0554 35.6859 21.0905 35.608 21.0906 35.5225V35.5207C21.0903 35.4356 21.0554 35.3581 20.9994 35.302C20.9433 35.2458 20.8654 35.2107 20.7798 35.2107Z" fill="#1F1A17"/>
<path fill-rule="evenodd" clip-rule="evenodd" d="M22.6478 34.8755C22.8412 34.8755 22.9988 35.0331 22.9988 35.2265C22.9988 35.4198 22.8412 35.5775 22.6478 35.5775C22.4545 35.5775 22.2969 35.4198 22.2969 35.2265C22.2969 35.0331 22.4545 34.8755 22.6478 34.8755Z" fill="white"/>
<path d="M22.6484 34.8359H22.649C22.7562 34.8361 22.854 34.8801 22.9246 34.9509C22.9949 35.0213 23.0387 35.1185 23.039 35.2253V35.2271C23.0389 35.3345 22.9948 35.4323 22.9242 35.5028H22.9241C22.8536 35.5731 22.7564 35.6169 22.6497 35.6172H22.6479C22.5405 35.6171 22.4429 35.573 22.3722 35.5022C22.302 35.4318 22.2581 35.3346 22.2578 35.2278V35.226C22.258 35.1186 22.302 35.021 22.3728 34.9503C22.4431 34.8801 22.5403 34.8363 22.6472 34.8359H22.6484ZM22.649 34.9152H22.6472C22.562 34.9155 22.4845 34.9505 22.4285 35.0064C22.3723 35.0626 22.3372 35.1404 22.3371 35.226V35.2278C22.3374 35.3129 22.3723 35.3904 22.4282 35.4465C22.4844 35.5027 22.5623 35.5378 22.6478 35.5379H22.6497C22.7347 35.5377 22.8121 35.5028 22.8683 35.4468L22.8682 35.4467C22.9245 35.3904 22.9596 35.3126 22.9597 35.2271V35.2253C22.9595 35.1402 22.9245 35.0627 22.8685 35.0066C22.8125 34.9504 22.7346 34.9153 22.649 34.9152Z" fill="#1F1A17"/>
<path fill-rule="evenodd" clip-rule="evenodd" d="M23.9877 33.9634C24.181 33.9634 24.3387 34.121 24.3387 34.3143C24.3387 34.5077 24.181 34.6654 23.9877 34.6654C23.7943 34.6654 23.6367 34.5077 23.6367 34.3143C23.6367 34.121 23.7943 33.9634 23.9877 33.9634Z" fill="white"/>
<path d="M23.9863 33.9238H23.9869C24.0941 33.924 24.1919 33.968 24.2625 34.0388C24.3327 34.1092 24.3766 34.2064 24.3769 34.3132V34.315C24.3768 34.4224 24.3327 34.5202 24.2621 34.5907H24.262C24.1915 34.661 24.0943 34.7048 23.9876 34.7051H23.9857C23.8784 34.705 23.7808 34.6609 23.7101 34.5901C23.6399 34.5197 23.596 34.4225 23.5957 34.3157V34.3139C23.5959 34.2065 23.6399 34.1089 23.7107 34.0382C23.781 33.968 23.8782 33.9242 23.9851 33.9238H23.9863ZM23.9869 34.0031H23.9851C23.8999 34.0034 23.8224 34.0384 23.7664 34.0943C23.7101 34.1505 23.6751 34.2283 23.675 34.3139V34.3157C23.6752 34.4008 23.7102 34.4783 23.7661 34.5344C23.8223 34.5906 23.9001 34.6257 23.9857 34.6258H23.9875C24.0726 34.6256 24.15 34.5907 24.2062 34.5347L24.2061 34.5346C24.2624 34.4783 24.2975 34.4005 24.2976 34.315V34.3132C24.2974 34.2281 24.2624 34.1506 24.2064 34.0945C24.1504 34.0383 24.0725 34.0032 23.9869 34.0031Z" fill="#1F1A17"/>
<path fill-rule="evenodd" clip-rule="evenodd" d="M26.1361 33.8403C26.3295 33.8403 26.4871 33.998 26.4871 34.1913C26.4871 34.3846 26.3295 34.5424 26.1361 34.5424C25.9428 34.5424 25.7852 34.3846 25.7852 34.1913C25.7852 33.998 25.9428 33.8403 26.1361 33.8403Z" fill="white"/>
<path d="M26.1367 33.8008H26.1373C26.2445 33.8009 26.3422 33.845 26.4129 33.9157C26.4831 33.9862 26.527 34.0833 26.5273 34.1901V34.192C26.5272 34.2994 26.4831 34.3971 26.4125 34.4676H26.4124C26.3419 34.538 26.2447 34.5818 26.1379 34.5821H26.1361C26.0288 34.5819 25.9312 34.5378 25.8605 34.4671C25.7903 34.3967 25.7464 34.2995 25.7461 34.1926V34.1908C25.7463 34.0835 25.7903 33.9858 25.861 33.9151C25.9314 33.845 26.0285 33.8011 26.1355 33.8008H26.1367ZM26.1373 33.8801H26.1355C26.0503 33.8803 25.9728 33.9153 25.9168 33.9712C25.8605 34.0274 25.8255 34.1052 25.8254 34.1908V34.1926C25.8256 34.2777 25.8606 34.3553 25.9165 34.4113C25.9727 34.4676 26.0505 34.5027 26.1361 34.5028H26.1379C26.2229 34.5025 26.3004 34.4676 26.3566 34.4117L26.3565 34.4116C26.4128 34.3553 26.4479 34.2775 26.448 34.192V34.1902C26.4478 34.1051 26.4128 34.0275 26.3568 33.9715C26.3008 33.9152 26.2229 33.8802 26.1373 33.8801Z" fill="#1F1A17"/>
<path fill-rule="evenodd" clip-rule="evenodd" d="M27.8353 34.4307C28.0287 34.4307 28.1863 34.5883 28.1863 34.7816C28.1863 34.975 28.0287 35.1327 27.8353 35.1327C27.642 35.1327 27.4844 34.975 27.4844 34.7816C27.4844 34.5883 27.642 34.4307 27.8353 34.4307Z" fill="white"/>
<path d="M27.8359 34.3916H27.8365C27.9437 34.3918 28.0415 34.4358 28.1121 34.5066C28.1824 34.577 28.2262 34.6741 28.2265 34.781V34.7828C28.2264 34.8902 28.1823 34.9879 28.1117 35.0585H28.1116C28.0411 35.1288 27.9439 35.1726 27.8372 35.1729H27.8354C27.728 35.1727 27.6304 35.1286 27.5597 35.0579C27.4895 34.9875 27.4456 34.8903 27.4453 34.7835V34.7816C27.4455 34.6743 27.4895 34.5767 27.5603 34.506C27.6306 34.4358 27.7278 34.3919 27.8347 34.3916L27.8359 34.3916ZM27.8365 34.4709H27.8347C27.7495 34.4712 27.672 34.5061 27.616 34.562C27.5598 34.6182 27.5247 34.6961 27.5246 34.7816V34.7835C27.5249 34.8685 27.5598 34.9461 27.6157 35.0022C27.672 35.0584 27.7498 35.0935 27.8353 35.0936H27.8372C27.9222 35.0934 27.9996 35.0585 28.0558 35.0025L28.0557 35.0024C28.112 34.9461 28.1471 34.8683 28.1472 34.7828V34.781C28.147 34.6959 28.112 34.6183 28.056 34.5623C28 34.5061 27.9221 34.471 27.8365 34.4709Z" fill="#1F1A17"/>
<path fill-rule="evenodd" clip-rule="evenodd" d="M25.3568 35.041C25.5502 35.041 25.7078 35.1986 25.7078 35.392C25.7078 35.5853 25.5502 35.743 25.3568 35.743C25.1635 35.743 25.0059 35.5853 25.0059 35.392C25.0059 35.1986 25.1635 35.041 25.3568 35.041Z" fill="white"/>
<path d="M25.3574 35.0015H25.358C25.4652 35.0016 25.563 35.0456 25.6336 35.1164C25.7038 35.1869 25.7477 35.284 25.748 35.3908V35.3927C25.7479 35.5001 25.7038 35.5978 25.6332 35.6683H25.6331C25.5626 35.7387 25.4654 35.7824 25.3587 35.7828H25.3568C25.2495 35.7826 25.1519 35.7385 25.0812 35.6677C25.011 35.5974 24.9671 35.5002 24.9668 35.3933V35.3915C24.967 35.2842 25.011 35.1865 25.0818 35.1158C25.1521 35.0456 25.2492 35.0018 25.3562 35.0015L25.3574 35.0015ZM25.358 35.0808H25.3562C25.271 35.081 25.1935 35.116 25.1375 35.1719C25.0812 35.2281 25.0462 35.3059 25.0461 35.3915V35.3933C25.0463 35.4784 25.0813 35.556 25.1372 35.612C25.1934 35.6682 25.2712 35.7034 25.3568 35.7035H25.3586C25.4436 35.7032 25.5211 35.6683 25.5773 35.6124L25.5772 35.6123C25.6335 35.556 25.6686 35.4782 25.6687 35.3927V35.3908C25.6685 35.3058 25.6335 35.2282 25.5775 35.1721C25.5215 35.1159 25.4436 35.0809 25.358 35.0808Z" fill="#1F1A17"/>
<path fill-rule="evenodd" clip-rule="evenodd" d="M27.3607 35.5986C27.5541 35.5986 27.7117 35.7563 27.7117 35.9496C27.7117 36.1429 27.5541 36.3007 27.3607 36.3007C27.1674 36.3007 27.0098 36.1429 27.0098 35.9496C27.0098 35.7563 27.1674 35.5986 27.3607 35.5986Z" fill="white"/>
<path d="M27.3594 35.5591H27.3599C27.4672 35.5592 27.5649 35.6033 27.6355 35.674C27.7058 35.7445 27.7496 35.8416 27.75 35.9485V35.9503C27.7498 36.0577 27.7057 36.1554 27.6352 36.2259H27.635C27.5646 36.2963 27.4674 36.3401 27.3606 36.3404H27.3588C27.2514 36.3402 27.1538 36.2961 27.0831 36.2254C27.0129 36.155 26.9691 36.0578 26.9688 35.9509V35.9491C26.9689 35.8418 27.0129 35.7441 27.0837 35.6734C27.1541 35.6033 27.2512 35.5594 27.3581 35.5591H27.3594ZM27.3599 35.6384H27.3581C27.2729 35.6386 27.1955 35.6736 27.1394 35.7295C27.0832 35.7857 27.0481 35.8635 27.0481 35.9491V35.9509C27.0483 36.036 27.0833 36.1136 27.1392 36.1696C27.1954 36.2259 27.2732 36.261 27.3588 36.2611H27.3606C27.4456 36.2608 27.5231 36.2259 27.5792 36.17L27.5791 36.1699C27.6354 36.1136 27.6706 36.0358 27.6707 35.9503V35.9485C27.6704 35.8634 27.6354 35.7858 27.5795 35.7298C27.5234 35.6735 27.4455 35.6385 27.3599 35.6384Z" fill="#1F1A17"/>
<path fill-rule="evenodd" clip-rule="evenodd" d="M27.9731 34.7288L28.961 36.5916L28.7493 36.6917L27.7378 34.8861C27.6199 34.6756 27.8921 34.5762 27.9731 34.7288ZM27.5198 35.9066L27.9603 37.0208C27.8835 37.0452 27.7984 37.0693 27.709 37.09L27.269 36.0376C27.176 35.815 27.4563 35.7458 27.5198 35.9066ZM26.2738 34.1284L27.0461 37.2061C26.9743 37.2149 26.9002 37.219 26.8244 37.2201L26.008 34.2255C25.9445 33.9927 26.2318 33.9608 26.2738 34.1284ZM25.5044 35.3943L25.6336 36.6218L25.3549 36.4587L25.2276 35.4533C25.1972 35.2138 25.4862 35.2223 25.5044 35.3943ZM24.1334 34.3343L24.09 36.1113L23.8396 36.121L23.8513 34.3563C23.8529 34.1149 24.1376 34.1615 24.1334 34.3343ZM22.7835 35.2635L22.5807 36.5423C22.4916 36.5904 22.3866 36.6596 22.2836 36.7283L22.501 35.2453C22.5361 35.0064 22.8105 35.0929 22.7835 35.2635ZM22.1405 33.928L21.4355 37.2221C21.3474 37.2435 21.2537 37.2604 21.1695 37.2661L21.8593 33.8956C21.9078 33.6592 22.1766 33.7589 22.1405 33.928ZM20.8795 35.6262L20.2416 37.1254C20.1682 37.0921 20.0946 37.0555 20.0209 37.0153L20.6087 35.5439C20.6982 35.3198 20.947 35.4673 20.8795 35.6262ZM20.4097 34.3946L19.1196 36.5348L18.9141 36.4385L20.154 34.2735C20.2738 34.0641 20.4989 34.2467 20.4097 34.3946Z" fill="#1F1A17"/>
<path d="M30.3363 35.16L33.3432 35.1631C33.3102 34.5882 33.1913 34.1465 33.0098 33.8028C32.8315 33.465 32.5918 33.2209 32.3132 33.0364C32.3088 33.0424 32.3043 33.0485 32.2999 33.0546C32.2976 33.0577 32.2954 33.0607 32.2932 33.0637C32.0063 33.4576 31.7 33.8377 31.3701 34.1964C31.0493 34.5448 30.7053 34.871 30.3363 35.16ZM32.2999 33.0546C32.2976 33.0576 32.2954 33.0607 32.2932 33.0637L32.2999 33.0546ZM33.3852 35.2425L30.2332 35.2393C29.6489 35.6799 28.9829 36.024 28.2913 36.3125C27.5967 36.6022 26.8813 36.8326 26.1655 37.0625C25.2853 36.3267 24.218 35.9461 23.0952 36.3524C22.6711 36.5058 22.2846 36.7508 21.939 37.038L21.9389 37.0379L21.9087 37.0632C20.4788 36.5277 19.0609 35.7954 18.0088 34.6598C17.1254 33.7063 16.6352 32.601 16.5016 31.3587C16.2119 31.1118 15.8613 30.8736 15.5385 30.6734C15.2116 30.4707 14.9115 30.3055 14.7319 30.2084C14.5243 30.0963 14.4818 29.9568 14.4825 29.7416C13.8435 29.4772 13.2078 29.2041 12.5711 28.9341L12.5703 28.3735L17.3372 28.9845C17.5738 29.3869 17.905 29.7398 18.2444 30.057C18.3118 30.12 18.3793 30.1808 18.4455 30.2384H18.4457C18.7289 30.4849 19.0674 30.6949 19.396 30.9187C19.8815 31.2493 20.409 31.5322 20.9546 31.8083C22.114 32.3952 23.3807 32.7912 24.5507 32.8954C26.5625 33.0747 28.6635 32.4733 30.91 30.6483H30.284V29.9547L30.2953 29.9271L30.8587 29.3502H33.4759L34.1629 29.9366V30.6483H33.0788C33.0824 31.0767 33.0286 31.4806 32.9107 31.8658C32.7928 32.2511 32.611 32.6179 32.3596 32.972C32.647 33.1629 32.8949 33.4159 33.0798 33.766C33.2711 34.1282 33.3947 34.5937 33.4249 35.2011L33.427 35.2426L33.3852 35.2425ZM31.3353 34.1168C31.6713 33.7514 31.9803 33.3611 32.2713 32.9593C32.5298 32.6022 32.7156 32.2322 32.8347 31.8429C32.9502 31.4652 33.0034 31.0688 32.9997 30.6482H32.6475C32.0343 32.3631 30.8143 33.6872 29.3072 34.5712C25.5668 36.7651 19.9894 36.2278 17.6322 32.2091C17.4474 31.894 17.2663 31.6063 17.0807 31.3387C16.8991 31.0767 16.7133 30.8342 16.5158 30.6044L14.5618 29.7775C14.5618 29.948 14.6109 30.053 14.7694 30.1385C14.9489 30.2356 15.2493 30.401 15.58 30.6061C15.9087 30.81 16.3033 31.0471 16.5774 31.3212C17.0985 31.9982 17.3562 32.573 17.5843 33.0815C17.8317 33.6335 18.044 34.1068 18.5239 34.5455C19.6445 35.5699 21.1412 36.1092 22.5822 36.4998L22.4768 36.5566C21.048 36.1648 19.5816 35.6199 18.4703 34.6041C17.9789 34.1548 17.7634 33.6743 17.5121 33.1138C17.298 32.6362 17.0576 32.0999 16.5951 31.4758C16.7456 32.6497 17.2253 33.6974 18.0671 34.6059C18.9404 35.5486 20.2039 36.3425 21.8931 36.9729C22.0833 36.8153 22.2764 36.678 22.472 36.5622C22.6687 36.4456 22.8678 36.3506 23.0682 36.2781C24.0919 35.9077 25.1512 36.1199 26.1827 36.9737C26.8654 36.7561 27.5771 36.5246 28.2611 36.2394C28.3093 36.2192 28.3577 36.1987 28.4057 36.178C27.5445 36.4339 26.611 36.5814 25.722 36.6387L25.5986 36.5632C26.7163 36.5204 27.94 36.304 28.9761 35.9135C29.8584 35.5253 30.6891 34.8198 31.3353 34.1168ZM32.5633 30.6482H32.0482C30.7874 33.6197 27.1473 34.865 24.1379 34.7538L24.1248 34.7533C22.4721 34.6897 20.8265 34.0559 19.2707 32.7901C18.6227 32.263 18.0344 31.6629 17.4998 31.0217L17.4987 31.0203L16.6762 30.6723C16.8386 30.8688 16.9937 31.0745 17.1458 31.2939C17.3321 31.5625 17.5143 31.8519 17.7003 32.1691C20.0349 36.1498 25.5641 36.6751 29.2672 34.5031C30.7513 33.6326 31.9538 32.3315 32.5633 30.6482ZM31.9617 30.6482H31.6524C30.5324 31.7654 29.5981 32.5785 28.4612 33.1047C27.3211 33.6323 25.9795 33.8705 24.0463 33.8364C22.6067 33.811 21.1418 33.3697 19.7365 32.4251C19.1513 32.0317 18.6092 31.5734 18.113 31.073C18.0684 31.1231 18.0236 31.1734 17.9795 31.2238L17.9792 31.2238L17.9792 31.2238C17.873 31.1784 17.7663 31.1336 17.66 31.0885C18.1647 31.6817 18.7161 32.237 19.3206 32.7287C20.8623 33.983 22.4919 34.6109 24.1277 34.6739L24.1407 34.6744C27.1067 34.7847 30.7021 33.5658 31.9617 30.6482ZM31.5404 30.6482H31.3637C30.0193 31.6895 29.0544 32.3939 28.0208 32.8446C26.9845 33.2966 25.8817 33.4931 24.2633 33.5177C22.6239 33.5427 21.0816 32.9747 19.7669 32.0548C19.2507 31.6936 18.7688 31.2789 18.3326 30.8243C18.2769 30.887 18.2212 30.9508 18.1655 31.0137C18.6577 31.512 19.199 31.9684 19.7805 32.3593C21.1723 33.2949 22.6226 33.7319 24.0474 33.7571C25.9682 33.791 27.2992 33.5551 28.428 33.0327C29.5356 32.5201 30.4514 31.7303 31.5404 30.6482ZM31.2346 30.6482H31.0349C28.7419 32.5359 26.5975 33.1577 24.5438 32.9747C22.4991 32.7924 20.5462 31.7951 18.6264 30.473C18.539 30.5729 18.4587 30.6812 18.3852 30.7648C19.915 32.3559 22.0085 33.4728 24.2623 33.4384C25.8698 33.414 26.9636 33.2194 27.9891 32.7722C28.9939 32.334 29.9367 31.6516 31.2346 30.6482ZM30.8918 29.4295L30.4186 29.9141L34.0158 29.915L33.4467 29.4295L30.8918 29.4295ZM30.3633 29.9934V30.5689H31.0208L31.021 30.5688C32.0419 30.5688 33.0628 30.5689 34.0836 30.5689V29.9943L30.3633 29.9934ZM18.0363 31.0393L18.5712 30.429C18.5158 30.3835 18.4521 30.3448 18.3969 30.2968L18.0445 30.7011L18.0363 31.0393ZM17.2956 29.0579L12.7807 28.4799L17.9941 30.6383L18.3374 30.2485C17.9455 29.9006 17.5655 29.5097 17.2956 29.0579ZM12.6504 28.5114V28.8819L17.959 31.1261L17.9648 30.7117L12.6504 28.5114Z" fill="#1F1A17"/>
<path fill-rule="evenodd" clip-rule="evenodd" d="M32.2487 33.0562C32.2667 33.0316 32.2847 33.0071 32.3025 32.9824L32.2487 33.0562ZM32.2466 33.0591C31.4653 34.1245 31.4693 34.1228 32.2466 33.0591V33.0591Z" fill="#E7B400"/>
<path fill-rule="evenodd" clip-rule="evenodd" d="M26.3427 26.499L29.2608 28.2056C28.887 28.3397 28.5029 28.5269 28.2002 28.789C27.2382 29.6219 27.3826 30.878 28.5656 32.5598C28.0162 32.3776 27.5463 32.191 27.074 31.8684C26.0938 31.1988 25.3328 30.1032 25.0703 28.0974C25.3354 27.4943 25.7006 26.9355 26.3427 26.499Z" fill="white"/>
<path d="M26.3628 26.4649L29.2808 28.1714L29.354 28.2143L29.2742 28.2428C29.0887 28.3093 28.9009 28.389 28.7226 28.4842C28.5446 28.5792 28.3751 28.69 28.2261 28.8187C27.756 29.226 27.5676 29.7454 27.6413 30.3685C27.7158 30.9985 28.0358 31.7016 28.6234 32.537L28.5275 32.5931C28.2517 32.5015 28.0563 32.4386 27.7978 32.3196C27.5391 32.2006 27.2897 32.0635 27.0518 31.901C26.5571 31.5631 26.1175 31.1174 25.7687 30.5033C25.4207 29.8909 25.1631 29.1107 25.0312 28.1024L25.0342 28.0815C25.168 27.7769 25.3272 27.4835 25.5336 27.2116C25.7407 26.9387 25.9957 26.6867 26.3205 26.466L26.3411 26.4521L26.3628 26.4649ZM29.1688 28.1975L26.3449 26.5459C26.0374 26.7581 25.7946 26.999 25.5968 27.2596C25.3961 27.524 25.2412 27.8084 25.111 28.1033C25.242 29.0953 25.4955 29.8625 25.8374 30.4643C26.1797 31.0667 26.611 31.5039 27.0965 31.8356C27.3306 31.9954 27.5761 32.1304 27.8309 32.2477C28.0506 32.3489 28.278 32.4374 28.5115 32.5179C27.9583 31.7121 27.6358 30.9961 27.5626 30.3779C27.4857 29.7275 27.6828 29.1849 28.1744 28.759C28.3283 28.626 28.5026 28.5119 28.6855 28.4144C28.8426 28.3305 29.0063 28.2589 29.1688 28.1975Z" fill="#1F1A17"/>
<path fill-rule="evenodd" clip-rule="evenodd" d="M19.8267 31.2377L19.8107 32.0215L19.6094 31.879L19.6128 31.106C19.679 31.1482 19.758 31.1956 19.8267 31.2377Z" fill="#E7B400"/>
<path d="M19.8671 31.2385L19.851 32.0223L19.8495 32.0972L19.7884 32.0539L19.5871 31.9114L19.5703 31.8996L19.5704 31.8789L19.5738 31.1059L19.5741 31.0322L19.6355 31.0731L19.6355 31.0731L19.6356 31.0731C19.6905 31.108 19.742 31.1394 19.7914 31.1695V31.1694C19.8119 31.1818 19.8317 31.1939 19.8481 31.204L19.8675 31.216L19.8671 31.2385ZM19.7732 31.946L19.7872 31.2599C19.7746 31.2522 19.7622 31.2444 19.7503 31.2372V31.2371C19.7173 31.217 19.6836 31.1966 19.6528 31.1776L19.6498 31.8586L19.7732 31.946Z" fill="#1F1A17"/>
<path fill-rule="evenodd" clip-rule="evenodd" d="M19.8021 28.5776L19.8191 30.4925C19.7337 30.3426 19.6493 30.1769 19.5996 30.0301L19.5999 28.9474C19.6497 28.8188 19.7175 28.6953 19.8021 28.5776Z" fill="#E7B400"/>
<path d="M19.8423 28.577L19.8593 30.4918L19.7853 30.5117C19.742 30.4356 19.699 30.3557 19.6609 30.277C19.6224 30.1973 19.5881 30.1175 19.5627 30.0425L19.5605 30.0298L19.5609 28.9471L19.5638 28.9324L19.5643 28.9311L19.5644 28.9312C19.5719 28.9119 19.5793 28.8934 19.5866 28.8766C19.5948 28.8575 19.6032 28.8392 19.6113 28.8221H19.6114C19.655 28.7302 19.7083 28.6405 19.7706 28.5542L19.8423 28.577ZM19.7786 30.3343L19.7642 28.7071C19.7343 28.7557 19.707 28.8054 19.6829 28.8561V28.8562C19.6744 28.8741 19.6665 28.8915 19.6594 28.9078C19.6523 28.9242 19.646 28.9401 19.6402 28.9548L19.6399 30.023C19.6638 30.0929 19.6959 30.1676 19.7322 30.2425C19.747 30.2731 19.7628 30.3039 19.7786 30.3343Z" fill="#1F1A17"/>
<path fill-rule="evenodd" clip-rule="evenodd" d="M19.8037 25.5986V26.1969L19.6016 26.0388V25.5986H19.8037Z" fill="#E7B400"/>
<path d="M19.6002 25.5591H19.842V26.2783L19.778 26.2281L19.5759 26.07L19.5605 26.0581V25.5591L19.6002 25.5591ZM19.7627 25.6384H19.6399V26.0197L19.7627 26.1159V25.6384Z" fill="#1F1A17"/>
<path fill-rule="evenodd" clip-rule="evenodd" d="M24.2188 32.0081L24.2401 33.4734L23.793 33.4649L23.818 31.7671C23.818 31.7671 23.8181 31.7673 23.8182 31.7673L23.8189 31.7676C23.8191 31.7677 23.8193 31.7678 23.8196 31.7681C23.9516 31.8509 24.0831 31.9312 24.2187 32.0081L24.2188 32.0081Z" fill="#E7B400"/>
<path d="M24.2809 33.473L24.2816 33.514L24.2407 33.5131L23.7935 33.5046L23.7539 33.5039L23.7544 33.4645L23.7804 31.7036C23.9461 31.7863 24.0984 31.894 24.2593 31.9851L24.2809 33.473ZM24.201 33.4331L24.1884 31.9976C24.0796 31.9353 23.9669 31.8704 23.8604 31.8043L23.8343 33.426L24.201 33.4331Z" fill="#1F1A17"/>
<path fill-rule="evenodd" clip-rule="evenodd" d="M24.106 24.2279L23.9121 24.1188L23.9241 23.3096L24.0948 23.317L24.106 24.2279Z" fill="#E7B400"/>
<path d="M24.1572 24.2968L23.8457 24.1252L23.8586 23.2539L24.1447 23.277L24.1572 24.2968ZM24.0761 24.1586L24.0663 23.3566L23.9367 23.3329L23.9257 24.08L24.0761 24.1586Z" fill="#1F1A17"/>
<path fill-rule="evenodd" clip-rule="evenodd" d="M27.2695 26.4322C27.4443 26.5351 27.6495 26.412 27.4841 26.1786L22.0454 23.0394C21.8335 22.9349 21.764 23.1919 21.8362 23.2343L27.2695 26.4322Z" fill="#E7B400"/>
<path d="M27.2899 26.3984C27.3433 26.4298 27.4329 26.4491 27.4821 26.3986C27.5285 26.3509 27.5027 26.2352 27.4569 26.2088L22.0261 23.0741C21.966 23.0452 21.9224 23.0517 21.8942 23.0734C21.8824 23.0825 21.8728 23.0945 21.8655 23.1075C21.8581 23.1209 21.8529 23.1356 21.8505 23.1496L21.8503 23.1498C21.846 23.1743 21.8478 23.1954 21.8565 23.2005L27.2899 26.3984ZM27.4497 26.5027C27.3903 26.5167 27.3176 26.5064 27.2499 26.4665L21.8165 23.2686C21.7777 23.2458 21.7625 23.1917 21.7725 23.1361H21.7723C21.7763 23.1137 21.7844 23.0903 21.7964 23.0688C21.8087 23.0471 21.8251 23.0268 21.8459 23.0108C21.8962 22.972 21.9694 22.9578 22.0632 23.0042L22.0656 23.0053L27.5042 26.1444C27.5668 26.1836 27.5921 26.2894 27.5835 26.3594C27.5789 26.3973 27.5628 26.4293 27.5389 26.4538C27.5154 26.4777 27.4846 26.4945 27.4497 26.5027Z" fill="#1F1A17"/>
<path fill-rule="evenodd" clip-rule="evenodd" d="M27.9102 27.0837L28.1005 27.195L28.0661 26.3218L27.9102 26.3203V27.0837Z" fill="#E7B400"/>
<path d="M27.9504 26.3603V27.061L28.0586 27.1244L28.0285 26.3611L27.9504 26.3603ZM27.8711 27.0836V26.2803L27.9111 26.2806L28.067 26.2821L28.1049 26.2825L28.1064 26.3201L28.1407 27.1933L28.1436 27.2656L28.0811 27.229L27.8908 27.1176L27.8711 27.1062L27.8711 27.0836Z" fill="#1F1A17"/>
<path fill-rule="evenodd" clip-rule="evenodd" d="M27.9102 32.3296L27.9228 32.837L28.255 32.6935L28.2414 32.4638C28.1295 32.4216 28.0191 32.3771 27.9102 32.3296Z" fill="#E7B400"/>
<path d="M27.9515 32.3905L27.9612 32.7774L28.2138 32.6682L28.2034 32.4918C28.1549 32.4734 28.1069 32.4545 28.0599 32.4355C28.0246 32.4212 27.9885 32.4063 27.9515 32.3905ZM27.8833 32.838L27.8706 32.3305L27.8691 32.2686L27.9261 32.2934C27.9777 32.3159 28.0325 32.3389 28.0897 32.362C28.1451 32.3844 28.2005 32.4061 28.2555 32.4268L28.2797 32.4359L28.2812 32.4615L28.2948 32.6912L28.2965 32.7145L28.2708 32.73L27.9386 32.8734L27.8848 32.8967L27.8833 32.838Z" fill="#1F1A17"/>
<path fill-rule="evenodd" clip-rule="evenodd" d="M27.9102 29.0991V31.4006C27.9986 31.5951 28.1046 31.7964 28.2282 32.0048L28.1381 28.8442C28.0516 28.9251 27.9761 29.0101 27.9102 29.0991Z" fill="#E7B400"/>
<path d="M27.9504 29.1124V31.392C27.9933 31.4862 28.0404 31.5819 28.0916 31.679C28.121 31.735 28.1523 31.7919 28.1848 31.8493L28.1016 28.9363C28.0829 28.9556 28.0644 28.975 28.0466 28.9949C28.0121 29.0336 27.9799 29.0731 27.9504 29.1124ZM27.8711 31.4005V29.099L27.879 29.0755C27.913 29.0295 27.9493 28.9849 27.9874 28.9422C28.0255 28.8994 28.067 28.8569 28.1117 28.8152L28.1759 28.7554L28.1783 28.843L28.2685 32.0036L28.1948 32.0249C28.133 31.9208 28.0752 31.8176 28.0216 31.7158C27.9681 31.6143 27.919 31.5144 27.8747 31.4167L27.8711 31.4005Z" fill="#1F1A17"/>
<path fill-rule="evenodd" clip-rule="evenodd" d="M27.9724 25.8838C28.0798 25.8838 28.1675 25.9714 28.1675 26.0789C28.1675 26.1862 28.0798 26.274 27.9724 26.274C27.8649 26.274 27.7773 26.1862 27.7773 26.0789C27.7773 25.9714 27.8649 25.8838 27.9724 25.8838Z" fill="#E7B400"/>
<path fill-rule="evenodd" clip-rule="evenodd" d="M27.9725 25.8096C28.1209 25.8096 28.2419 25.9305 28.2419 26.0791C28.2419 26.2273 28.1209 26.3484 27.9725 26.3484C27.8241 26.3484 27.7031 26.2273 27.7031 26.0791C27.7031 25.9305 27.8241 25.8096 27.9725 25.8096ZM27.9724 25.8839C28.0799 25.8839 28.1676 25.9715 28.1676 26.0789C28.1676 26.1863 28.0799 26.2741 27.9724 26.2741C27.865 26.2741 27.7774 26.1863 27.7774 26.0789C27.7774 25.9715 27.865 25.8839 27.9724 25.8839Z" fill="#1F1A17"/>
<path fill-rule="evenodd" clip-rule="evenodd" d="M24.0173 22.896C24.1247 22.896 24.2125 22.9836 24.2125 23.0911C24.2125 23.1984 24.1247 23.2862 24.0173 23.2862C23.9099 23.2862 23.8223 23.1984 23.8223 23.0911C23.8223 22.9836 23.9099 22.896 24.0173 22.896Z" fill="#E7B400"/>
<path fill-rule="evenodd" clip-rule="evenodd" d="M24.0174 22.8218C24.1658 22.8218 24.2868 22.9428 24.2868 23.0913C24.2868 23.2395 24.1658 23.3606 24.0174 23.3606C23.869 23.3606 23.748 23.2395 23.748 23.0913C23.748 22.9428 23.869 22.8218 24.0174 22.8218ZM24.0174 22.8961C24.1248 22.8961 24.2126 22.9837 24.2126 23.0911C24.2126 23.1985 24.1248 23.2863 24.0174 23.2863C23.9099 23.2863 23.8223 23.1985 23.8223 23.0911C23.8223 22.9837 23.9099 22.8961 24.0174 22.8961Z" fill="#1F1A17"/>
<path fill-rule="evenodd" clip-rule="evenodd" d="M19.7028 25.1851C19.8103 25.1851 19.898 25.2727 19.898 25.3802C19.898 25.4875 19.8103 25.5753 19.7028 25.5753C19.5954 25.5753 19.5078 25.4875 19.5078 25.3802C19.5078 25.2727 19.5954 25.1851 19.7028 25.1851Z" fill="#E7B400"/>
<path fill-rule="evenodd" clip-rule="evenodd" d="M19.703 25.1108C19.8513 25.1108 19.9724 25.2318 19.9724 25.3803C19.9724 25.5286 19.8513 25.6496 19.703 25.6496C19.5546 25.6496 19.4336 25.5286 19.4336 25.3803C19.4336 25.2318 19.5546 25.1108 19.703 25.1108ZM19.7029 25.1851C19.8103 25.1851 19.8981 25.2727 19.8981 25.3802C19.8981 25.4876 19.8103 25.5753 19.7029 25.5753C19.5955 25.5753 19.5079 25.4876 19.5079 25.3802C19.5079 25.2727 19.5955 25.1851 19.7029 25.1851Z" fill="#1F1A17"/>
<path fill-rule="evenodd" clip-rule="evenodd" d="M27.3952 26.1636C27.4741 26.1636 27.5385 26.2279 27.5385 26.3068C27.5385 26.3857 27.4741 26.4501 27.3952 26.4501C27.3163 26.4501 27.252 26.3857 27.252 26.3068C27.252 26.2279 27.3163 26.1636 27.3952 26.1636Z" fill="#E7B400"/>
<path fill-rule="evenodd" clip-rule="evenodd" d="M27.3951 26.1089C27.504 26.1089 27.5929 26.1977 27.5929 26.3068C27.5929 26.4156 27.504 26.5045 27.3951 26.5045C27.2861 26.5045 27.1973 26.4156 27.1973 26.3068C27.1973 26.1977 27.2861 26.1089 27.3951 26.1089ZM27.3951 26.1634C27.4739 26.1634 27.5384 26.2278 27.5384 26.3067C27.5384 26.3856 27.4739 26.45 27.3951 26.45C27.3162 26.45 27.2518 26.3856 27.2518 26.3067C27.2518 26.2278 27.3162 26.1634 27.3951 26.1634Z" fill="#1F1A17"/>
<path fill-rule="evenodd" clip-rule="evenodd" d="M22.0206 23.3448L26.8455 26.1812C24.6796 27.2753 23.037 31.3201 27.5067 32.9706C22.9551 32.698 18.1905 27.5422 22.0206 23.3448Z" fill="white"/>
<path d="M22.0413 23.3107L26.8662 26.1471L26.9289 26.1839L26.864 26.2167C26.0445 26.6306 25.3002 27.4723 24.9409 28.4452C24.7915 28.8501 24.7087 29.2781 24.7152 29.7071C24.7217 30.1353 24.8172 30.565 25.024 30.9742C25.4128 31.744 26.2227 32.4575 27.5479 32.9469L27.5051 33.0104C25.7665 32.9063 23.997 32.0934 22.6828 30.8942C22.0191 30.2886 21.4711 29.584 21.1015 28.8224C20.7313 28.0594 20.5399 27.2389 20.5899 26.4026C20.6516 25.3719 21.08 24.3176 21.992 23.3181L22.0136 23.2944L22.0413 23.3107ZM26.7647 26.1793L22.0293 23.3954C21.1455 24.3731 20.7295 25.402 20.6693 26.4073C20.6201 27.2298 20.8086 28.037 21.173 28.788C21.538 29.5403 22.0798 30.2366 22.7361 30.8355C23.9696 31.9611 25.6079 32.7431 27.2406 32.9093C26.0468 32.4186 25.325 31.7459 24.9532 31.0099C24.7406 30.5891 24.6424 30.1477 24.6357 29.7081C24.6291 29.2694 24.7137 28.8319 24.8665 28.418C25.2232 27.4518 25.9536 26.6125 26.7647 26.1793Z" fill="#1F1A17"/>
<path fill-rule="evenodd" clip-rule="evenodd" d="M17.9607 25.1737L21.3347 27.8387C21.5108 27.8974 21.6793 27.8897 21.6153 27.6155L18.2378 24.9753C18.0352 24.8313 17.826 25.0525 17.9607 25.1737Z" fill="#E7B400"/>
<path d="M17.9868 25.1433L21.355 27.8037C21.4165 27.8359 21.5349 27.8629 21.5828 27.7736L21.583 27.7735C21.593 27.7434 21.5997 27.6869 21.5805 27.638L18.2153 25.0074C18.149 24.9604 18.0827 24.9598 18.034 24.9826C18.0156 24.9912 17.9992 25.0036 17.9864 25.0179L17.9863 25.0179C17.9743 25.0314 17.9655 25.0467 17.9613 25.0623C17.9539 25.0892 17.9607 25.1189 17.9868 25.1433ZM21.3108 27.8699L17.9368 25.2048L17.9348 25.2032C17.8825 25.156 17.8698 25.0966 17.8848 25.0415C17.8923 25.014 17.9071 24.9877 17.9271 24.9651V24.9649C17.9465 24.9433 17.9717 24.9245 18.0006 24.9109C18.0725 24.8775 18.1682 24.8768 18.2614 24.9432L18.2628 24.9442L21.6404 27.5844C21.676 27.64 21.6786 27.7363 21.658 27.7984H21.6581C21.6404 27.8523 21.598 27.8892 21.5432 27.9019C21.4754 27.9176 21.3716 27.902 21.3108 27.8699Z" fill="#1F1A17"/>
<path fill-rule="evenodd" clip-rule="evenodd" d="M18.0952 25.2788C15.8114 27.4036 16.6021 29.7624 21.4938 32.1059C19.3641 30.6881 18.9772 29.1668 20.1745 28.1869C20.4229 27.9837 20.7385 27.8083 21.1191 27.6692L18.0952 25.2788Z" fill="white"/>
<path d="M18.0962 25.3315C17.6711 25.7312 17.3556 26.139 17.1573 26.5529C16.9188 27.0508 16.8496 27.5583 16.9621 28.0718C17.0748 28.5873 17.3577 29.1291 17.8485 29.6567C18.5297 30.3888 19.5992 31.1104 21.0622 31.8504C20.6565 31.5446 20.3293 31.2357 20.0795 30.9306C19.7375 30.5127 19.5393 30.1002 19.4813 29.7093C19.4228 29.3156 19.5063 28.9443 19.7275 28.6121C19.8354 28.45 19.9759 28.2974 20.148 28.1565L20.149 28.1558C20.1834 28.1277 20.2201 28.0994 20.2589 28.071V28.0708C20.2957 28.044 20.3351 28.0168 20.3768 27.9895H20.3769C20.5683 27.8646 20.7894 27.7532 21.0386 27.6575L18.0962 25.3315ZM17.0857 26.5187C17.2921 26.0879 17.6217 25.6644 18.0669 25.2502L18.0919 25.2271L18.1184 25.2481L21.1424 27.6384L21.1979 27.6823L21.1313 27.7067C20.8608 27.8056 20.6233 27.9229 20.42 28.0556L20.4201 28.0557C20.382 28.0807 20.3436 28.1072 20.3057 28.1349L20.3057 28.1348C20.2699 28.161 20.2343 28.1885 20.1992 28.2172L20.1982 28.2179C20.0318 28.3541 19.8966 28.5008 19.7935 28.6557C19.5834 28.9713 19.5041 29.3239 19.5596 29.6977C19.6155 30.0742 19.8081 30.4737 20.1409 30.8803C20.4651 31.2765 20.9218 31.6789 21.5144 32.0733L21.4836 32.1263C19.7773 31.3088 18.5553 30.5251 17.7996 29.7128C17.2986 29.1744 17.0004 28.6179 16.8846 28.0885C16.7682 27.5571 16.8396 27.0327 17.0857 26.5187Z" fill="#1F1A17"/>
<path fill-rule="evenodd" clip-rule="evenodd" d="M21.4797 27.5732C21.5675 27.5732 21.6392 27.6449 21.6392 27.7327C21.6392 27.8205 21.5675 27.8921 21.4797 27.8921C21.3919 27.8921 21.3203 27.8205 21.3203 27.7327C21.3203 27.6449 21.3919 27.5732 21.4797 27.5732Z" fill="#E7B400"/>
<path fill-rule="evenodd" clip-rule="evenodd" d="M21.4799 27.5127C21.6011 27.5127 21.7 27.6116 21.7 27.7329C21.7 27.854 21.6011 27.9529 21.4799 27.9529C21.3586 27.9529 21.2598 27.854 21.2598 27.7329C21.2598 27.6116 21.3586 27.5127 21.4799 27.5127ZM21.4798 27.5734C21.5676 27.5734 21.6393 27.645 21.6393 27.7327C21.6393 27.8205 21.5676 27.8922 21.4798 27.8922C21.392 27.8922 21.3205 27.8205 21.3205 27.7327C21.3205 27.645 21.392 27.5734 21.4798 27.5734Z" fill="#1F1A17"/>
<path d="M24.9704 28.3339L27.8852 32.8503L27.8186 32.8931L24.9038 28.3767L24.9704 28.3339ZM20.2082 28.1684L23.0541 33.3724L22.9847 33.4102L20.1388 28.2062L20.2082 28.1684ZM22.1294 33.2189L19.9266 28.4011L19.9985 28.3683L22.2013 33.1861L22.1294 33.2189ZM19.8394 28.5634L21.5308 32.9395L21.457 32.968L19.7656 28.5918L19.8394 28.5634ZM24.8664 28.6008L27.2009 33.108L27.1306 33.1443L24.8029 28.6575L24.8664 28.6008ZM24.7656 29.0321L26.5672 33.264L26.4944 33.295L24.7064 29.0856L24.7656 29.0321ZM28.1847 26.1875L30.9053 29.3651L30.8437 29.4147L28.153 26.2819L28.1847 26.1875ZM28.1218 26.2925L30.3564 29.9336L30.2892 29.9758L28.0545 26.3347L28.1218 26.2925ZM28.3187 28.7106L29.6741 31.8709L29.6013 31.9019L28.2459 28.7416L28.3187 28.7106ZM28.2379 28.7772L29.2976 32.1172L29.2219 32.1412L28.1874 28.8803L28.9608 32.3173L28.8837 32.3347L28.1002 28.853L28.1735 28.8364L28.1623 28.8011L28.2379 28.7772Z" fill="#1F1A17"/>
<path fill-rule="evenodd" clip-rule="evenodd" d="M26.3438 26.4989L29.2618 28.2054L29.5763 28.407C29.7128 28.4206 29.7903 28.3809 29.7381 28.2241L29.4505 28.0349C28.1616 27.2288 26.7689 26.3837 26.6509 26.3184L26.3438 26.4989Z" fill="#E7B400"/>
<path d="M26.4217 26.4988L29.2817 28.1714L29.2831 28.1721L29.5897 28.3687C29.6422 28.373 29.6817 28.3684 29.7009 28.3504C29.7177 28.335 29.7207 28.3032 29.7047 28.2496L29.4286 28.068L29.4287 28.0679L29.4197 28.0623C29.4196 28.0623 29.4195 28.0622 29.4195 28.0622C29.224 27.9398 29.043 27.8273 28.8765 27.724C28.6961 27.612 28.5172 27.5014 28.3441 27.3948C27.5044 26.8773 26.7963 26.4483 26.651 26.364L26.4217 26.4988ZM29.2403 28.2386L26.3237 26.533L26.2656 26.4991L26.3237 26.4649L26.6308 26.2843L26.6503 26.2729L26.6701 26.2838C26.7546 26.3307 27.4967 26.7797 28.3856 27.3275C28.5587 27.4342 28.7375 27.5448 28.918 27.6567C29.1124 27.7773 29.2965 27.8919 29.4615 27.9951L29.4616 27.9952L29.4715 28.0014L29.4722 28.0018L29.7598 28.1909L29.7756 28.2117C29.8072 28.3068 29.7964 28.3696 29.7548 28.4084C29.7154 28.4449 29.6514 28.4541 29.5723 28.4463L29.5547 28.4403L29.2403 28.2386Z" fill="#1F1A17"/>
<path fill-rule="evenodd" clip-rule="evenodd" d="M29.6541 28.1982C29.7186 28.1982 29.7711 28.2508 29.7711 28.3153C29.7711 28.3797 29.7186 28.4322 29.6541 28.4322C29.5896 28.4322 29.5371 28.3797 29.5371 28.3153C29.5371 28.2508 29.5896 28.1982 29.6541 28.1982Z" fill="#E7B400"/>
<path fill-rule="evenodd" clip-rule="evenodd" d="M29.6557 28.1538C29.7446 28.1538 29.8172 28.2263 29.8172 28.3154C29.8172 28.4043 29.7446 28.4769 29.6557 28.4769C29.5667 28.4769 29.4941 28.4043 29.4941 28.3154C29.4941 28.2263 29.5667 28.1538 29.6557 28.1538ZM29.6556 28.1984C29.72 28.1984 29.7727 28.2509 29.7727 28.3153C29.7727 28.3797 29.72 28.4323 29.6556 28.4323C29.5912 28.4323 29.5387 28.3797 29.5387 28.3153C29.5387 28.2509 29.5912 28.1984 29.6556 28.1984Z" fill="#1F1A17"/>
<path fill-rule="evenodd" clip-rule="evenodd" d="M17.9682 39.4884C19.9871 40.4068 22.2723 41.5598 23.9974 43.9998C25.2474 42.2381 26.9748 40.8081 29.9878 39.4991C28.5836 41.196 32.3039 36.0859 27.7106 37.0877C27.1716 37.194 26.6496 37.3582 26.1852 36.964C25.5938 36.4619 24.8855 36.0978 24.0906 36.0957C24.0101 36.0956 23.9196 36.0991 23.8402 36.1054C23.04 36.17 22.5083 36.4881 21.899 36.964C21.456 37.31 20.8345 37.371 20.3162 37.1561C16.5571 34.6312 17.0084 40.2523 17.9682 39.4884Z" fill="#C3010D"/>
</g>
</svg>
