<svg width="48" height="48" viewBox="0 0 48 48" fill="none" xmlns="http://www.w3.org/2000/svg">
<mask id="mask0_751_6044" style="mask-type:luminance" maskUnits="userSpaceOnUse" x="4" y="4" width="40" height="40">
<path d="M24 44C35.0457 44 44 35.0457 44 24C44 12.9543 35.0457 4 24 4C12.9543 4 4 12.9543 4 24C4 35.0457 12.9543 44 24 44Z" fill="white"/>
</mask>
<g mask="url(#mask0_751_6044)">
<path d="M4 4L4.625 5.71875L4 7.51562V9.3125L6.5 13.5312L4 17.75V20.25L6.5 24L4 27.75V30.25L6.5 34.4688L4 38.6875V44L5.71875 43.375L7.51562 44H9.3125L13.5312 41.5L17.75 44H20.25L24 41.5L27.75 44H30.25L34.4688 41.5L38.6875 44H44L43.375 42.2812L44 40.4844V38.6875L41.5 34.4688L44 30.25V27.75L41.5 24L44 20.25V17.75L41.5 13.5312L44 9.3125V4L42.2812 4.625L40.4844 4H38.6875L34.4688 6.5L30.25 4H27.75L24 6.5L20.25 4H17.75L13.5312 6.5L9.3125 4H4Z" fill="#EEEEEE"/>
<path d="M30.25 4V12.4375L38.6875 4H30.25ZM44 9.3125L35.5625 17.75H44V9.3125ZM4 17.75H12.4375L4 9.3125V17.75ZM9.3125 4L17.75 12.4375V4H9.3125ZM17.75 44V35.5625L9.3125 44H17.75ZM4 38.6875L12.4375 30.25H4V38.6875ZM44 30.25H35.5625L44 38.6875V30.25ZM38.6875 44L30.25 35.5625V44H38.6875Z" fill="#0052B4"/>
<path d="M4 4V7.51562L14.2344 17.75H17.75L4 4ZM20.25 4V20.25H4V27.75H20.25V44H27.75V27.75H44V20.25H27.75V4H20.25ZM40.4844 4L30.25 14.2344V17.75L44 4H40.4844ZM17.75 30.25L4 44H7.51562L17.75 33.7656V30.25ZM30.25 30.25L44 44V40.4844L33.7656 30.25H30.25Z" fill="#D80027"/>
</g>
</svg>
