<svg xmlns="http://www.w3.org/2000/svg" width="34" height="34" viewBox="0 0 34 34" fill="none">
    <g clip-path="url(#clip0_751_6727)">
        <path
            d="M17.0007 33.4998C26.2054 33.4998 33.6673 26.0379 33.6673 16.8332C33.6673 7.62842 26.2054 0.166504 17.0007 0.166504C7.7959 0.166504 0.333984 7.62842 0.333984 16.8332C0.333984 26.0379 7.7959 33.4998 17.0007 33.4998Z"
            fill="#F0F0F0" />
        <path
            d="M16.2754 16.8332H33.6667C33.6667 15.3289 33.4661 13.8716 33.0925 12.4854H16.2754V16.8332Z"
            fill="#D80027" />
        <path
            d="M16.2754 8.1374H31.2204C30.2002 6.47256 28.8957 5.00101 27.3747 3.78955H16.2754V8.1374Z"
            fill="#D80027" />
        <path
            d="M16.9997 33.4996C20.9222 33.4996 24.5275 32.1439 27.3745 29.8765H6.625C9.472 32.1439 13.0773 33.4996 16.9997 33.4996Z"
            fill="#D80027" />
        <path
            d="M2.78027 25.5285H31.2212C32.0402 24.192 32.6755 22.7311 33.0932 21.1807H0.908203C1.32598 22.7311 1.9612 24.192 2.78027 25.5285Z"
            fill="#D80027" />
        <path
            d="M8.0543 2.76924H9.57311L8.16035 3.79561L8.7 5.45635L7.2873 4.42998L5.87461 5.45635L6.34075 4.02165C5.09687 5.05778 4.00664 6.27171 3.1082 7.62432H3.59486L2.69557 8.27764C2.55547 8.51136 2.42109 8.74879 2.29232 8.98975L2.72174 10.3114L1.92057 9.72933C1.72142 10.1513 1.53926 10.5827 1.37552 11.0231L1.84863 12.4794H3.59486L2.1821 13.5058L2.72174 15.1665L1.30905 14.1401L0.462826 14.755C0.378125 15.4358 0.333984 16.1293 0.333984 16.8332H17.0007C17.0007 7.62848 17.0007 6.54333 17.0007 0.166504C13.7082 0.166504 10.639 1.12158 8.0543 2.76924ZM8.7 15.1665L7.2873 14.1401L5.87461 15.1665L6.41426 13.5058L5.0015 12.4794H6.74772L7.2873 10.8187L7.82689 12.4794H9.57311L8.16035 13.5058L8.7 15.1665ZM8.16035 8.65068L8.7 10.3114L7.2873 9.28506L5.87461 10.3114L6.41426 8.65068L5.0015 7.62432H6.74772L7.2873 5.96357L7.82689 7.62432H9.57311L8.16035 8.65068ZM14.6783 15.1665L13.2656 14.1401L11.8529 15.1665L12.3925 13.5058L10.9798 12.4794H12.726L13.2656 10.8187L13.8051 12.4794H15.5514L14.1386 13.5058L14.6783 15.1665ZM14.1386 8.65068L14.6783 10.3114L13.2656 9.28506L11.8529 10.3114L12.3925 8.65068L10.9798 7.62432H12.726L13.2656 5.96357L13.8051 7.62432H15.5514L14.1386 8.65068ZM14.1386 3.79561L14.6783 5.45635L13.2656 4.42998L11.8529 5.45635L12.3925 3.79561L10.9798 2.76924H12.726L13.2656 1.1085L13.8051 2.76924H15.5514L14.1386 3.79561Z"
            fill="#0052B4" />
    </g>
    <defs>
        <clipPath id="clip0_751_6727">
            <rect width="33.3333" height="33.3333" fill="white"
                transform="translate(0.333984 0.166504)" />
        </clipPath>
    </defs>
</svg>
