<svg width="27" height="20" viewBox="0 0 27 20" fill="none" xmlns="http://www.w3.org/2000/svg">
    <g clip-path="url(#clip0_752_14404)">
        <mask id="mask0_752_14404" style="mask-type:luminance" maskUnits="userSpaceOnUse" x="0"
            y="0" width="28" height="20">
            <path d="M0 0H27.0013V20H0V0Z" fill="white" />
        </mask>
        <g mask="url(#mask0_752_14404)">
            <path fill-rule="evenodd" clip-rule="evenodd"
                d="M0 0H38.475V1.53906H0V0ZM0 3.07812H38.475V4.61719H0V3.07812ZM0 6.15234H38.475V7.69531H0V6.15234ZM0 9.23047H38.475V10.7695H0V9.23047ZM0 12.3086H38.475V13.8477H0V12.3086ZM0 15.3828H38.475V16.9219H0V15.3828ZM0 18.4609H38.475V20H0V18.4609Z"
                fill="#BD3D44" />
            <path fill-rule="evenodd" clip-rule="evenodd"
                d="M0 1.53906H38.475V3.07812H0V1.53906ZM0 4.61719H38.475V6.15234H0V4.61719ZM0 7.69141H38.475V9.23047H0V7.69141ZM0 10.7695H38.475V12.3086H0V10.7695ZM0 13.8477H38.475V15.3867H0V13.8477ZM0 16.9219H38.475V18.4609H0V16.9219Z"
                fill="white" />
            <path fill-rule="evenodd" clip-rule="evenodd" d="M0 0H15.3892V10.7695H0V0Z"
                fill="#192F5D" />
            <path fill-rule="evenodd" clip-rule="evenodd"
                d="M1.28076 0.460938L1.42314 0.886719H1.87402L1.51016 1.14844L1.64858 1.57812L1.28076 1.3125L0.916895 1.57422L1.05532 1.14844L0.6875 0.886719H1.14629L1.28076 0.460938ZM3.84761 0.460938L3.98604 0.886719H4.44087L4.07305 1.14844L4.21147 1.57812L3.84761 1.3125L3.47979 1.57422L3.61821 1.14844L3.25435 0.886719H3.70522L3.84761 0.460938ZM6.4105 0.460938L6.55288 0.886719H6.99981L6.63594 1.14844L6.77437 1.57812L6.40654 1.3125L6.04268 1.57422L6.1811 1.14844L5.81328 0.886719H6.26812L6.4105 0.460938ZM8.97734 0.460938L9.11577 0.886719H9.57061L9.20278 1.14844L9.34517 1.57812L8.97734 1.3125L8.60952 1.57422L8.75191 1.14844L8.38408 0.886719H8.83496L8.97734 0.460938ZM11.5402 0.460938L11.6826 0.886719H12.1335L11.7696 1.14844L11.9081 1.57812L11.5402 1.3125L11.1764 1.57422L11.3148 1.14844L10.9509 0.886719H11.4018L11.5402 0.460938ZM14.1071 0.460938L14.2455 0.886719H14.7003L14.3325 1.14844L14.4749 1.57812L14.1071 1.3125L13.7393 1.57422L13.8816 1.14844L13.5138 0.886719H13.9687L14.1071 0.460938ZM2.56616 1.53906L2.70459 1.96484H3.15942L2.7916 2.22656L2.92607 2.65234L2.57012 2.39062L2.2023 2.65234L2.33281 2.22656L1.97686 1.96484H2.42773L2.56616 1.53906ZM5.12905 1.53906L5.27144 1.96484H5.72231L5.35449 2.22656L5.49688 2.65234L5.12905 2.39062L4.76123 2.65234L4.90361 2.22656L4.53579 1.96484H4.99063L5.12905 1.53906ZM7.6959 1.53906L7.83433 1.96484H8.28916L7.92134 2.22656L8.05977 2.65234L7.6959 2.39062L7.32808 2.65234L7.46651 2.22656L7.10264 1.96484H7.55352L7.6959 1.53906ZM10.2588 1.53906L10.4012 1.96484H10.8521L10.4842 2.22656L10.6266 2.65234L10.2588 2.39062L9.89492 2.65234L10.0334 2.22656L9.66553 1.96484H10.1243L10.2588 1.53906ZM12.8256 1.53906L12.9641 1.96484H13.4189L13.0511 2.22656L13.1895 2.65234L12.8256 2.39062L12.4578 2.65234L12.5962 2.22656L12.2324 1.96484H12.6833L12.8256 1.53906ZM1.28076 2.61328L1.42314 3.04687H1.87402L1.51016 3.30859L1.64858 3.73437L1.28076 3.46875L0.916895 3.73437L1.05532 3.30469L0.6875 3.04297H1.14629L1.28076 2.61328ZM3.84761 2.61328L3.98604 3.04297H4.44087L4.07305 3.30469L4.21147 3.73047L3.84761 3.46484L3.47979 3.73047L3.61821 3.30078L3.25435 3.03906H3.70522L3.84761 2.61328ZM6.4105 2.61328L6.55288 3.04297H6.99981L6.63594 3.30469L6.77437 3.73047L6.40654 3.46484L6.04268 3.73047L6.1811 3.30078L5.81328 3.03906H6.26812L6.4105 2.61328ZM8.97734 2.61328L9.11577 3.04297H9.57061L9.20278 3.30469L9.34517 3.73047L8.97734 3.46484L8.60952 3.73047L8.75191 3.30078L8.38408 3.03906H8.83496L8.97734 2.61328ZM11.5402 2.61328L11.6826 3.04297H12.1335L11.7696 3.30469L11.9081 3.73047L11.5402 3.46484L11.1764 3.73047L11.3148 3.30078L10.9509 3.03906H11.4018L11.5402 2.61328ZM14.1071 2.61328L14.2455 3.04297H14.7003L14.3325 3.30469L14.4749 3.73047L14.1071 3.46484L13.7393 3.73047L13.8816 3.30078L13.5138 3.03906H13.9687L14.1071 2.61328ZM2.56616 3.69141L2.70459 4.11719H3.15942L2.7916 4.37891L2.93003 4.80859L2.56616 4.54297L2.19834 4.80469L2.33677 4.37891L1.9729 4.11719H2.42378L2.56616 3.69141ZM5.12905 3.69141L5.27144 4.11719H5.72231L5.35449 4.37891L5.49688 4.80859L5.12905 4.54297L4.76123 4.80469L4.90361 4.37891L4.53579 4.11719H4.99063L5.12905 3.69141ZM7.6959 3.69141L7.83433 4.11719H8.28916L7.92134 4.37891L8.05977 4.80859L7.6959 4.54297L7.32808 4.80469L7.46651 4.37891L7.10264 4.11719H7.55352L7.6959 3.69141ZM10.2588 3.69141L10.4012 4.11719H10.8521L10.4882 4.37891L10.6266 4.80859L10.2588 4.54297L9.89492 4.80469L10.0334 4.37891L9.66553 4.11719H10.1243L10.2588 3.69141ZM12.8256 3.69141L12.9641 4.11719H13.4189L13.0511 4.37891L13.1895 4.80859L12.8256 4.54297L12.4578 4.80469L12.5962 4.37891L12.2324 4.11719H12.6833L12.8256 3.69141ZM1.28076 4.76953L1.42314 5.19531H1.87402L1.51016 5.45703L1.64858 5.88672L1.28076 5.62109L0.916895 5.88281L1.05532 5.45703L0.6875 5.19531H1.14629L1.28076 4.76953ZM3.84761 4.76953L3.98604 5.19531H4.44087L4.07305 5.45703L4.21147 5.88281L3.84761 5.62109L3.47979 5.88281L3.61821 5.45703L3.25435 5.19531H3.70522L3.84761 4.76953ZM6.4105 4.76953L6.55288 5.19531H6.99981L6.63594 5.45703L6.77437 5.88672L6.40654 5.62109L6.04268 5.88281L6.1811 5.45703L5.81328 5.19531H6.26812L6.4105 4.76953ZM8.97734 4.76953L9.11577 5.19531H9.57061L9.20278 5.45703L9.34517 5.88672L8.97734 5.62109L8.60952 5.88281L8.75191 5.45703L8.38408 5.19531H8.83496L8.97734 4.76953ZM11.5402 4.76953L11.6826 5.19531H12.1335L11.7696 5.45703L11.9081 5.88672L11.5402 5.62109L11.1764 5.88281L11.3148 5.45703L10.9509 5.19531H11.4018L11.5402 4.76953ZM14.1071 4.76953L14.2455 5.19531H14.7003L14.3325 5.45703L14.4749 5.88672L14.1071 5.62109L13.7393 5.88281L13.8816 5.45703L13.5138 5.19531H13.9687L14.1071 4.76953ZM2.56616 5.84766L2.70459 6.27344H3.15942L2.7916 6.53516L2.93003 6.96094L2.56616 6.69531L2.19834 6.96094L2.33677 6.53125L1.9729 6.26953H2.42378L2.56616 5.84766ZM5.12905 5.84766L5.27144 6.27344H5.72231L5.35449 6.53516L5.49688 6.96094L5.12905 6.69531L4.76123 6.96094L4.90361 6.53125L4.53579 6.26953H4.99063L5.12905 5.84766ZM7.6959 5.84766L7.83433 6.27344H8.28916L7.92134 6.53516L8.05977 6.96094L7.6959 6.69531L7.32808 6.96094L7.46651 6.53125L7.10264 6.26953H7.55352L7.6959 5.84766ZM10.2588 5.84766L10.4012 6.27344H10.8521L10.4882 6.53516L10.6266 6.96094L10.2588 6.69531L9.89492 6.96094L10.0334 6.53125L9.66553 6.26953H10.1243L10.2588 5.84766ZM12.8256 5.84766L12.9641 6.27344H13.4189L13.0511 6.53516L13.1895 6.96094L12.8256 6.69531L12.4578 6.96094L12.5962 6.53125L12.2324 6.26953H12.6833L12.8256 5.84766ZM1.28076 6.92187L1.42314 7.35156H1.87402L1.51016 7.61328L1.64858 8.03516L1.28076 7.77344L0.916895 8.03516L1.05532 7.60937L0.6875 7.34766H1.14629L1.28076 6.92187ZM3.84761 6.92187L3.98604 7.35156H4.44087L4.07305 7.61328L4.21543 8.03516L3.84761 7.77344L3.47979 8.03516L3.62217 7.60937L3.25435 7.34766H3.70522L3.84761 6.92187ZM6.4105 6.92187L6.55288 7.35156H6.99981L6.63594 7.61328L6.77437 8.03516L6.40654 7.77344L6.04268 8.03516L6.1811 7.60937L5.81328 7.34766H6.26812L6.4105 6.92187ZM8.97734 6.92187L9.11577 7.35156H9.57061L9.20278 7.61328L9.34517 8.03516L8.97734 7.77344L8.60952 8.03516L8.75191 7.60937L8.38408 7.34766H8.83496L8.97734 6.92187ZM11.5402 6.92187L11.6826 7.35156H12.1335L11.7696 7.61328L11.9081 8.03516L11.5402 7.77344L11.1764 8.03516L11.3148 7.60937L10.9509 7.34766H11.4018L11.5402 6.92187ZM14.1071 6.92187L14.2455 7.35156H14.7003L14.3325 7.61328L14.4749 8.03516L14.1071 7.77344L13.7393 8.03516L13.8816 7.60937L13.5138 7.34766H13.9687L14.1071 6.92187ZM2.56616 8L2.70459 8.42578H3.15942L2.7916 8.6875L2.93003 9.11719L2.56616 8.85156L2.19834 9.11328L2.33677 8.6875L1.9729 8.42578H2.42378L2.56616 8ZM5.12905 8L5.27144 8.42578H5.72231L5.35449 8.6875L5.49688 9.11719L5.12905 8.85156L4.76123 9.11328L4.90361 8.6875L4.53579 8.42578H4.99063L5.12905 8ZM7.6959 8L7.83433 8.42578H8.28916L7.92134 8.6875L8.05977 9.11719L7.6959 8.85156L7.32808 9.11328L7.46651 8.6875L7.10264 8.42578H7.55352L7.6959 8ZM10.2588 8L10.4012 8.42578H10.8521L10.4882 8.6875L10.6266 9.11719L10.2588 8.85156L9.89492 9.11328L10.0334 8.6875L9.66553 8.42578H10.1243L10.2588 8ZM12.8256 8L12.9641 8.42578H13.4189L13.0511 8.6875L13.1895 9.11719L12.8256 8.85156L12.4578 9.11328L12.5962 8.6875L12.2324 8.42578H12.6833L12.8256 8ZM1.28076 9.07812L1.42314 9.50391H1.87402L1.51016 9.76562L1.64858 10.1914L1.28076 9.92969L0.916895 10.1914L1.05532 9.76172L0.6875 9.5H1.14629L1.28076 9.07812ZM3.84761 9.07812L3.98604 9.50391H4.44087L4.07305 9.76562L4.21543 10.1914L3.84761 9.92969L3.47979 10.1914L3.62217 9.76172L3.25435 9.5H3.70522L3.84761 9.07812ZM6.4105 9.07812L6.55288 9.50391H6.99981L6.64385 9.76562L6.78228 10.1914L6.41445 9.92969L6.05059 10.1914L6.18901 9.76172L5.82119 9.5H6.27603L6.4105 9.07812ZM8.97734 9.07812L9.11577 9.50391H9.57061L9.20278 9.76562L9.34517 10.1914L8.97734 9.92969L8.60952 10.1914L8.75191 9.76172L8.38408 9.5H8.83496L8.97734 9.07812ZM11.5402 9.07812L11.6826 9.50391H12.1335L11.7696 9.76562L11.9081 10.1914L11.5402 9.92969L11.1764 10.1914L11.3148 9.76172L10.9509 9.5H11.4018L11.5402 9.07812ZM14.1071 9.07812L14.2455 9.50391H14.7003L14.3325 9.76562L14.4749 10.1914L14.1071 9.92969L13.7393 10.1914L13.8816 9.76172L13.5138 9.5H13.9687L14.1071 9.07812Z"
                fill="white" />
        </g>
    </g>
    <defs>
        <clipPath id="clip0_752_14404">
            <rect width="27" height="20" fill="white" />
        </clipPath>
    </defs>
</svg>
